%FSLAX23Y23*%
%MOIN*%
G70*
G01*
G75*
G04 Layer_Color=2752767*
%ADD10C,0.004*%
%ADD11C,0.005*%
%ADD12C,0.007*%
D10*
X641Y546D02*
X709D01*
X641Y584D02*
X709D01*
Y546D02*
Y584D01*
X641Y546D02*
Y584D01*
Y396D02*
X709D01*
X641Y434D02*
X709D01*
Y396D02*
Y434D01*
X641Y396D02*
Y434D01*
X675Y546D02*
Y584D01*
X656Y565D02*
X694D01*
X628Y543D02*
X722D01*
X628Y587D02*
X722D01*
Y543D02*
Y587D01*
X628Y543D02*
Y587D01*
X675Y396D02*
Y434D01*
X656Y415D02*
X694D01*
X628Y393D02*
X722D01*
X628Y437D02*
X722D01*
Y393D02*
Y437D01*
X628Y393D02*
Y437D01*
D11*
X445Y494D02*
Y534D01*
X485D01*
Y494D01*
X445D01*
Y376D02*
Y416D01*
X485D01*
Y376D01*
X445D01*
X155Y750D02*
X135Y790D01*
X175D01*
X155Y750D01*
X160Y135D02*
X140Y175D01*
X180D01*
X160Y135D01*
D12*
X112Y833D02*
G03*
X112Y833I-20J0D01*
G01*
X238D02*
G03*
X238Y833I-20J0D01*
G01*
X175Y859D02*
G03*
X175Y859I-20J0D01*
G01*
X86Y770D02*
G03*
X86Y770I-20J0D01*
G01*
X112Y707D02*
G03*
X112Y707I-20J0D01*
G01*
X175Y681D02*
G03*
X175Y681I-20J0D01*
G01*
X238Y707D02*
G03*
X238Y707I-20J0D01*
G01*
X264Y770D02*
G03*
X264Y770I-20J0D01*
G01*
X269Y155D02*
G03*
X269Y155I-20J0D01*
G01*
X243Y92D02*
G03*
X243Y92I-20J0D01*
G01*
X180Y66D02*
G03*
X180Y66I-20J0D01*
G01*
X117Y92D02*
G03*
X117Y92I-20J0D01*
G01*
X91Y155D02*
G03*
X91Y155I-20J0D01*
G01*
X180Y244D02*
G03*
X180Y244I-20J0D01*
G01*
X243Y218D02*
G03*
X243Y218I-20J0D01*
G01*
X117D02*
G03*
X117Y218I-20J0D01*
G01*
M02*
