%FSLAX23Y23*%
%MOIN*%
G70*
G01*
G75*
%ADD10C,0.004*%
%ADD11C,0.005*%
%ADD12C,0.007*%
D10*
X641Y546D02*
X709D01*
X641Y584D02*
X709D01*
Y546D02*
Y584D01*
X641Y546D02*
Y584D01*
Y396D02*
X709D01*
X641Y434D02*
X709D01*
Y396D02*
Y434D01*
X641Y396D02*
Y434D01*
X675Y546D02*
Y584D01*
X656Y565D02*
X694D01*
X628Y543D02*
X722D01*
X628Y587D02*
X722D01*
Y543D02*
Y587D01*
X628Y543D02*
Y587D01*
X675Y396D02*
Y434D01*
X656Y415D02*
X694D01*
X628Y393D02*
X722D01*
X628Y437D02*
X722D01*
Y393D02*
Y437D01*
X628Y393D02*
Y437D01*
D11*
X450Y514D02*
X480D01*
X465Y499D02*
Y529D01*
X450Y396D02*
X480D01*
X465Y381D02*
Y411D01*
X83Y833D02*
X102D01*
X92Y823D02*
Y842D01*
X208Y833D02*
X227D01*
X218Y823D02*
Y842D01*
X145Y859D02*
X165D01*
X155Y849D02*
Y868D01*
X57Y770D02*
X76D01*
X66Y760D02*
Y780D01*
X83Y707D02*
X102D01*
X92Y698D02*
Y717D01*
X145Y681D02*
X165D01*
X155Y672D02*
Y691D01*
X208Y707D02*
X227D01*
X218Y698D02*
Y717D01*
X234Y770D02*
X253D01*
X244Y760D02*
Y780D01*
X96Y770D02*
X214D01*
X155Y711D02*
Y829D01*
X101Y155D02*
X219D01*
X160Y96D02*
Y214D01*
X239Y155D02*
X258D01*
X249Y145D02*
Y165D01*
X213Y92D02*
X232D01*
X223Y83D02*
Y102D01*
X150Y66D02*
X170D01*
X160Y57D02*
Y76D01*
X88Y92D02*
X107D01*
X97Y83D02*
Y102D01*
X62Y155D02*
X81D01*
X71Y145D02*
Y165D01*
X150Y244D02*
X170D01*
X160Y234D02*
Y253D01*
X213Y218D02*
X232D01*
X223Y208D02*
Y227D01*
X88Y218D02*
X107D01*
X97Y208D02*
Y227D01*
M02*
