%FSLAX23Y23*%
%MOIN*%
G70*
G01*
G75*
G04 Layer_Color=32896*
%ADD10R,0.118X0.059*%
%ADD11R,0.118X0.039*%
%ADD12R,0.031X0.035*%
%ADD13C,0.010*%
%ADD14C,0.060*%
%ADD15C,0.039*%
%ADD16C,0.236*%
%ADD17C,0.000*%
%ADD18C,0.000*%
%ADD19C,0.020*%
%ADD20C,0.059*%
%ADD21R,0.126X0.067*%
%ADD22R,0.126X0.047*%
%ADD23R,0.039X0.043*%
%ADD24C,0.068*%
%ADD25C,0.001*%
D25*
X409Y431D02*
Y432D01*
X410Y429D02*
Y432D01*
X411Y429D02*
Y432D01*
X411Y429D02*
Y433D01*
X412Y429D02*
Y433D01*
X412Y429D02*
Y433D01*
X413Y429D02*
Y434D01*
X414Y429D02*
Y435D01*
X414Y429D02*
Y435D01*
X415Y429D02*
Y435D01*
X415Y429D02*
Y435D01*
X416Y429D02*
Y436D01*
X417Y429D02*
Y436D01*
X417Y429D02*
Y436D01*
X418Y429D02*
Y437D01*
X418Y429D02*
Y437D01*
X419Y429D02*
Y438D01*
X420Y429D02*
Y438D01*
X420Y429D02*
Y438D01*
X421Y429D02*
Y439D01*
X421Y429D02*
Y439D01*
X422Y429D02*
Y439D01*
X423Y429D02*
Y440D01*
X423Y429D02*
Y441D01*
X424Y429D02*
Y441D01*
X424Y429D02*
Y441D01*
X425Y429D02*
Y441D01*
X426Y429D02*
Y442D01*
X426Y429D02*
Y442D01*
X427Y429D02*
Y442D01*
X427Y429D02*
Y443D01*
X428Y429D02*
Y444D01*
X429Y429D02*
Y444D01*
X429Y429D02*
Y444D01*
X430Y428D02*
Y444D01*
X430Y428D02*
Y445D01*
X431Y428D02*
Y445D01*
X432Y428D02*
Y445D01*
X432Y428D02*
Y446D01*
X433Y428D02*
Y447D01*
X433Y428D02*
Y447D01*
X434Y428D02*
Y447D01*
X435Y428D02*
Y447D01*
X435Y428D02*
Y448D01*
X436Y428D02*
Y448D01*
X436Y428D02*
Y448D01*
X437Y427D02*
Y449D01*
X438Y427D02*
Y450D01*
X438Y427D02*
Y450D01*
X439Y427D02*
Y450D01*
X439Y427D02*
Y451D01*
X440Y427D02*
Y451D01*
X441Y427D02*
Y451D01*
X441Y427D02*
Y451D01*
X442Y427D02*
Y452D01*
X442Y427D02*
Y453D01*
X443Y427D02*
Y453D01*
X444Y427D02*
Y453D01*
X444Y427D02*
Y454D01*
X445Y427D02*
Y454D01*
X445Y427D02*
Y454D01*
X446Y427D02*
Y454D01*
X447Y427D02*
Y455D01*
X447Y427D02*
Y456D01*
X448Y427D02*
Y456D01*
X448Y427D02*
Y456D01*
X449Y427D02*
Y457D01*
X450Y427D02*
Y457D01*
X450Y426D02*
Y457D01*
X451Y426D02*
Y457D01*
X451Y426D02*
Y458D01*
X452Y426D02*
Y459D01*
X453Y426D02*
Y459D01*
X453Y426D02*
Y459D01*
X454Y426D02*
Y460D01*
X454Y426D02*
Y460D01*
X455Y426D02*
Y460D01*
X456Y426D02*
Y460D01*
X456Y426D02*
Y461D01*
X457Y426D02*
Y462D01*
X457Y426D02*
Y462D01*
X458Y426D02*
Y462D01*
X459Y426D02*
Y463D01*
X459Y426D02*
Y463D01*
X460Y426D02*
Y463D01*
X460Y426D02*
Y464D01*
X461Y426D02*
Y464D01*
X462Y426D02*
Y465D01*
X462Y426D02*
Y465D01*
X463Y426D02*
Y465D01*
X463Y426D02*
Y466D01*
X464Y426D02*
Y466D01*
X465Y426D02*
Y466D01*
X465Y426D02*
Y467D01*
X466Y426D02*
Y467D01*
X466Y426D02*
Y468D01*
X467Y426D02*
Y468D01*
X468Y426D02*
Y468D01*
X468Y426D02*
Y469D01*
X469Y426D02*
Y469D01*
X469Y426D02*
Y469D01*
X470Y426D02*
Y470D01*
X471Y426D02*
Y470D01*
X471Y426D02*
Y471D01*
X472Y426D02*
Y471D01*
X472Y426D02*
Y471D01*
X473Y426D02*
Y472D01*
X474Y426D02*
Y472D01*
X474Y426D02*
Y472D01*
X475Y426D02*
Y473D01*
X475Y426D02*
Y473D01*
X476Y426D02*
Y474D01*
X477Y426D02*
Y474D01*
X477Y426D02*
Y474D01*
X478Y426D02*
Y475D01*
X478Y426D02*
Y475D01*
X479Y426D02*
Y475D01*
X480Y426D02*
Y476D01*
X480Y426D02*
Y476D01*
X481Y426D02*
Y477D01*
X481Y426D02*
Y477D01*
X482Y426D02*
Y477D01*
X483Y426D02*
Y478D01*
X483Y426D02*
Y478D01*
X484Y426D02*
Y478D01*
X484Y426D02*
Y479D01*
X485Y426D02*
Y479D01*
X486Y426D02*
Y480D01*
X486Y426D02*
Y480D01*
X487Y426D02*
Y480D01*
X487Y426D02*
Y481D01*
X488Y426D02*
Y481D01*
X489Y426D02*
Y481D01*
X489Y426D02*
Y482D01*
X490Y426D02*
Y482D01*
X490Y426D02*
Y483D01*
X491Y426D02*
Y483D01*
X492Y426D02*
Y483D01*
X492Y426D02*
Y484D01*
X493Y426D02*
Y484D01*
X493Y426D02*
Y484D01*
X494Y426D02*
Y485D01*
X495Y426D02*
Y485D01*
X495Y426D02*
Y486D01*
X496Y426D02*
Y486D01*
X496Y426D02*
Y486D01*
X497Y426D02*
Y487D01*
X498Y426D02*
Y487D01*
X498Y426D02*
Y487D01*
X499Y426D02*
Y488D01*
X499Y426D02*
Y488D01*
X500Y426D02*
Y489D01*
X501Y427D02*
Y489D01*
X501Y426D02*
Y489D01*
X502Y427D02*
Y490D01*
X502Y427D02*
Y490D01*
X503Y427D02*
Y490D01*
X504Y427D02*
Y491D01*
X504Y427D02*
Y491D01*
X505Y427D02*
Y492D01*
X505Y427D02*
Y492D01*
X506Y427D02*
Y492D01*
X507Y427D02*
Y493D01*
X507Y427D02*
Y493D01*
X508Y427D02*
Y493D01*
X508Y427D02*
Y494D01*
X509Y427D02*
Y495D01*
X510Y427D02*
Y495D01*
X510Y427D02*
Y495D01*
X511Y427D02*
Y495D01*
X511Y427D02*
Y496D01*
X512Y427D02*
Y496D01*
X513Y427D02*
Y496D01*
X513Y427D02*
Y496D01*
X514Y427D02*
Y496D01*
X514Y427D02*
Y496D01*
X515Y427D02*
Y497D01*
X516Y427D02*
Y497D01*
X516Y427D02*
Y498D01*
X517Y427D02*
Y498D01*
X517Y427D02*
Y498D01*
X518Y427D02*
Y498D01*
X519Y427D02*
Y498D01*
X519Y337D02*
Y339D01*
Y427D02*
Y498D01*
X520Y337D02*
Y340D01*
Y428D02*
Y499D01*
X520Y337D02*
Y340D01*
Y428D02*
Y499D01*
X521Y337D02*
Y341D01*
Y428D02*
Y499D01*
X522Y337D02*
Y342D01*
Y428D02*
Y499D01*
X522Y337D02*
Y343D01*
Y428D02*
Y499D01*
X523Y337D02*
Y345D01*
Y428D02*
Y500D01*
X523Y337D02*
Y346D01*
Y428D02*
Y500D01*
X524Y337D02*
Y348D01*
Y428D02*
Y500D01*
X525Y337D02*
Y349D01*
Y428D02*
Y501D01*
X525Y337D02*
Y351D01*
Y428D02*
Y501D01*
X526Y337D02*
Y352D01*
Y428D02*
Y501D01*
X526Y337D02*
Y354D01*
Y428D02*
Y501D01*
X527Y337D02*
Y355D01*
Y428D02*
Y501D01*
X528Y337D02*
Y357D01*
Y429D02*
Y502D01*
X528Y337D02*
Y359D01*
Y429D02*
Y502D01*
X529Y337D02*
Y361D01*
Y429D02*
Y502D01*
X529Y337D02*
Y363D01*
Y429D02*
Y502D01*
X530Y337D02*
Y364D01*
Y429D02*
Y502D01*
X531Y337D02*
Y365D01*
Y429D02*
Y503D01*
X531Y337D02*
Y366D01*
Y429D02*
Y503D01*
X532Y337D02*
Y366D01*
Y429D02*
Y503D01*
X532Y337D02*
Y367D01*
Y429D02*
Y504D01*
X533Y337D02*
Y367D01*
Y429D02*
Y504D01*
X534Y337D02*
Y368D01*
Y429D02*
Y504D01*
X534Y337D02*
Y369D01*
Y429D02*
Y504D01*
X535Y337D02*
Y369D01*
Y429D02*
Y504D01*
X535Y337D02*
Y370D01*
Y429D02*
Y505D01*
X536Y337D02*
Y370D01*
Y429D02*
Y505D01*
X537Y337D02*
Y371D01*
Y429D02*
Y505D01*
X537Y337D02*
Y372D01*
Y429D02*
Y505D01*
X538Y337D02*
Y372D01*
Y429D02*
Y505D01*
X538Y337D02*
Y373D01*
Y429D02*
Y506D01*
X539Y337D02*
Y373D01*
Y429D02*
Y506D01*
X540Y337D02*
Y374D01*
Y429D02*
Y506D01*
X540Y337D02*
Y375D01*
Y429D02*
Y507D01*
X541Y337D02*
Y375D01*
Y429D02*
Y507D01*
X541Y337D02*
Y375D01*
Y429D02*
Y507D01*
X542Y337D02*
Y376D01*
Y429D02*
Y507D01*
X543Y337D02*
Y376D01*
Y429D02*
Y507D01*
X543Y337D02*
Y376D01*
Y429D02*
Y507D01*
X544Y337D02*
Y377D01*
Y429D02*
Y508D01*
X544Y337D02*
Y377D01*
Y429D02*
Y508D01*
X545Y337D02*
Y378D01*
Y429D02*
Y508D01*
X546Y338D02*
Y378D01*
Y429D02*
Y508D01*
X546Y338D02*
Y378D01*
Y429D02*
Y508D01*
X547Y338D02*
Y379D01*
Y429D02*
Y509D01*
X547Y338D02*
Y379D01*
Y429D02*
Y509D01*
X548Y338D02*
Y379D01*
Y429D02*
Y509D01*
X549Y339D02*
Y380D01*
Y429D02*
Y510D01*
X549Y339D02*
Y381D01*
Y429D02*
Y510D01*
X550Y339D02*
Y381D01*
Y429D02*
Y510D01*
X550Y339D02*
Y381D01*
Y429D02*
Y510D01*
X551Y339D02*
Y382D01*
Y429D02*
Y510D01*
X552Y339D02*
Y382D01*
Y429D02*
Y511D01*
X552Y339D02*
Y382D01*
Y429D02*
Y511D01*
X553Y339D02*
Y383D01*
Y429D02*
Y511D01*
X553Y339D02*
Y383D01*
Y429D02*
Y511D01*
X554Y339D02*
Y384D01*
Y429D02*
Y511D01*
X555Y339D02*
Y384D01*
Y429D02*
Y512D01*
X555Y340D02*
Y384D01*
Y429D02*
Y512D01*
Y559D02*
Y561D01*
X556Y340D02*
Y385D01*
Y429D02*
Y512D01*
Y559D02*
Y561D01*
X556Y340D02*
Y385D01*
Y429D02*
Y513D01*
Y559D02*
Y562D01*
X557Y340D02*
Y385D01*
Y429D02*
Y513D01*
Y559D02*
Y562D01*
X558Y340D02*
Y385D01*
Y429D02*
Y513D01*
Y559D02*
Y563D01*
X558Y340D02*
Y386D01*
Y429D02*
Y513D01*
Y559D02*
Y564D01*
X559Y340D02*
Y386D01*
Y429D02*
Y513D01*
Y559D02*
Y564D01*
X559Y340D02*
Y386D01*
Y429D02*
Y514D01*
Y559D02*
Y565D01*
X560Y340D02*
Y387D01*
Y429D02*
Y514D01*
Y559D02*
Y565D01*
X561Y341D02*
Y387D01*
Y429D02*
Y514D01*
Y558D02*
Y566D01*
X561Y341D02*
Y387D01*
Y429D02*
Y514D01*
Y558D02*
Y567D01*
X562Y341D02*
Y387D01*
Y429D02*
Y514D01*
Y558D02*
Y567D01*
X562Y341D02*
Y387D01*
Y429D02*
Y514D01*
Y558D02*
Y568D01*
X563Y341D02*
Y387D01*
Y429D02*
Y515D01*
Y558D02*
Y568D01*
X564Y341D02*
Y387D01*
Y429D02*
Y515D01*
Y558D02*
Y569D01*
X564Y342D02*
Y388D01*
Y429D02*
Y516D01*
Y558D02*
Y570D01*
X565Y342D02*
Y388D01*
Y429D02*
Y516D01*
Y558D02*
Y570D01*
X565Y342D02*
Y388D01*
Y428D02*
Y516D01*
Y558D02*
Y571D01*
X566Y342D02*
Y388D01*
Y428D02*
Y516D01*
Y558D02*
Y571D01*
X567Y342D02*
Y388D01*
Y428D02*
Y516D01*
Y557D02*
Y572D01*
X567Y342D02*
Y388D01*
Y428D02*
Y517D01*
Y557D02*
Y573D01*
X568Y342D02*
Y388D01*
Y428D02*
Y517D01*
Y557D02*
Y573D01*
X568Y342D02*
Y389D01*
Y427D02*
Y517D01*
Y557D02*
Y574D01*
X569Y342D02*
Y389D01*
Y427D02*
Y517D01*
Y557D02*
Y574D01*
X570Y343D02*
Y389D01*
Y427D02*
Y517D01*
Y556D02*
Y575D01*
X570Y343D02*
Y390D01*
Y427D02*
Y517D01*
Y556D02*
Y576D01*
X571Y343D02*
Y390D01*
Y427D02*
Y518D01*
Y556D02*
Y576D01*
X571Y343D02*
Y390D01*
Y427D02*
Y518D01*
Y556D02*
Y577D01*
X572Y343D02*
Y390D01*
Y427D02*
Y518D01*
Y556D02*
Y577D01*
X573Y343D02*
Y390D01*
Y427D02*
Y519D01*
Y556D02*
Y578D01*
X573Y343D02*
Y390D01*
Y427D02*
Y519D01*
Y556D02*
Y579D01*
X574Y343D02*
Y390D01*
Y427D02*
Y519D01*
Y556D02*
Y579D01*
X574Y343D02*
Y391D01*
Y427D02*
Y519D01*
Y556D02*
Y579D01*
X575Y343D02*
Y391D01*
Y427D02*
Y519D01*
Y556D02*
Y580D01*
X576Y344D02*
Y391D01*
Y426D02*
Y520D01*
Y556D02*
Y580D01*
X576Y344D02*
Y391D01*
Y426D02*
Y520D01*
Y556D02*
Y580D01*
X577Y344D02*
Y391D01*
Y426D02*
Y520D01*
Y556D02*
Y581D01*
X577Y344D02*
Y391D01*
Y426D02*
Y520D01*
Y556D02*
Y582D01*
X578Y344D02*
Y391D01*
Y426D02*
Y520D01*
Y556D02*
Y582D01*
X579Y344D02*
Y392D01*
Y426D02*
Y521D01*
Y556D02*
Y582D01*
X579Y345D02*
Y392D01*
Y426D02*
Y521D01*
Y556D02*
Y583D01*
X580Y345D02*
Y392D01*
Y426D02*
Y521D01*
Y556D02*
Y583D01*
X580Y345D02*
Y393D01*
Y426D02*
Y522D01*
Y556D02*
Y583D01*
X581Y345D02*
Y393D01*
Y426D02*
Y522D01*
Y556D02*
Y584D01*
X582Y345D02*
Y393D01*
Y426D02*
Y522D01*
Y556D02*
Y585D01*
X582Y345D02*
Y393D01*
Y425D02*
Y522D01*
Y556D02*
Y585D01*
X583Y345D02*
Y393D01*
Y425D02*
Y522D01*
Y556D02*
Y585D01*
X583Y345D02*
Y393D01*
Y425D02*
Y523D01*
Y556D02*
Y586D01*
X584Y345D02*
Y393D01*
Y425D02*
Y523D01*
Y556D02*
Y586D01*
X585Y345D02*
Y394D01*
Y425D02*
Y523D01*
Y556D02*
Y586D01*
X585Y345D02*
Y394D01*
Y424D02*
Y523D01*
Y556D02*
Y587D01*
X586Y346D02*
Y394D01*
Y424D02*
Y523D01*
Y556D02*
Y588D01*
X586Y346D02*
Y394D01*
Y424D02*
Y524D01*
Y556D02*
Y588D01*
X587Y346D02*
Y394D01*
Y424D02*
Y524D01*
Y556D02*
Y588D01*
X588Y346D02*
Y394D01*
Y424D02*
Y524D01*
Y556D02*
Y589D01*
X588Y346D02*
Y394D01*
Y424D02*
Y525D01*
Y556D02*
Y589D01*
X589Y346D02*
Y395D01*
Y424D02*
Y525D01*
Y556D02*
Y589D01*
X589Y346D02*
Y395D01*
Y424D02*
Y525D01*
Y556D02*
Y590D01*
X590Y346D02*
Y395D01*
Y424D02*
Y525D01*
Y556D02*
Y591D01*
X591Y346D02*
Y396D01*
Y424D02*
Y525D01*
Y556D02*
Y591D01*
X591Y346D02*
Y396D01*
Y423D02*
Y526D01*
Y556D02*
Y591D01*
X592Y346D02*
Y396D01*
Y423D02*
Y526D01*
Y556D02*
Y592D01*
X592Y346D02*
Y396D01*
Y423D02*
Y526D01*
Y556D02*
Y592D01*
X593Y346D02*
Y396D01*
Y423D02*
Y526D01*
Y556D02*
Y592D01*
X594Y346D02*
Y396D01*
Y423D02*
Y526D01*
Y556D02*
Y593D01*
X594Y346D02*
Y396D01*
Y422D02*
Y526D01*
Y556D02*
Y594D01*
X595Y346D02*
Y397D01*
Y422D02*
Y527D01*
Y556D02*
Y594D01*
X595Y346D02*
Y397D01*
Y422D02*
Y527D01*
Y556D02*
Y594D01*
X596Y346D02*
Y397D01*
Y421D02*
Y528D01*
Y556D02*
Y594D01*
X597Y347D02*
Y397D01*
Y421D02*
Y528D01*
Y556D02*
Y594D01*
X597Y347D02*
Y397D01*
Y421D02*
Y528D01*
Y556D02*
Y595D01*
X598Y347D02*
Y397D01*
Y421D02*
Y528D01*
Y556D02*
Y595D01*
X598Y347D02*
Y397D01*
Y421D02*
Y528D01*
Y556D02*
Y595D01*
X599Y347D02*
Y398D01*
Y420D02*
Y528D01*
Y556D02*
Y595D01*
X600Y347D02*
Y398D01*
Y420D02*
Y529D01*
Y556D02*
Y595D01*
X600Y347D02*
Y398D01*
Y420D02*
Y529D01*
Y556D02*
Y596D01*
X601Y347D02*
Y399D01*
Y420D02*
Y529D01*
Y556D02*
Y596D01*
X601Y347D02*
Y399D01*
Y420D02*
Y529D01*
Y556D02*
Y596D01*
X602Y348D02*
Y399D01*
Y419D02*
Y529D01*
Y556D02*
Y597D01*
X603Y348D02*
Y399D01*
Y419D02*
Y530D01*
Y556D02*
Y597D01*
X603Y348D02*
Y399D01*
Y418D02*
Y530D01*
Y556D02*
Y597D01*
X604Y348D02*
Y399D01*
Y418D02*
Y530D01*
Y556D02*
Y597D01*
X604Y348D02*
Y399D01*
Y418D02*
Y531D01*
Y556D02*
Y597D01*
X605Y348D02*
Y400D01*
Y418D02*
Y531D01*
Y556D02*
Y598D01*
X606Y348D02*
Y400D01*
Y418D02*
Y531D01*
Y556D02*
Y598D01*
X606Y348D02*
Y400D01*
Y417D02*
Y531D01*
Y556D02*
Y598D01*
X607Y348D02*
Y400D01*
Y417D02*
Y531D01*
Y555D02*
Y598D01*
X607Y348D02*
Y400D01*
Y417D02*
Y531D01*
Y555D02*
Y598D01*
X608Y348D02*
Y400D01*
Y417D02*
Y531D01*
Y555D02*
Y598D01*
X609Y348D02*
Y400D01*
Y417D02*
Y531D01*
Y555D02*
Y599D01*
X609Y348D02*
Y400D01*
Y416D02*
Y532D01*
Y555D02*
Y599D01*
X610Y348D02*
Y400D01*
Y416D02*
Y532D01*
Y555D02*
Y600D01*
X610Y348D02*
Y400D01*
Y415D02*
Y532D01*
Y555D02*
Y600D01*
X611Y348D02*
Y401D01*
Y415D02*
Y532D01*
Y555D02*
Y600D01*
X612Y348D02*
Y401D01*
Y415D02*
Y532D01*
Y554D02*
Y600D01*
X612Y348D02*
Y401D01*
Y415D02*
Y532D01*
Y554D02*
Y600D01*
X613Y348D02*
Y401D01*
Y415D02*
Y532D01*
Y554D02*
Y600D01*
X613Y348D02*
Y402D01*
Y414D02*
Y532D01*
Y554D02*
Y601D01*
X614Y348D02*
Y402D01*
Y414D02*
Y533D01*
Y553D02*
Y601D01*
X615Y348D02*
Y402D01*
Y414D02*
Y533D01*
Y553D02*
Y601D01*
X615Y348D02*
Y402D01*
Y414D02*
Y533D01*
Y553D02*
Y601D01*
X616Y348D02*
Y402D01*
Y413D02*
Y534D01*
Y553D02*
Y601D01*
X616Y348D02*
Y402D01*
Y413D02*
Y534D01*
Y553D02*
Y602D01*
X617Y348D02*
Y402D01*
Y413D02*
Y534D01*
Y553D02*
Y602D01*
X618Y348D02*
Y402D01*
Y412D02*
Y534D01*
Y553D02*
Y602D01*
X618Y347D02*
Y402D01*
Y412D02*
Y534D01*
Y553D02*
Y603D01*
X619Y347D02*
Y402D01*
Y412D02*
Y534D01*
Y552D02*
Y603D01*
X619Y347D02*
Y403D01*
Y412D02*
Y534D01*
Y552D02*
Y603D01*
X620Y347D02*
Y403D01*
Y412D02*
Y534D01*
Y552D02*
Y603D01*
X621Y347D02*
Y403D01*
Y411D02*
Y535D01*
Y552D02*
Y603D01*
X621Y347D02*
Y403D01*
Y411D02*
Y535D01*
Y552D02*
Y603D01*
X622Y347D02*
Y403D01*
Y411D02*
Y535D01*
Y552D02*
Y604D01*
X622Y347D02*
Y403D01*
Y411D02*
Y535D01*
Y552D02*
Y604D01*
X623Y347D02*
Y403D01*
Y410D02*
Y535D01*
Y552D02*
Y604D01*
X624Y346D02*
Y403D01*
Y410D02*
Y535D01*
Y551D02*
Y604D01*
X624Y346D02*
Y403D01*
Y410D02*
Y535D01*
Y551D02*
Y604D01*
X625Y346D02*
Y403D01*
Y409D02*
Y535D01*
Y551D02*
Y604D01*
X625Y346D02*
Y404D01*
Y409D02*
Y536D01*
Y551D02*
Y605D01*
X626Y346D02*
Y404D01*
Y409D02*
Y536D01*
Y550D02*
Y605D01*
X627Y346D02*
Y404D01*
Y408D02*
Y536D01*
Y550D02*
Y605D01*
X627Y346D02*
Y404D01*
Y408D02*
Y537D01*
Y550D02*
Y606D01*
X628Y346D02*
Y404D01*
Y408D02*
Y537D01*
Y550D02*
Y606D01*
X628Y346D02*
Y405D01*
Y407D02*
Y537D01*
Y550D02*
Y606D01*
X629Y346D02*
Y405D01*
Y407D02*
Y537D01*
Y550D02*
Y606D01*
X630Y346D02*
Y405D01*
Y406D02*
Y537D01*
Y550D02*
Y606D01*
X630Y346D02*
Y405D01*
Y406D02*
Y537D01*
Y550D02*
Y606D01*
X631Y346D02*
Y405D01*
Y406D02*
Y537D01*
Y549D02*
Y607D01*
X631Y346D02*
Y537D01*
Y549D02*
Y607D01*
X632Y346D02*
Y538D01*
Y549D02*
Y607D01*
X633Y346D02*
Y538D01*
Y549D02*
Y607D01*
X633Y346D02*
Y538D01*
Y549D02*
Y607D01*
X634Y346D02*
Y538D01*
Y549D02*
Y607D01*
X634Y346D02*
Y538D01*
Y549D02*
Y608D01*
X635Y346D02*
Y538D01*
Y549D02*
Y608D01*
X636Y345D02*
Y538D01*
Y548D02*
Y608D01*
X636Y345D02*
Y538D01*
Y548D02*
Y609D01*
X637Y345D02*
Y539D01*
Y548D02*
Y609D01*
X637Y345D02*
Y539D01*
Y548D02*
Y609D01*
X638Y345D02*
Y539D01*
Y547D02*
Y609D01*
X639Y345D02*
Y540D01*
Y547D02*
Y609D01*
X639Y345D02*
Y540D01*
Y547D02*
Y609D01*
X640Y267D02*
Y272D01*
Y345D02*
Y540D01*
Y547D02*
Y610D01*
X640Y267D02*
Y273D01*
Y345D02*
Y540D01*
Y547D02*
Y610D01*
X641Y267D02*
Y274D01*
Y345D02*
Y540D01*
Y547D02*
Y610D01*
X642Y267D02*
Y275D01*
Y345D02*
Y540D01*
Y547D02*
Y610D01*
X642Y267D02*
Y276D01*
Y345D02*
Y540D01*
Y546D02*
Y610D01*
X643Y267D02*
Y277D01*
Y345D02*
Y540D01*
Y546D02*
Y610D01*
X643Y267D02*
Y277D01*
Y345D02*
Y541D01*
Y546D02*
Y611D01*
X644Y267D02*
Y279D01*
Y345D02*
Y541D01*
Y546D02*
Y611D01*
X645Y267D02*
Y279D01*
Y344D02*
Y541D01*
Y546D02*
Y611D01*
X645Y267D02*
Y280D01*
Y344D02*
Y541D01*
Y546D02*
Y612D01*
X646Y267D02*
Y281D01*
Y344D02*
Y541D01*
Y546D02*
Y612D01*
X646Y267D02*
Y282D01*
Y344D02*
Y541D01*
Y545D02*
Y612D01*
X647Y267D02*
Y282D01*
Y344D02*
Y541D01*
Y545D02*
Y612D01*
X648Y267D02*
Y283D01*
Y344D02*
Y541D01*
Y545D02*
Y612D01*
X648Y267D02*
Y283D01*
Y344D02*
Y542D01*
Y544D02*
Y612D01*
X649Y267D02*
Y284D01*
Y344D02*
Y542D01*
Y544D02*
Y613D01*
X649Y267D02*
Y285D01*
Y343D02*
Y542D01*
Y544D02*
Y613D01*
Y655D02*
Y658D01*
X650Y267D02*
Y285D01*
Y343D02*
Y542D01*
Y544D02*
Y613D01*
Y655D02*
Y658D01*
X651Y267D02*
Y286D01*
Y343D02*
Y543D01*
Y544D02*
Y613D01*
Y655D02*
Y659D01*
X651Y267D02*
Y286D01*
Y343D02*
Y543D01*
Y544D02*
Y613D01*
Y655D02*
Y660D01*
X652Y267D02*
Y287D01*
Y343D02*
Y543D01*
Y544D02*
Y613D01*
Y655D02*
Y660D01*
X652Y267D02*
Y288D01*
Y343D02*
Y613D01*
Y655D02*
Y661D01*
X653Y267D02*
Y288D01*
Y343D02*
Y614D01*
Y655D02*
Y661D01*
X654Y267D02*
Y289D01*
Y343D02*
Y614D01*
Y655D02*
Y661D01*
X654Y267D02*
Y289D01*
Y343D02*
Y614D01*
Y655D02*
Y663D01*
X655Y267D02*
Y290D01*
Y343D02*
Y614D01*
Y655D02*
Y663D01*
X655Y267D02*
Y291D01*
Y343D02*
Y615D01*
Y655D02*
Y664D01*
X656Y267D02*
Y291D01*
Y343D02*
Y615D01*
Y655D02*
Y664D01*
X657Y267D02*
Y291D01*
Y343D02*
Y615D01*
Y655D02*
Y665D01*
X657Y267D02*
Y292D01*
Y342D02*
Y615D01*
Y655D02*
Y666D01*
X658Y267D02*
Y292D01*
Y342D02*
Y615D01*
Y655D02*
Y666D01*
X658Y267D02*
Y293D01*
Y342D02*
Y615D01*
Y655D02*
Y666D01*
X659Y267D02*
Y294D01*
Y342D02*
Y616D01*
Y655D02*
Y667D01*
X660Y267D02*
Y294D01*
Y342D02*
Y616D01*
Y655D02*
Y668D01*
X660Y267D02*
Y294D01*
Y342D02*
Y616D01*
Y655D02*
Y669D01*
X661Y267D02*
Y295D01*
Y342D02*
Y616D01*
Y655D02*
Y669D01*
X661Y267D02*
Y295D01*
Y341D02*
Y616D01*
Y655D02*
Y670D01*
X662Y267D02*
Y296D01*
Y341D02*
Y616D01*
Y655D02*
Y670D01*
X663Y267D02*
Y296D01*
Y341D02*
Y616D01*
Y655D02*
Y671D01*
X663Y267D02*
Y297D01*
Y340D02*
Y617D01*
Y655D02*
Y671D01*
X664Y267D02*
Y297D01*
Y340D02*
Y617D01*
Y655D02*
Y672D01*
X664Y267D02*
Y298D01*
Y340D02*
Y617D01*
Y655D02*
Y673D01*
X665Y267D02*
Y298D01*
Y340D02*
Y618D01*
Y656D02*
Y673D01*
X666Y267D02*
Y298D01*
Y340D02*
Y618D01*
Y656D02*
Y674D01*
X666Y267D02*
Y299D01*
Y340D02*
Y618D01*
Y656D02*
Y675D01*
X667Y267D02*
Y300D01*
Y339D02*
Y618D01*
Y656D02*
Y675D01*
X667Y267D02*
Y300D01*
Y339D02*
Y618D01*
Y656D02*
Y676D01*
X668Y267D02*
Y301D01*
Y339D02*
Y618D01*
Y656D02*
Y676D01*
X669Y267D02*
Y301D01*
Y339D02*
Y618D01*
Y656D02*
Y677D01*
X669Y267D02*
Y301D01*
Y339D02*
Y619D01*
Y656D02*
Y678D01*
X670Y267D02*
Y301D01*
Y339D02*
Y619D01*
Y656D02*
Y678D01*
X670Y267D02*
Y302D01*
Y338D02*
Y619D01*
Y656D02*
Y679D01*
X671Y267D02*
Y302D01*
Y338D02*
Y619D01*
Y656D02*
Y679D01*
X672Y267D02*
Y302D01*
Y338D02*
Y619D01*
Y656D02*
Y680D01*
X672Y267D02*
Y303D01*
Y337D02*
Y619D01*
Y656D02*
Y681D01*
X673Y267D02*
Y303D01*
Y337D02*
Y619D01*
Y656D02*
Y681D01*
X673Y267D02*
Y303D01*
Y337D02*
Y619D01*
Y657D02*
Y681D01*
X674Y267D02*
Y303D01*
Y337D02*
Y619D01*
Y657D02*
Y682D01*
X675Y267D02*
Y303D01*
Y337D02*
Y619D01*
Y657D02*
Y682D01*
X675Y267D02*
Y303D01*
Y336D02*
Y619D01*
Y657D02*
Y682D01*
X676Y267D02*
Y303D01*
Y336D02*
Y619D01*
Y657D02*
Y683D01*
X676Y267D02*
Y304D01*
Y336D02*
Y619D01*
Y657D02*
Y684D01*
X677Y267D02*
Y304D01*
Y336D02*
Y619D01*
Y657D02*
Y684D01*
X678Y267D02*
Y304D01*
Y336D02*
Y619D01*
Y657D02*
Y684D01*
X678Y267D02*
Y304D01*
Y336D02*
Y619D01*
Y657D02*
Y685D01*
X679Y267D02*
Y304D01*
Y335D02*
Y619D01*
Y657D02*
Y685D01*
X679Y267D02*
Y304D01*
Y335D02*
Y619D01*
Y657D02*
Y686D01*
X680Y268D02*
Y304D01*
Y335D02*
Y619D01*
Y657D02*
Y686D01*
X681Y268D02*
Y305D01*
Y334D02*
Y619D01*
Y657D02*
Y687D01*
X681Y268D02*
Y305D01*
Y334D02*
Y619D01*
Y657D02*
Y687D01*
X682Y268D02*
Y305D01*
Y334D02*
Y619D01*
Y657D02*
Y688D01*
X682Y268D02*
Y305D01*
Y334D02*
Y619D01*
Y657D02*
Y688D01*
X683Y268D02*
Y306D01*
Y334D02*
Y619D01*
Y657D02*
Y688D01*
X684Y268D02*
Y306D01*
Y334D02*
Y619D01*
Y657D02*
Y689D01*
X684Y268D02*
Y306D01*
Y333D02*
Y619D01*
Y657D02*
Y689D01*
X685Y269D02*
Y306D01*
Y333D02*
Y619D01*
Y657D02*
Y690D01*
X685Y269D02*
Y306D01*
Y333D02*
Y619D01*
Y657D02*
Y690D01*
X686Y269D02*
Y306D01*
Y333D02*
Y619D01*
Y657D02*
Y690D01*
X687Y269D02*
Y306D01*
Y333D02*
Y619D01*
Y657D02*
Y691D01*
X687Y270D02*
Y307D01*
Y333D02*
Y619D01*
Y657D02*
Y691D01*
X688Y270D02*
Y307D01*
Y332D02*
Y619D01*
Y657D02*
Y691D01*
X688Y270D02*
Y307D01*
Y332D02*
Y619D01*
Y657D02*
Y692D01*
X689Y270D02*
Y307D01*
Y331D02*
Y619D01*
Y657D02*
Y692D01*
X690Y270D02*
Y307D01*
Y331D02*
Y619D01*
Y658D02*
Y693D01*
X690Y270D02*
Y307D01*
Y331D02*
Y619D01*
Y657D02*
Y693D01*
X691Y270D02*
Y307D01*
Y331D02*
Y620D01*
Y657D02*
Y693D01*
X691Y270D02*
Y308D01*
Y331D02*
Y620D01*
Y657D02*
Y694D01*
X692Y271D02*
Y308D01*
Y331D02*
Y620D01*
Y657D02*
Y694D01*
X693Y271D02*
Y308D01*
Y330D02*
Y620D01*
Y657D02*
Y694D01*
X693Y271D02*
Y309D01*
Y330D02*
Y620D01*
Y657D02*
Y694D01*
X694Y271D02*
Y309D01*
Y330D02*
Y620D01*
Y657D02*
Y695D01*
X694Y271D02*
Y309D01*
Y330D02*
Y621D01*
Y657D02*
Y696D01*
X695Y271D02*
Y309D01*
Y330D02*
Y621D01*
Y657D02*
Y696D01*
X696Y271D02*
Y309D01*
Y330D02*
Y621D01*
Y657D02*
Y696D01*
X696Y271D02*
Y309D01*
Y329D02*
Y621D01*
Y657D02*
Y696D01*
X697Y272D02*
Y309D01*
Y329D02*
Y621D01*
Y657D02*
Y697D01*
X697Y272D02*
Y310D01*
Y329D02*
Y621D01*
Y657D02*
Y697D01*
X698Y272D02*
Y310D01*
Y328D02*
Y621D01*
Y657D02*
Y697D01*
X699Y272D02*
Y310D01*
Y328D02*
Y621D01*
Y657D02*
Y698D01*
X699Y273D02*
Y310D01*
Y328D02*
Y621D01*
Y657D02*
Y698D01*
X700Y273D02*
Y310D01*
Y328D02*
Y621D01*
Y657D02*
Y698D01*
X700Y273D02*
Y310D01*
Y328D02*
Y621D01*
Y657D02*
Y699D01*
X701Y273D02*
Y310D01*
Y328D02*
Y621D01*
Y656D02*
Y699D01*
X702Y273D02*
Y311D01*
Y327D02*
Y622D01*
Y656D02*
Y699D01*
X702Y273D02*
Y311D01*
Y327D02*
Y622D01*
Y656D02*
Y699D01*
X703Y273D02*
Y311D01*
Y327D02*
Y622D01*
Y656D02*
Y699D01*
X703Y273D02*
Y311D01*
Y327D02*
Y622D01*
Y656D02*
Y700D01*
X704Y273D02*
Y312D01*
Y327D02*
Y622D01*
Y656D02*
Y700D01*
X705Y273D02*
Y312D01*
Y326D02*
Y622D01*
Y656D02*
Y700D01*
X705Y273D02*
Y312D01*
Y326D02*
Y622D01*
Y656D02*
Y700D01*
X706Y273D02*
Y312D01*
Y326D02*
Y622D01*
Y656D02*
Y700D01*
X706Y273D02*
Y312D01*
Y325D02*
Y622D01*
Y655D02*
Y701D01*
X707Y273D02*
Y312D01*
Y325D02*
Y622D01*
Y655D02*
Y701D01*
X708Y273D02*
Y312D01*
Y325D02*
Y622D01*
Y655D02*
Y702D01*
X708Y273D02*
Y313D01*
Y325D02*
Y622D01*
Y655D02*
Y702D01*
X709Y273D02*
Y313D01*
Y325D02*
Y622D01*
Y655D02*
Y702D01*
X709Y273D02*
Y313D01*
Y325D02*
Y622D01*
Y655D02*
Y702D01*
X710Y273D02*
Y313D01*
Y324D02*
Y463D01*
Y465D02*
Y622D01*
Y655D02*
Y702D01*
X711Y273D02*
Y313D01*
Y324D02*
Y464D01*
Y465D02*
Y622D01*
Y655D02*
Y703D01*
X711Y273D02*
Y313D01*
Y324D02*
Y464D01*
Y466D02*
Y622D01*
Y655D02*
Y703D01*
X712Y273D02*
Y313D01*
Y324D02*
Y465D01*
Y467D02*
Y622D01*
Y655D02*
Y703D01*
X712Y273D02*
Y314D01*
Y324D02*
Y465D01*
Y468D02*
Y622D01*
Y655D02*
Y703D01*
X713Y273D02*
Y314D01*
Y324D02*
Y465D01*
Y468D02*
Y622D01*
Y655D02*
Y703D01*
X714Y273D02*
Y314D01*
Y323D02*
Y465D01*
Y469D02*
Y622D01*
Y655D02*
Y703D01*
X714Y273D02*
Y314D01*
Y323D02*
Y400D01*
Y400D02*
Y466D01*
Y470D02*
Y622D01*
Y655D02*
Y703D01*
X715Y273D02*
Y315D01*
Y322D02*
Y400D01*
Y401D02*
Y466D01*
Y471D02*
Y622D01*
Y655D02*
Y704D01*
X715Y273D02*
Y315D01*
Y322D02*
Y400D01*
Y402D02*
Y466D01*
Y471D02*
Y622D01*
Y655D02*
Y704D01*
X716Y273D02*
Y315D01*
Y322D02*
Y400D01*
Y402D02*
Y466D01*
Y472D02*
Y622D01*
Y655D02*
Y704D01*
X717Y273D02*
Y315D01*
Y322D02*
Y400D01*
Y402D02*
Y466D01*
Y473D02*
Y622D01*
Y654D02*
Y704D01*
X717Y273D02*
Y315D01*
Y322D02*
Y400D01*
Y403D02*
Y466D01*
Y474D02*
Y622D01*
Y654D02*
Y704D01*
X718Y273D02*
Y315D01*
Y322D02*
Y400D01*
Y403D02*
Y467D01*
Y474D02*
Y622D01*
Y654D02*
Y704D01*
X718Y273D02*
Y315D01*
Y321D02*
Y400D01*
Y403D02*
Y467D01*
Y475D02*
Y622D01*
Y654D02*
Y705D01*
X719Y273D02*
Y315D01*
Y321D02*
Y400D01*
Y404D02*
Y467D01*
Y475D02*
Y622D01*
Y654D02*
Y705D01*
X720Y273D02*
Y316D01*
Y321D02*
Y400D01*
Y404D02*
Y467D01*
Y476D02*
Y622D01*
Y654D02*
Y705D01*
X720Y273D02*
Y316D01*
Y321D02*
Y400D01*
Y405D02*
Y467D01*
Y477D02*
Y622D01*
Y654D02*
Y705D01*
X721Y273D02*
Y316D01*
Y321D02*
Y400D01*
Y405D02*
Y467D01*
Y477D02*
Y622D01*
Y654D02*
Y705D01*
X721Y273D02*
Y316D01*
Y321D02*
Y400D01*
Y405D02*
Y468D01*
Y478D02*
Y622D01*
Y654D02*
Y705D01*
X722Y273D02*
Y316D01*
Y320D02*
Y400D01*
Y406D02*
Y468D01*
Y478D02*
Y622D01*
Y653D02*
Y705D01*
X723Y273D02*
Y316D01*
Y320D02*
Y400D01*
Y406D02*
Y468D01*
Y480D02*
Y622D01*
Y653D02*
Y705D01*
X723Y273D02*
Y316D01*
Y320D02*
Y400D01*
Y406D02*
Y468D01*
Y480D02*
Y622D01*
Y653D02*
Y705D01*
X724Y273D02*
Y316D01*
Y319D02*
Y400D01*
Y406D02*
Y468D01*
Y481D02*
Y622D01*
Y653D02*
Y705D01*
X724Y273D02*
Y317D01*
Y319D02*
Y400D01*
Y407D02*
Y468D01*
Y481D02*
Y622D01*
Y652D02*
Y705D01*
X725Y273D02*
Y317D01*
Y319D02*
Y400D01*
Y407D02*
Y468D01*
Y482D02*
Y622D01*
Y652D02*
Y705D01*
X726Y273D02*
Y317D01*
Y319D02*
Y400D01*
Y407D02*
Y468D01*
Y483D02*
Y622D01*
Y652D02*
Y706D01*
X726Y273D02*
Y317D01*
Y319D02*
Y400D01*
Y408D02*
Y468D01*
Y483D02*
Y622D01*
Y652D02*
Y706D01*
X727Y273D02*
Y318D01*
Y319D02*
Y400D01*
Y408D02*
Y468D01*
Y484D02*
Y622D01*
Y652D02*
Y706D01*
X727Y273D02*
Y318D01*
Y318D02*
Y400D01*
Y408D02*
Y468D01*
Y484D02*
Y622D01*
Y652D02*
Y706D01*
X728Y273D02*
Y318D01*
Y318D02*
Y400D01*
Y408D02*
Y469D01*
Y485D02*
Y622D01*
Y652D02*
Y706D01*
X729Y273D02*
Y400D01*
Y408D02*
Y469D01*
Y486D02*
Y622D01*
Y652D02*
Y706D01*
X729Y273D02*
Y400D01*
Y408D02*
Y469D01*
Y487D02*
Y622D01*
Y652D02*
Y706D01*
X730Y273D02*
Y400D01*
Y409D02*
Y469D01*
Y487D02*
Y622D01*
Y651D02*
Y706D01*
X730Y273D02*
Y400D01*
Y409D02*
Y469D01*
Y488D02*
Y622D01*
Y651D02*
Y706D01*
X731Y273D02*
Y400D01*
Y409D02*
Y469D01*
Y489D02*
Y622D01*
Y651D02*
Y706D01*
X732Y273D02*
Y400D01*
Y409D02*
Y469D01*
Y489D02*
Y622D01*
Y651D02*
Y706D01*
X732Y273D02*
Y400D01*
Y409D02*
Y469D01*
Y490D02*
Y621D01*
Y651D02*
Y706D01*
X733Y273D02*
Y400D01*
Y409D02*
Y469D01*
Y490D02*
Y621D01*
Y651D02*
Y706D01*
X733Y273D02*
Y400D01*
Y410D02*
Y469D01*
Y491D02*
Y621D01*
Y651D02*
Y706D01*
X734Y273D02*
Y400D01*
Y410D02*
Y469D01*
Y492D02*
Y621D01*
Y651D02*
Y706D01*
X735Y273D02*
Y400D01*
Y410D02*
Y470D01*
Y493D02*
Y621D01*
Y651D02*
Y706D01*
X735Y273D02*
Y400D01*
Y411D02*
Y470D01*
Y493D02*
Y621D01*
Y651D02*
Y706D01*
X736Y273D02*
Y400D01*
Y411D02*
Y470D01*
Y494D02*
Y621D01*
Y650D02*
Y706D01*
X736Y273D02*
Y400D01*
Y411D02*
Y470D01*
Y495D02*
Y621D01*
Y650D02*
Y706D01*
X737Y273D02*
Y400D01*
Y411D02*
Y470D01*
Y495D02*
Y621D01*
Y650D02*
Y706D01*
X738Y273D02*
Y400D01*
Y411D02*
Y471D01*
Y496D02*
Y621D01*
Y650D02*
Y706D01*
X738Y273D02*
Y400D01*
Y411D02*
Y471D01*
Y496D02*
Y621D01*
Y649D02*
Y706D01*
X739Y273D02*
Y400D01*
Y412D02*
Y471D01*
Y497D02*
Y621D01*
Y649D02*
Y706D01*
X739Y273D02*
Y399D01*
Y412D02*
Y471D01*
Y498D02*
Y621D01*
Y649D02*
Y706D01*
X740Y273D02*
Y399D01*
Y412D02*
Y471D01*
Y498D02*
Y621D01*
Y649D02*
Y706D01*
X741Y273D02*
Y399D01*
Y412D02*
Y471D01*
Y499D02*
Y620D01*
Y649D02*
Y706D01*
X741Y273D02*
Y399D01*
Y412D02*
Y471D01*
Y500D02*
Y620D01*
Y649D02*
Y706D01*
X742Y273D02*
Y399D01*
Y412D02*
Y471D01*
Y501D02*
Y620D01*
Y649D02*
Y706D01*
X742Y273D02*
Y399D01*
Y413D02*
Y471D01*
Y501D02*
Y620D01*
Y649D02*
Y706D01*
X743Y273D02*
Y399D01*
Y413D02*
Y471D01*
Y502D02*
Y620D01*
Y649D02*
Y706D01*
X744Y273D02*
Y399D01*
Y413D02*
Y471D01*
Y502D02*
Y620D01*
Y648D02*
Y706D01*
X744Y273D02*
Y399D01*
Y414D02*
Y472D01*
Y503D02*
Y620D01*
Y648D02*
Y706D01*
X745Y273D02*
Y399D01*
Y414D02*
Y472D01*
Y503D02*
Y619D01*
Y648D02*
Y706D01*
X745Y273D02*
Y399D01*
Y414D02*
Y472D01*
Y504D02*
Y619D01*
Y648D02*
Y706D01*
X746Y273D02*
Y399D01*
Y414D02*
Y472D01*
Y504D02*
Y619D01*
Y648D02*
Y706D01*
X747Y273D02*
Y399D01*
Y414D02*
Y472D01*
Y505D02*
Y619D01*
Y648D02*
Y706D01*
X747Y273D02*
Y399D01*
Y414D02*
Y472D01*
Y505D02*
Y619D01*
Y648D02*
Y706D01*
X748Y273D02*
Y399D01*
Y415D02*
Y472D01*
Y505D02*
Y619D01*
Y648D02*
Y706D01*
X748Y273D02*
Y398D01*
Y415D02*
Y472D01*
Y506D02*
Y619D01*
Y648D02*
Y706D01*
X749Y273D02*
Y398D01*
Y415D02*
Y472D01*
Y507D02*
Y619D01*
Y647D02*
Y706D01*
X750Y273D02*
Y398D01*
Y415D02*
Y472D01*
Y507D02*
Y619D01*
Y647D02*
Y706D01*
X750Y273D02*
Y398D01*
Y415D02*
Y472D01*
Y508D02*
Y618D01*
Y647D02*
Y706D01*
X751Y273D02*
Y398D01*
Y415D02*
Y472D01*
Y508D02*
Y618D01*
Y647D02*
Y706D01*
X751Y273D02*
Y398D01*
Y416D02*
Y473D01*
Y508D02*
Y618D01*
Y646D02*
Y706D01*
X752Y273D02*
Y398D01*
Y416D02*
Y473D01*
Y509D02*
Y618D01*
Y646D02*
Y706D01*
X753Y273D02*
Y397D01*
Y416D02*
Y473D01*
Y510D02*
Y618D01*
Y646D02*
Y706D01*
X753Y273D02*
Y397D01*
Y417D02*
Y473D01*
Y510D02*
Y618D01*
Y646D02*
Y706D01*
X754Y273D02*
Y397D01*
Y417D02*
Y473D01*
Y510D02*
Y618D01*
Y646D02*
Y706D01*
X754Y273D02*
Y397D01*
Y417D02*
Y473D01*
Y511D02*
Y618D01*
Y646D02*
Y706D01*
X755Y273D02*
Y397D01*
Y417D02*
Y473D01*
Y511D02*
Y618D01*
Y646D02*
Y706D01*
X756Y273D02*
Y397D01*
Y417D02*
Y474D01*
Y512D02*
Y618D01*
Y646D02*
Y706D01*
X756Y273D02*
Y397D01*
Y417D02*
Y474D01*
Y513D02*
Y617D01*
Y646D02*
Y706D01*
X757Y273D02*
Y397D01*
Y418D02*
Y474D01*
Y513D02*
Y617D01*
Y645D02*
Y706D01*
X757Y273D02*
Y397D01*
Y418D02*
Y474D01*
Y513D02*
Y617D01*
Y645D02*
Y706D01*
X758Y273D02*
Y397D01*
Y418D02*
Y474D01*
Y514D02*
Y617D01*
Y645D02*
Y706D01*
X759Y273D02*
Y397D01*
Y418D02*
Y474D01*
Y514D02*
Y617D01*
Y645D02*
Y706D01*
X759Y273D02*
Y397D01*
Y418D02*
Y474D01*
Y514D02*
Y616D01*
Y645D02*
Y706D01*
X760Y273D02*
Y397D01*
Y418D02*
Y474D01*
Y514D02*
Y616D01*
Y645D02*
Y706D01*
X760Y273D02*
Y397D01*
Y418D02*
Y474D01*
Y515D02*
Y616D01*
Y645D02*
Y706D01*
X761Y273D02*
Y397D01*
Y418D02*
Y474D01*
Y515D02*
Y616D01*
Y645D02*
Y706D01*
X762Y273D02*
Y396D01*
Y419D02*
Y474D01*
Y516D02*
Y616D01*
Y645D02*
Y706D01*
X762Y273D02*
Y396D01*
Y419D02*
Y474D01*
Y516D02*
Y616D01*
Y644D02*
Y706D01*
X763Y273D02*
Y396D01*
Y419D02*
Y474D01*
Y516D02*
Y616D01*
Y644D02*
Y706D01*
X763Y273D02*
Y396D01*
Y419D02*
Y474D01*
Y516D02*
Y616D01*
Y644D02*
Y706D01*
X764Y273D02*
Y396D01*
Y420D02*
Y474D01*
Y517D02*
Y616D01*
Y644D02*
Y706D01*
X765Y273D02*
Y396D01*
Y420D02*
Y475D01*
Y517D02*
Y616D01*
Y644D02*
Y706D01*
X765Y273D02*
Y396D01*
Y420D02*
Y475D01*
Y517D02*
Y615D01*
Y643D02*
Y706D01*
X766Y273D02*
Y396D01*
Y420D02*
Y475D01*
Y517D02*
Y615D01*
Y643D02*
Y706D01*
X766Y273D02*
Y396D01*
Y420D02*
Y475D01*
Y518D02*
Y615D01*
Y643D02*
Y706D01*
X767Y273D02*
Y396D01*
Y420D02*
Y475D01*
Y518D02*
Y615D01*
Y643D02*
Y706D01*
X768Y273D02*
Y396D01*
Y420D02*
Y475D01*
Y519D02*
Y615D01*
Y643D02*
Y706D01*
X768Y272D02*
Y396D01*
Y420D02*
Y475D01*
Y519D02*
Y615D01*
Y643D02*
Y706D01*
X769Y272D02*
Y396D01*
Y420D02*
Y475D01*
Y519D02*
Y615D01*
Y642D02*
Y706D01*
X769Y272D02*
Y396D01*
Y421D02*
Y475D01*
Y519D02*
Y615D01*
Y642D02*
Y706D01*
X770Y272D02*
Y396D01*
Y421D02*
Y475D01*
Y520D02*
Y615D01*
Y642D02*
Y706D01*
X771Y272D02*
Y395D01*
Y421D02*
Y475D01*
Y520D02*
Y614D01*
Y642D02*
Y706D01*
X771Y271D02*
Y395D01*
Y421D02*
Y475D01*
Y520D02*
Y614D01*
Y641D02*
Y706D01*
X772Y271D02*
Y395D01*
Y421D02*
Y475D01*
Y520D02*
Y614D01*
Y640D02*
Y706D01*
X772Y271D02*
Y395D01*
Y421D02*
Y475D01*
Y521D02*
Y614D01*
Y640D02*
Y706D01*
X773Y271D02*
Y395D01*
Y421D02*
Y475D01*
Y521D02*
Y614D01*
Y640D02*
Y706D01*
X774Y271D02*
Y395D01*
Y421D02*
Y475D01*
Y522D02*
Y613D01*
Y640D02*
Y706D01*
X774Y271D02*
Y395D01*
Y421D02*
Y475D01*
Y522D02*
Y613D01*
Y639D02*
Y706D01*
X775Y271D02*
Y395D01*
Y421D02*
Y475D01*
Y522D02*
Y613D01*
Y639D02*
Y706D01*
X775Y271D02*
Y394D01*
Y421D02*
Y475D01*
Y522D02*
Y613D01*
Y639D02*
Y705D01*
X776Y271D02*
Y394D01*
Y421D02*
Y475D01*
Y522D02*
Y613D01*
Y638D02*
Y705D01*
X777Y270D02*
Y394D01*
Y421D02*
Y475D01*
Y522D02*
Y613D01*
Y638D02*
Y705D01*
X777Y270D02*
Y394D01*
Y421D02*
Y475D01*
Y523D02*
Y613D01*
Y637D02*
Y705D01*
X778Y270D02*
Y394D01*
Y421D02*
Y475D01*
Y523D02*
Y613D01*
Y637D02*
Y705D01*
X778Y270D02*
Y394D01*
Y421D02*
Y475D01*
Y523D02*
Y613D01*
Y637D02*
Y705D01*
X779Y270D02*
Y394D01*
Y421D02*
Y475D01*
Y523D02*
Y612D01*
Y637D02*
Y705D01*
X780Y270D02*
Y394D01*
Y422D02*
Y475D01*
Y523D02*
Y612D01*
Y636D02*
Y705D01*
X780Y270D02*
Y394D01*
Y422D02*
Y475D01*
Y523D02*
Y612D01*
Y636D02*
Y705D01*
X781Y270D02*
Y394D01*
Y422D02*
Y475D01*
Y523D02*
Y612D01*
Y636D02*
Y705D01*
X781Y270D02*
Y394D01*
Y422D02*
Y475D01*
Y524D02*
Y612D01*
Y635D02*
Y705D01*
X782Y270D02*
Y394D01*
Y422D02*
Y475D01*
Y524D02*
Y612D01*
Y635D02*
Y705D01*
X783Y269D02*
Y393D01*
Y422D02*
Y475D01*
Y524D02*
Y612D01*
Y634D02*
Y705D01*
X783Y269D02*
Y393D01*
Y422D02*
Y475D01*
Y524D02*
Y612D01*
Y634D02*
Y705D01*
X784Y269D02*
Y393D01*
Y422D02*
Y475D01*
Y525D02*
Y612D01*
Y634D02*
Y705D01*
X784Y269D02*
Y393D01*
Y422D02*
Y475D01*
Y525D02*
Y612D01*
Y633D02*
Y704D01*
X785Y268D02*
Y393D01*
Y422D02*
Y475D01*
Y525D02*
Y611D01*
Y633D02*
Y704D01*
X786Y268D02*
Y393D01*
Y423D02*
Y475D01*
Y525D02*
Y611D01*
Y633D02*
Y704D01*
X786Y268D02*
Y393D01*
Y423D02*
Y475D01*
Y525D02*
Y611D01*
Y633D02*
Y704D01*
X787Y268D02*
Y393D01*
Y423D02*
Y475D01*
Y525D02*
Y611D01*
Y632D02*
Y704D01*
X787Y268D02*
Y392D01*
Y423D02*
Y475D01*
Y525D02*
Y610D01*
Y632D02*
Y704D01*
X788Y268D02*
Y392D01*
Y423D02*
Y475D01*
Y526D02*
Y610D01*
Y631D02*
Y704D01*
X789Y268D02*
Y392D01*
Y423D02*
Y475D01*
Y526D02*
Y610D01*
Y631D02*
Y704D01*
X789Y268D02*
Y392D01*
Y423D02*
Y475D01*
Y526D02*
Y610D01*
Y631D02*
Y704D01*
X790Y268D02*
Y391D01*
Y423D02*
Y475D01*
Y526D02*
Y610D01*
Y630D02*
Y703D01*
X790Y268D02*
Y316D01*
Y316D02*
Y391D01*
Y423D02*
Y475D01*
Y526D02*
Y610D01*
Y630D02*
Y703D01*
X791Y267D02*
Y316D01*
Y317D02*
Y391D01*
Y423D02*
Y475D01*
Y526D02*
Y610D01*
Y630D02*
Y703D01*
X792Y267D02*
Y316D01*
Y318D02*
Y391D01*
Y423D02*
Y475D01*
Y526D02*
Y610D01*
Y629D02*
Y703D01*
X792Y267D02*
Y316D01*
Y318D02*
Y391D01*
Y423D02*
Y475D01*
Y527D02*
Y610D01*
Y628D02*
Y703D01*
X793Y267D02*
Y316D01*
Y318D02*
Y391D01*
Y423D02*
Y475D01*
Y527D02*
Y610D01*
Y628D02*
Y703D01*
X793Y216D02*
Y218D01*
Y267D02*
Y316D01*
Y319D02*
Y391D01*
Y423D02*
Y475D01*
Y527D02*
Y609D01*
Y628D02*
Y703D01*
X794Y216D02*
Y219D01*
Y267D02*
Y316D01*
Y319D02*
Y391D01*
Y423D02*
Y475D01*
Y528D02*
Y609D01*
Y627D02*
Y703D01*
X795Y215D02*
Y220D01*
Y267D02*
Y316D01*
Y319D02*
Y390D01*
Y423D02*
Y475D01*
Y528D02*
Y609D01*
Y627D02*
Y703D01*
X795Y215D02*
Y220D01*
Y267D02*
Y316D01*
Y320D02*
Y390D01*
Y424D02*
Y475D01*
Y528D02*
Y609D01*
Y627D02*
Y703D01*
X796Y216D02*
Y221D01*
Y267D02*
Y316D01*
Y320D02*
Y390D01*
Y424D02*
Y475D01*
Y528D02*
Y609D01*
Y626D02*
Y703D01*
X796Y216D02*
Y222D01*
Y266D02*
Y316D01*
Y321D02*
Y390D01*
Y424D02*
Y475D01*
Y528D02*
Y609D01*
Y626D02*
Y703D01*
X797Y216D02*
Y223D01*
Y266D02*
Y316D01*
Y321D02*
Y390D01*
Y424D02*
Y475D01*
Y528D02*
Y609D01*
Y625D02*
Y703D01*
X798Y216D02*
Y223D01*
Y266D02*
Y316D01*
Y321D02*
Y390D01*
Y424D02*
Y475D01*
Y528D02*
Y609D01*
Y625D02*
Y703D01*
X798Y216D02*
Y225D01*
Y266D02*
Y316D01*
Y322D02*
Y390D01*
Y424D02*
Y475D01*
Y529D02*
Y609D01*
Y624D02*
Y703D01*
X799Y216D02*
Y225D01*
Y266D02*
Y316D01*
Y322D02*
Y390D01*
Y424D02*
Y475D01*
Y529D02*
Y609D01*
Y624D02*
Y703D01*
X799Y216D02*
Y226D01*
Y265D02*
Y317D01*
Y322D02*
Y389D01*
Y424D02*
Y475D01*
Y529D02*
Y608D01*
Y624D02*
Y702D01*
X800Y216D02*
Y227D01*
Y265D02*
Y317D01*
Y323D02*
Y389D01*
Y424D02*
Y475D01*
Y529D02*
Y608D01*
Y624D02*
Y702D01*
X801Y216D02*
Y228D01*
Y265D02*
Y317D01*
Y323D02*
Y389D01*
Y424D02*
Y475D01*
Y529D02*
Y608D01*
Y623D02*
Y702D01*
X801Y216D02*
Y229D01*
Y265D02*
Y317D01*
Y324D02*
Y389D01*
Y424D02*
Y475D01*
Y529D02*
Y608D01*
Y622D02*
Y702D01*
X802Y216D02*
Y229D01*
Y265D02*
Y317D01*
Y324D02*
Y388D01*
Y425D02*
Y475D01*
Y529D02*
Y608D01*
Y622D02*
Y702D01*
X802Y216D02*
Y230D01*
Y265D02*
Y317D01*
Y324D02*
Y388D01*
Y425D02*
Y475D01*
Y530D02*
Y607D01*
Y622D02*
Y702D01*
X803Y216D02*
Y231D01*
Y265D02*
Y317D01*
Y325D02*
Y388D01*
Y425D02*
Y475D01*
Y530D02*
Y607D01*
Y621D02*
Y702D01*
X804Y216D02*
Y232D01*
Y265D02*
Y317D01*
Y325D02*
Y388D01*
Y425D02*
Y475D01*
Y530D02*
Y607D01*
Y621D02*
Y702D01*
X804Y216D02*
Y232D01*
Y265D02*
Y318D01*
Y325D02*
Y388D01*
Y425D02*
Y475D01*
Y530D02*
Y607D01*
Y621D02*
Y702D01*
X805Y217D02*
Y234D01*
Y264D02*
Y318D01*
Y326D02*
Y388D01*
Y425D02*
Y475D01*
Y531D02*
Y607D01*
Y620D02*
Y702D01*
X805Y217D02*
Y234D01*
Y264D02*
Y318D01*
Y326D02*
Y388D01*
Y426D02*
Y475D01*
Y531D02*
Y607D01*
Y619D02*
Y702D01*
X806Y217D02*
Y235D01*
Y264D02*
Y318D01*
Y327D02*
Y388D01*
Y426D02*
Y475D01*
Y531D02*
Y607D01*
Y618D02*
Y702D01*
X807Y217D02*
Y236D01*
Y264D02*
Y318D01*
Y327D02*
Y387D01*
Y426D02*
Y475D01*
Y531D02*
Y607D01*
Y618D02*
Y702D01*
X807Y217D02*
Y237D01*
Y264D02*
Y318D01*
Y327D02*
Y387D01*
Y426D02*
Y475D01*
Y531D02*
Y607D01*
Y617D02*
Y702D01*
X808Y217D02*
Y238D01*
Y264D02*
Y318D01*
Y328D02*
Y387D01*
Y426D02*
Y475D01*
Y531D02*
Y607D01*
Y616D02*
Y702D01*
X808Y217D02*
Y238D01*
Y264D02*
Y318D01*
Y328D02*
Y387D01*
Y426D02*
Y475D01*
Y531D02*
Y607D01*
Y615D02*
Y702D01*
X809Y217D02*
Y239D01*
Y263D02*
Y318D01*
Y328D02*
Y387D01*
Y426D02*
Y475D01*
Y532D02*
Y607D01*
Y615D02*
Y701D01*
X810Y217D02*
Y240D01*
Y263D02*
Y318D01*
Y329D02*
Y387D01*
Y426D02*
Y475D01*
Y532D02*
Y606D01*
Y613D02*
Y701D01*
X810Y217D02*
Y241D01*
Y263D02*
Y318D01*
Y329D02*
Y387D01*
Y426D02*
Y475D01*
Y532D02*
Y606D01*
Y613D02*
Y701D01*
X811Y217D02*
Y241D01*
Y263D02*
Y318D01*
Y330D02*
Y387D01*
Y426D02*
Y475D01*
Y532D02*
Y606D01*
Y612D02*
Y701D01*
X811Y217D02*
Y243D01*
Y262D02*
Y318D01*
Y330D02*
Y386D01*
Y426D02*
Y475D01*
Y532D02*
Y606D01*
Y611D02*
Y701D01*
X812Y217D02*
Y243D01*
Y262D02*
Y318D01*
Y330D02*
Y386D01*
Y427D02*
Y475D01*
Y532D02*
Y606D01*
Y610D02*
Y701D01*
X813Y217D02*
Y244D01*
Y262D02*
Y318D01*
Y331D02*
Y386D01*
Y427D02*
Y475D01*
Y532D02*
Y606D01*
Y610D02*
Y701D01*
X813Y217D02*
Y245D01*
Y262D02*
Y318D01*
Y331D02*
Y386D01*
Y427D02*
Y475D01*
Y533D02*
Y606D01*
Y609D02*
Y701D01*
X814Y217D02*
Y246D01*
Y262D02*
Y319D01*
Y331D02*
Y385D01*
Y427D02*
Y475D01*
Y533D02*
Y606D01*
Y607D02*
Y700D01*
X814Y218D02*
Y247D01*
Y262D02*
Y319D01*
Y332D02*
Y385D01*
Y427D02*
Y475D01*
Y533D02*
Y606D01*
Y606D02*
Y700D01*
X815Y218D02*
Y247D01*
Y262D02*
Y319D01*
Y332D02*
Y385D01*
Y427D02*
Y475D01*
Y533D02*
Y700D01*
X816Y218D02*
Y248D01*
Y261D02*
Y319D01*
Y333D02*
Y385D01*
Y427D02*
Y475D01*
Y534D02*
Y700D01*
X816Y218D02*
Y249D01*
Y261D02*
Y319D01*
Y333D02*
Y385D01*
Y427D02*
Y475D01*
Y534D02*
Y700D01*
X817Y218D02*
Y250D01*
Y261D02*
Y319D01*
Y333D02*
Y385D01*
Y427D02*
Y475D01*
Y534D02*
Y700D01*
X817Y218D02*
Y250D01*
Y261D02*
Y319D01*
Y334D02*
Y385D01*
Y427D02*
Y475D01*
Y534D02*
Y700D01*
X818Y218D02*
Y252D01*
Y261D02*
Y319D01*
Y334D02*
Y385D01*
Y427D02*
Y475D01*
Y534D02*
Y700D01*
X819Y219D02*
Y252D01*
Y261D02*
Y319D01*
Y334D02*
Y384D01*
Y428D02*
Y475D01*
Y534D02*
Y700D01*
X819Y219D02*
Y253D01*
Y261D02*
Y319D01*
Y334D02*
Y384D01*
Y428D02*
Y475D01*
Y534D02*
Y700D01*
X820Y219D02*
Y254D01*
Y260D02*
Y319D01*
Y334D02*
Y384D01*
Y428D02*
Y475D01*
Y534D02*
Y700D01*
X820Y219D02*
Y255D01*
Y260D02*
Y319D01*
Y334D02*
Y384D01*
Y428D02*
Y475D01*
Y534D02*
Y700D01*
X821Y219D02*
Y256D01*
Y260D02*
Y319D01*
Y335D02*
Y384D01*
Y428D02*
Y475D01*
Y534D02*
Y700D01*
X822Y219D02*
Y256D01*
Y259D02*
Y319D01*
Y335D02*
Y384D01*
Y428D02*
Y475D01*
Y534D02*
Y700D01*
X822Y219D02*
Y257D01*
Y259D02*
Y319D01*
Y335D02*
Y384D01*
Y429D02*
Y474D01*
Y534D02*
Y700D01*
X823Y219D02*
Y258D01*
Y259D02*
Y319D01*
Y335D02*
Y384D01*
Y429D02*
Y474D01*
Y534D02*
Y699D01*
X823Y219D02*
Y319D01*
Y336D02*
Y383D01*
Y429D02*
Y474D01*
Y534D02*
Y699D01*
X824Y219D02*
Y319D01*
Y336D02*
Y383D01*
Y429D02*
Y474D01*
Y535D02*
Y699D01*
X825Y219D02*
Y319D01*
Y336D02*
Y383D01*
Y429D02*
Y474D01*
Y535D02*
Y699D01*
X825Y219D02*
Y319D01*
Y336D02*
Y383D01*
Y429D02*
Y474D01*
Y535D02*
Y699D01*
X826Y219D02*
Y319D01*
Y336D02*
Y382D01*
Y429D02*
Y474D01*
Y535D02*
Y699D01*
X826Y219D02*
Y319D01*
Y336D02*
Y382D01*
Y429D02*
Y474D01*
Y535D02*
Y699D01*
X827Y219D02*
Y319D01*
Y337D02*
Y382D01*
Y429D02*
Y474D01*
Y535D02*
Y699D01*
X828Y220D02*
Y319D01*
Y337D02*
Y382D01*
Y429D02*
Y474D01*
Y535D02*
Y699D01*
X828Y220D02*
Y319D01*
Y337D02*
Y382D01*
Y429D02*
Y474D01*
Y535D02*
Y699D01*
Y722D02*
Y724D01*
X829Y220D02*
Y319D01*
Y337D02*
Y382D01*
Y429D02*
Y474D01*
Y535D02*
Y699D01*
Y721D02*
Y724D01*
X829Y220D02*
Y319D01*
Y337D02*
Y382D01*
Y429D02*
Y474D01*
Y535D02*
Y699D01*
Y721D02*
Y725D01*
X830Y220D02*
Y319D01*
Y337D02*
Y382D01*
Y429D02*
Y474D01*
Y535D02*
Y699D01*
Y721D02*
Y726D01*
X831Y220D02*
Y319D01*
Y337D02*
Y381D01*
Y429D02*
Y474D01*
Y535D02*
Y699D01*
Y721D02*
Y726D01*
X831Y220D02*
Y319D01*
Y338D02*
Y381D01*
Y429D02*
Y474D01*
Y535D02*
Y699D01*
Y721D02*
Y727D01*
X832Y220D02*
Y319D01*
Y338D02*
Y381D01*
Y429D02*
Y473D01*
Y535D02*
Y699D01*
Y721D02*
Y727D01*
X832Y220D02*
Y319D01*
Y338D02*
Y381D01*
Y429D02*
Y473D01*
Y536D02*
Y699D01*
Y721D02*
Y727D01*
X833Y220D02*
Y319D01*
Y338D02*
Y381D01*
Y429D02*
Y473D01*
Y536D02*
Y698D01*
Y721D02*
Y727D01*
X834Y220D02*
Y319D01*
Y339D02*
Y381D01*
Y429D02*
Y473D01*
Y536D02*
Y698D01*
Y721D02*
Y728D01*
X834Y220D02*
Y319D01*
Y339D02*
Y381D01*
Y429D02*
Y473D01*
Y536D02*
Y698D01*
Y721D02*
Y728D01*
X835Y220D02*
Y319D01*
Y339D02*
Y381D01*
Y429D02*
Y473D01*
Y536D02*
Y698D01*
Y721D02*
Y729D01*
X835Y220D02*
Y319D01*
Y339D02*
Y380D01*
Y429D02*
Y473D01*
Y536D02*
Y698D01*
Y721D02*
Y729D01*
X836Y220D02*
Y319D01*
Y339D02*
Y380D01*
Y429D02*
Y473D01*
Y536D02*
Y698D01*
Y721D02*
Y729D01*
X837Y220D02*
Y319D01*
Y339D02*
Y380D01*
Y429D02*
Y472D01*
Y537D02*
Y698D01*
Y721D02*
Y729D01*
X837Y221D02*
Y319D01*
Y340D02*
Y380D01*
Y429D02*
Y472D01*
Y537D02*
Y698D01*
Y721D02*
Y730D01*
X838Y221D02*
Y319D01*
Y340D02*
Y379D01*
Y429D02*
Y472D01*
Y537D02*
Y697D01*
Y721D02*
Y730D01*
X838Y221D02*
Y319D01*
Y340D02*
Y379D01*
Y429D02*
Y472D01*
Y537D02*
Y631D01*
Y632D02*
Y697D01*
Y721D02*
Y730D01*
X839Y221D02*
Y319D01*
Y340D02*
Y379D01*
Y429D02*
Y472D01*
Y537D02*
Y631D01*
Y632D02*
Y697D01*
Y721D02*
Y730D01*
X840Y221D02*
Y319D01*
Y340D02*
Y379D01*
Y429D02*
Y472D01*
Y537D02*
Y630D01*
Y632D02*
Y697D01*
Y721D02*
Y731D01*
X840Y221D02*
Y319D01*
Y340D02*
Y379D01*
Y429D02*
Y472D01*
Y537D02*
Y630D01*
Y631D02*
Y697D01*
Y721D02*
Y731D01*
X841Y221D02*
Y319D01*
Y340D02*
Y379D01*
Y429D02*
Y472D01*
Y537D02*
Y629D01*
Y631D02*
Y697D01*
Y721D02*
Y732D01*
X841Y222D02*
Y319D01*
Y341D02*
Y379D01*
Y429D02*
Y472D01*
Y537D02*
Y629D01*
Y631D02*
Y697D01*
Y721D02*
Y732D01*
X842Y222D02*
Y319D01*
Y341D02*
Y379D01*
Y429D02*
Y472D01*
Y537D02*
Y628D01*
Y631D02*
Y697D01*
Y721D02*
Y732D01*
X843Y222D02*
Y319D01*
Y341D02*
Y378D01*
Y429D02*
Y472D01*
Y537D02*
Y628D01*
Y631D02*
Y697D01*
Y721D02*
Y732D01*
X843Y222D02*
Y319D01*
Y342D02*
Y378D01*
Y429D02*
Y472D01*
Y537D02*
Y627D01*
Y631D02*
Y697D01*
Y721D02*
Y733D01*
X844Y222D02*
Y319D01*
Y342D02*
Y378D01*
Y429D02*
Y471D01*
Y537D02*
Y627D01*
Y631D02*
Y697D01*
Y721D02*
Y733D01*
X844Y222D02*
Y319D01*
Y342D02*
Y378D01*
Y429D02*
Y471D01*
Y537D02*
Y626D01*
Y630D02*
Y697D01*
Y720D02*
Y733D01*
X845Y222D02*
Y319D01*
Y342D02*
Y378D01*
Y429D02*
Y471D01*
Y538D02*
Y625D01*
Y630D02*
Y697D01*
Y720D02*
Y734D01*
X846Y222D02*
Y319D01*
Y342D02*
Y378D01*
Y429D02*
Y471D01*
Y538D02*
Y625D01*
Y630D02*
Y697D01*
Y720D02*
Y735D01*
X846Y222D02*
Y319D01*
Y342D02*
Y378D01*
Y429D02*
Y471D01*
Y538D02*
Y624D01*
Y630D02*
Y697D01*
Y720D02*
Y735D01*
X847Y222D02*
Y319D01*
Y342D02*
Y378D01*
Y429D02*
Y471D01*
Y538D02*
Y624D01*
Y630D02*
Y696D01*
Y719D02*
Y735D01*
X847Y222D02*
Y319D01*
Y343D02*
Y377D01*
Y429D02*
Y471D01*
Y538D02*
Y624D01*
Y630D02*
Y696D01*
Y719D02*
Y736D01*
X848Y222D02*
Y319D01*
Y343D02*
Y377D01*
Y429D02*
Y471D01*
Y538D02*
Y623D01*
Y630D02*
Y696D01*
Y718D02*
Y736D01*
X849Y222D02*
Y319D01*
Y343D02*
Y377D01*
Y429D02*
Y470D01*
Y538D02*
Y622D01*
Y629D02*
Y696D01*
Y718D02*
Y736D01*
X849Y222D02*
Y319D01*
Y343D02*
Y377D01*
Y429D02*
Y470D01*
Y538D02*
Y622D01*
Y629D02*
Y696D01*
Y718D02*
Y737D01*
X850Y222D02*
Y319D01*
Y343D02*
Y376D01*
Y429D02*
Y470D01*
Y538D02*
Y621D01*
Y629D02*
Y696D01*
Y718D02*
Y737D01*
X850Y222D02*
Y319D01*
Y343D02*
Y376D01*
Y429D02*
Y470D01*
Y538D02*
Y621D01*
Y628D02*
Y696D01*
Y717D02*
Y738D01*
X851Y223D02*
Y319D01*
Y343D02*
Y377D01*
Y429D02*
Y469D01*
Y538D02*
Y620D01*
Y628D02*
Y696D01*
Y717D02*
Y738D01*
X852Y223D02*
Y319D01*
Y344D02*
Y377D01*
Y429D02*
Y469D01*
Y538D02*
Y620D01*
Y628D02*
Y696D01*
Y717D02*
Y738D01*
X852Y223D02*
Y319D01*
Y344D02*
Y377D01*
Y429D02*
Y469D01*
Y538D02*
Y619D01*
Y628D02*
Y696D01*
Y717D02*
Y738D01*
X853Y223D02*
Y319D01*
Y344D02*
Y377D01*
Y429D02*
Y469D01*
Y538D02*
Y619D01*
Y628D02*
Y696D01*
Y716D02*
Y739D01*
X853Y223D02*
Y319D01*
Y345D02*
Y377D01*
Y429D02*
Y469D01*
Y539D02*
Y618D01*
Y628D02*
Y696D01*
Y716D02*
Y739D01*
X854Y223D02*
Y319D01*
Y345D02*
Y377D01*
Y429D02*
Y469D01*
Y539D02*
Y618D01*
Y628D02*
Y696D01*
Y715D02*
Y739D01*
X855Y223D02*
Y319D01*
Y345D02*
Y377D01*
Y429D02*
Y469D01*
Y539D02*
Y617D01*
Y627D02*
Y696D01*
Y715D02*
Y739D01*
X855Y223D02*
Y319D01*
Y345D02*
Y377D01*
Y429D02*
Y469D01*
Y539D02*
Y616D01*
Y627D02*
Y696D01*
Y715D02*
Y739D01*
X856Y223D02*
Y319D01*
Y345D02*
Y377D01*
Y429D02*
Y469D01*
Y539D02*
Y616D01*
Y627D02*
Y696D01*
Y715D02*
Y739D01*
X856Y223D02*
Y319D01*
Y345D02*
Y377D01*
Y429D02*
Y468D01*
Y539D02*
Y615D01*
Y627D02*
Y695D01*
Y714D02*
Y740D01*
X857Y223D02*
Y319D01*
Y345D02*
Y377D01*
Y430D02*
Y468D01*
Y539D02*
Y615D01*
Y627D02*
Y695D01*
Y714D02*
Y740D01*
X858Y223D02*
Y318D01*
Y346D02*
Y377D01*
Y430D02*
Y468D01*
Y539D02*
Y615D01*
Y627D02*
Y695D01*
Y714D02*
Y740D01*
X858Y223D02*
Y318D01*
Y346D02*
Y377D01*
Y430D02*
Y468D01*
Y539D02*
Y614D01*
Y627D02*
Y695D01*
Y714D02*
Y741D01*
X859Y223D02*
Y318D01*
Y346D02*
Y377D01*
Y430D02*
Y468D01*
Y539D02*
Y613D01*
Y626D02*
Y695D01*
Y713D02*
Y741D01*
X859Y223D02*
Y318D01*
Y346D02*
Y377D01*
Y430D02*
Y468D01*
Y539D02*
Y613D01*
Y626D02*
Y695D01*
Y713D02*
Y741D01*
X860Y224D02*
Y318D01*
Y346D02*
Y377D01*
Y430D02*
Y468D01*
Y539D02*
Y612D01*
Y626D02*
Y695D01*
Y712D02*
Y741D01*
X861Y224D02*
Y318D01*
Y346D02*
Y377D01*
Y430D02*
Y468D01*
Y539D02*
Y612D01*
Y625D02*
Y695D01*
Y712D02*
Y741D01*
X861Y224D02*
Y318D01*
Y346D02*
Y377D01*
Y430D02*
Y468D01*
Y539D02*
Y611D01*
Y625D02*
Y694D01*
Y712D02*
Y741D01*
X862Y224D02*
Y318D01*
Y347D02*
Y377D01*
Y430D02*
Y467D01*
Y539D02*
Y610D01*
Y625D02*
Y694D01*
Y712D02*
Y741D01*
X862Y224D02*
Y318D01*
Y347D02*
Y377D01*
Y430D02*
Y467D01*
Y539D02*
Y610D01*
Y625D02*
Y694D01*
Y711D02*
Y741D01*
X863Y224D02*
Y318D01*
Y347D02*
Y377D01*
Y431D02*
Y467D01*
Y539D02*
Y610D01*
Y625D02*
Y694D01*
Y711D02*
Y741D01*
X864Y224D02*
Y318D01*
Y348D02*
Y377D01*
Y431D02*
Y467D01*
Y539D02*
Y609D01*
Y625D02*
Y694D01*
Y711D02*
Y741D01*
X864Y224D02*
Y318D01*
Y348D02*
Y377D01*
Y431D02*
Y466D01*
Y539D02*
Y609D01*
Y624D02*
Y694D01*
Y711D02*
Y741D01*
X865Y224D02*
Y318D01*
Y348D02*
Y377D01*
Y431D02*
Y466D01*
Y539D02*
Y608D01*
Y624D02*
Y694D01*
Y710D02*
Y741D01*
X865Y224D02*
Y318D01*
Y348D02*
Y377D01*
Y431D02*
Y466D01*
Y539D02*
Y607D01*
Y624D02*
Y694D01*
Y710D02*
Y741D01*
X866Y224D02*
Y318D01*
Y348D02*
Y377D01*
Y432D02*
Y466D01*
Y539D02*
Y607D01*
Y624D02*
Y693D01*
Y709D02*
Y741D01*
X867Y224D02*
Y318D01*
Y348D02*
Y377D01*
Y432D02*
Y466D01*
Y539D02*
Y606D01*
Y624D02*
Y693D01*
Y709D02*
Y741D01*
X867Y224D02*
Y318D01*
Y348D02*
Y377D01*
Y432D02*
Y466D01*
Y539D02*
Y606D01*
Y624D02*
Y693D01*
Y709D02*
Y741D01*
X868Y224D02*
Y318D01*
Y348D02*
Y377D01*
Y432D02*
Y466D01*
Y539D02*
Y606D01*
Y624D02*
Y693D01*
Y709D02*
Y741D01*
X868Y224D02*
Y318D01*
Y349D02*
Y377D01*
Y432D02*
Y466D01*
Y539D02*
Y605D01*
Y623D02*
Y693D01*
Y708D02*
Y741D01*
X869Y224D02*
Y318D01*
Y349D02*
Y377D01*
Y432D02*
Y466D01*
Y539D02*
Y604D01*
Y623D02*
Y693D01*
Y708D02*
Y741D01*
X870Y224D02*
Y318D01*
Y349D02*
Y377D01*
Y432D02*
Y465D01*
Y539D02*
Y604D01*
Y623D02*
Y693D01*
Y708D02*
Y741D01*
X870Y224D02*
Y318D01*
Y349D02*
Y377D01*
Y432D02*
Y465D01*
Y539D02*
Y603D01*
Y622D02*
Y692D01*
Y708D02*
Y741D01*
X871Y224D02*
Y318D01*
Y349D02*
Y377D01*
Y432D02*
Y465D01*
Y539D02*
Y603D01*
Y622D02*
Y692D01*
Y707D02*
Y741D01*
X871Y224D02*
Y318D01*
Y349D02*
Y377D01*
Y433D02*
Y465D01*
Y539D02*
Y602D01*
Y622D02*
Y692D01*
Y706D02*
Y741D01*
X872Y224D02*
Y318D01*
Y349D02*
Y377D01*
Y433D02*
Y465D01*
Y539D02*
Y601D01*
Y622D02*
Y692D01*
Y706D02*
Y741D01*
X873Y224D02*
Y317D01*
Y349D02*
Y377D01*
Y433D02*
Y465D01*
Y539D02*
Y601D01*
Y622D02*
Y691D01*
Y706D02*
Y741D01*
X873Y224D02*
Y317D01*
Y349D02*
Y377D01*
Y433D02*
Y465D01*
Y539D02*
Y601D01*
Y622D02*
Y691D01*
Y705D02*
Y741D01*
X874Y224D02*
Y317D01*
Y349D02*
Y377D01*
Y433D02*
Y465D01*
Y539D02*
Y600D01*
Y622D02*
Y691D01*
Y705D02*
Y741D01*
X874Y224D02*
Y317D01*
Y350D02*
Y377D01*
Y433D02*
Y465D01*
Y539D02*
Y600D01*
Y621D02*
Y691D01*
Y704D02*
Y741D01*
X875Y224D02*
Y317D01*
Y350D02*
Y377D01*
Y433D02*
Y464D01*
Y539D02*
Y599D01*
Y621D02*
Y691D01*
Y703D02*
Y741D01*
X876Y224D02*
Y317D01*
Y350D02*
Y377D01*
Y433D02*
Y464D01*
Y539D02*
Y598D01*
Y621D02*
Y691D01*
Y703D02*
Y741D01*
X876Y224D02*
Y317D01*
Y350D02*
Y377D01*
Y434D02*
Y464D01*
Y539D02*
Y598D01*
Y621D02*
Y691D01*
Y702D02*
Y741D01*
X877Y224D02*
Y317D01*
Y350D02*
Y377D01*
Y434D02*
Y464D01*
Y539D02*
Y597D01*
Y621D02*
Y690D01*
Y702D02*
Y741D01*
X877Y224D02*
Y317D01*
Y351D02*
Y377D01*
Y434D02*
Y463D01*
Y539D02*
Y597D01*
Y621D02*
Y690D01*
Y702D02*
Y741D01*
X878Y224D02*
Y317D01*
Y351D02*
Y377D01*
Y434D02*
Y463D01*
Y539D02*
Y597D01*
Y621D02*
Y690D01*
Y701D02*
Y741D01*
X879Y224D02*
Y317D01*
Y351D02*
Y377D01*
Y435D02*
Y463D01*
Y539D02*
Y596D01*
Y620D02*
Y690D01*
Y700D02*
Y741D01*
X879Y224D02*
Y317D01*
Y351D02*
Y377D01*
Y435D02*
Y463D01*
Y539D02*
Y595D01*
Y620D02*
Y690D01*
Y700D02*
Y741D01*
X880Y224D02*
Y316D01*
Y351D02*
Y377D01*
Y435D02*
Y463D01*
Y539D02*
Y595D01*
Y620D02*
Y690D01*
Y699D02*
Y741D01*
X880Y224D02*
Y317D01*
Y351D02*
Y377D01*
Y435D02*
Y463D01*
Y539D02*
Y594D01*
Y619D02*
Y690D01*
Y699D02*
Y741D01*
X881Y224D02*
Y316D01*
Y351D02*
Y377D01*
Y435D02*
Y463D01*
Y539D02*
Y594D01*
Y619D02*
Y690D01*
Y698D02*
Y741D01*
X882Y224D02*
Y316D01*
Y351D02*
Y377D01*
Y435D02*
Y463D01*
Y539D02*
Y593D01*
Y619D02*
Y689D01*
Y698D02*
Y741D01*
X882Y224D02*
Y316D01*
Y351D02*
Y377D01*
Y436D02*
Y463D01*
Y539D02*
Y593D01*
Y619D02*
Y689D01*
Y697D02*
Y741D01*
X883Y224D02*
Y316D01*
Y351D02*
Y377D01*
Y436D02*
Y463D01*
Y539D02*
Y592D01*
Y619D02*
Y689D01*
Y697D02*
Y741D01*
X883Y224D02*
Y316D01*
Y352D02*
Y377D01*
Y436D02*
Y463D01*
Y539D02*
Y592D01*
Y619D02*
Y688D01*
Y696D02*
Y741D01*
X884Y224D02*
Y316D01*
Y352D02*
Y377D01*
Y437D02*
Y463D01*
Y539D02*
Y591D01*
Y619D02*
Y688D01*
Y696D02*
Y741D01*
X885Y224D02*
Y316D01*
Y352D02*
Y377D01*
Y437D02*
Y463D01*
Y539D02*
Y591D01*
Y618D02*
Y688D01*
Y695D02*
Y741D01*
X885Y224D02*
Y316D01*
Y352D02*
Y377D01*
Y438D02*
Y463D01*
Y539D02*
Y591D01*
Y618D02*
Y688D01*
Y694D02*
Y741D01*
X886Y224D02*
Y316D01*
Y352D02*
Y377D01*
Y438D02*
Y463D01*
Y539D02*
Y590D01*
Y618D02*
Y688D01*
Y694D02*
Y741D01*
X886Y224D02*
Y316D01*
Y352D02*
Y377D01*
Y438D02*
Y463D01*
Y538D02*
Y589D01*
Y618D02*
Y688D01*
Y693D02*
Y741D01*
X887Y224D02*
Y316D01*
Y352D02*
Y377D01*
Y439D02*
Y463D01*
Y538D02*
Y589D01*
Y618D02*
Y688D01*
Y693D02*
Y741D01*
X888Y224D02*
Y316D01*
Y352D02*
Y377D01*
Y439D02*
Y463D01*
Y538D02*
Y589D01*
Y618D02*
Y688D01*
Y693D02*
Y741D01*
X888Y224D02*
Y316D01*
Y352D02*
Y377D01*
Y439D02*
Y463D01*
Y538D02*
Y588D01*
Y617D02*
Y687D01*
Y692D02*
Y741D01*
X889Y224D02*
Y316D01*
Y352D02*
Y377D01*
Y440D02*
Y463D01*
Y538D02*
Y588D01*
Y617D02*
Y687D01*
Y691D02*
Y741D01*
X889Y224D02*
Y316D01*
Y353D02*
Y377D01*
Y441D02*
Y463D01*
Y538D02*
Y587D01*
Y617D02*
Y687D01*
Y691D02*
Y741D01*
X890Y224D02*
Y316D01*
Y353D02*
Y377D01*
Y441D02*
Y463D01*
Y538D02*
Y587D01*
Y617D02*
Y687D01*
Y690D02*
Y741D01*
X891Y224D02*
Y316D01*
Y353D02*
Y377D01*
Y441D02*
Y463D01*
Y538D02*
Y586D01*
Y617D02*
Y687D01*
Y690D02*
Y741D01*
X891Y224D02*
Y316D01*
Y353D02*
Y377D01*
Y441D02*
Y463D01*
Y538D02*
Y586D01*
Y616D02*
Y687D01*
Y689D02*
Y741D01*
X892Y224D02*
Y316D01*
Y353D02*
Y377D01*
Y442D02*
Y463D01*
Y538D02*
Y585D01*
Y616D02*
Y687D01*
Y689D02*
Y741D01*
X892Y224D02*
Y316D01*
Y354D02*
Y377D01*
Y442D02*
Y463D01*
Y538D02*
Y585D01*
Y616D02*
Y686D01*
Y688D02*
Y741D01*
X893Y224D02*
Y316D01*
Y354D02*
Y377D01*
Y442D02*
Y463D01*
Y538D02*
Y585D01*
Y616D02*
Y686D01*
Y688D02*
Y741D01*
X894Y224D02*
Y315D01*
Y354D02*
Y377D01*
Y442D02*
Y463D01*
Y538D02*
Y584D01*
Y616D02*
Y686D01*
Y687D02*
Y741D01*
X894Y224D02*
Y315D01*
Y354D02*
Y376D01*
Y443D02*
Y463D01*
Y538D02*
Y583D01*
Y616D02*
Y686D01*
Y687D02*
Y740D01*
X895Y224D02*
Y315D01*
Y354D02*
Y377D01*
Y443D02*
Y463D01*
Y538D02*
Y583D01*
Y616D02*
Y685D01*
Y687D02*
Y740D01*
X895Y224D02*
Y315D01*
Y354D02*
Y377D01*
Y444D02*
Y463D01*
Y538D02*
Y583D01*
Y616D02*
Y740D01*
X896Y224D02*
Y315D01*
Y354D02*
Y377D01*
Y444D02*
Y463D01*
Y538D02*
Y582D01*
Y616D02*
Y740D01*
X897Y224D02*
Y315D01*
Y355D02*
Y377D01*
Y444D02*
Y463D01*
Y538D02*
Y582D01*
Y616D02*
Y740D01*
X897Y224D02*
Y315D01*
Y355D02*
Y377D01*
Y444D02*
Y463D01*
Y538D02*
Y581D01*
Y616D02*
Y740D01*
X898Y224D02*
Y315D01*
Y355D02*
Y377D01*
Y445D02*
Y463D01*
Y537D02*
Y581D01*
Y615D02*
Y740D01*
X898Y224D02*
Y315D01*
Y355D02*
Y377D01*
Y445D02*
Y463D01*
Y537D02*
Y580D01*
Y615D02*
Y740D01*
X899Y224D02*
Y315D01*
Y356D02*
Y378D01*
Y445D02*
Y463D01*
Y537D02*
Y580D01*
Y615D02*
Y740D01*
X900Y224D02*
Y315D01*
Y357D02*
Y378D01*
Y445D02*
Y463D01*
Y537D02*
Y579D01*
Y615D02*
Y740D01*
X900Y224D02*
Y315D01*
Y357D02*
Y378D01*
Y446D02*
Y463D01*
Y537D02*
Y579D01*
Y615D02*
Y739D01*
X901Y224D02*
Y315D01*
Y357D02*
Y378D01*
Y446D02*
Y463D01*
Y537D02*
Y579D01*
Y615D02*
Y739D01*
X901Y224D02*
Y315D01*
Y357D02*
Y378D01*
Y447D02*
Y463D01*
Y537D02*
Y578D01*
Y615D02*
Y739D01*
X902Y224D02*
Y314D01*
Y358D02*
Y379D01*
Y447D02*
Y463D01*
Y537D02*
Y577D01*
Y615D02*
Y739D01*
X903Y224D02*
Y314D01*
Y358D02*
Y379D01*
Y448D02*
Y463D01*
Y537D02*
Y577D01*
Y615D02*
Y739D01*
X903Y224D02*
Y314D01*
Y358D02*
Y379D01*
Y448D02*
Y463D01*
Y537D02*
Y577D01*
Y615D02*
Y739D01*
X904Y225D02*
Y314D01*
Y359D02*
Y379D01*
Y449D02*
Y463D01*
Y537D02*
Y576D01*
Y615D02*
Y739D01*
X904Y225D02*
Y314D01*
Y359D02*
Y379D01*
Y450D02*
Y463D01*
Y537D02*
Y576D01*
Y614D02*
Y739D01*
X905Y225D02*
Y314D01*
Y360D02*
Y380D01*
Y450D02*
Y463D01*
Y537D02*
Y575D01*
Y614D02*
Y739D01*
X906Y225D02*
Y314D01*
Y360D02*
Y380D01*
Y451D02*
Y463D01*
Y537D02*
Y575D01*
Y614D02*
Y739D01*
X906Y225D02*
Y313D01*
Y360D02*
Y380D01*
Y451D02*
Y463D01*
Y537D02*
Y574D01*
Y614D02*
Y739D01*
X907Y225D02*
Y313D01*
Y361D02*
Y381D01*
Y452D02*
Y463D01*
Y537D02*
Y574D01*
Y614D02*
Y739D01*
X907Y225D02*
Y313D01*
Y361D02*
Y381D01*
Y453D02*
Y463D01*
Y537D02*
Y573D01*
Y614D02*
Y739D01*
X908Y225D02*
Y313D01*
Y361D02*
Y381D01*
Y453D02*
Y463D01*
Y537D02*
Y573D01*
Y613D02*
Y739D01*
X909Y225D02*
Y313D01*
Y361D02*
Y381D01*
Y454D02*
Y463D01*
Y536D02*
Y573D01*
Y613D02*
Y739D01*
X909Y225D02*
Y313D01*
Y362D02*
Y381D01*
Y454D02*
Y463D01*
Y536D02*
Y572D01*
Y613D02*
Y739D01*
X910Y225D02*
Y313D01*
Y362D02*
Y382D01*
Y455D02*
Y463D01*
Y536D02*
Y571D01*
Y613D02*
Y739D01*
X910Y225D02*
Y313D01*
Y363D02*
Y382D01*
Y456D02*
Y463D01*
Y536D02*
Y571D01*
Y613D02*
Y739D01*
X911Y225D02*
Y313D01*
Y363D02*
Y382D01*
Y456D02*
Y463D01*
Y536D02*
Y571D01*
Y613D02*
Y739D01*
X912Y225D02*
Y313D01*
Y363D02*
Y382D01*
Y457D02*
Y463D01*
Y536D02*
Y570D01*
Y613D02*
Y739D01*
X912Y225D02*
Y313D01*
Y364D02*
Y382D01*
Y457D02*
Y463D01*
Y536D02*
Y570D01*
Y613D02*
Y738D01*
X913Y225D02*
Y313D01*
Y364D02*
Y382D01*
Y458D02*
Y463D01*
Y536D02*
Y569D01*
Y613D02*
Y738D01*
X913Y225D02*
Y313D01*
Y364D02*
Y383D01*
Y459D02*
Y463D01*
Y536D02*
Y569D01*
Y613D02*
Y738D01*
X914Y225D02*
Y313D01*
Y365D02*
Y383D01*
Y459D02*
Y463D01*
Y536D02*
Y568D01*
Y613D02*
Y738D01*
X915Y225D02*
Y314D01*
Y365D02*
Y383D01*
Y460D02*
Y463D01*
Y535D02*
Y568D01*
Y612D02*
Y738D01*
X915Y225D02*
Y314D01*
Y366D02*
Y383D01*
Y460D02*
Y464D01*
Y535D02*
Y567D01*
Y612D02*
Y738D01*
X916Y225D02*
Y314D01*
Y366D02*
Y383D01*
Y461D02*
Y465D01*
Y535D02*
Y567D01*
Y612D02*
Y738D01*
X916Y226D02*
Y314D01*
Y366D02*
Y383D01*
Y462D02*
Y465D01*
Y535D02*
Y567D01*
Y612D02*
Y738D01*
X917Y226D02*
Y314D01*
Y366D02*
Y384D01*
Y462D02*
Y466D01*
Y535D02*
Y566D01*
Y612D02*
Y738D01*
X918Y226D02*
Y314D01*
Y367D02*
Y384D01*
Y463D02*
Y466D01*
Y535D02*
Y565D01*
Y612D02*
Y738D01*
X918Y226D02*
Y314D01*
Y367D02*
Y384D01*
Y463D02*
Y465D01*
Y535D02*
Y565D01*
Y612D02*
Y738D01*
X919Y226D02*
Y315D01*
Y367D02*
Y384D01*
Y464D02*
Y465D01*
Y535D02*
Y565D01*
Y612D02*
Y738D01*
X919Y226D02*
Y315D01*
Y368D02*
Y384D01*
Y535D02*
Y564D01*
Y612D02*
Y737D01*
X920Y226D02*
Y315D01*
Y368D02*
Y384D01*
Y535D02*
Y564D01*
Y612D02*
Y737D01*
X921Y226D02*
Y315D01*
Y369D02*
Y384D01*
Y535D02*
Y564D01*
Y612D02*
Y737D01*
X921Y226D02*
Y315D01*
Y369D02*
Y384D01*
Y535D02*
Y563D01*
Y611D02*
Y737D01*
X922Y226D02*
Y315D01*
Y369D02*
Y384D01*
Y535D02*
Y562D01*
Y611D02*
Y737D01*
X922Y226D02*
Y315D01*
Y370D02*
Y384D01*
Y535D02*
Y562D01*
Y611D02*
Y736D01*
X923Y226D02*
Y315D01*
Y370D02*
Y385D01*
Y535D02*
Y561D01*
Y610D02*
Y736D01*
X924Y226D02*
Y315D01*
Y370D02*
Y385D01*
Y535D02*
Y561D01*
Y610D02*
Y736D01*
X924Y226D02*
Y315D01*
Y370D02*
Y385D01*
Y535D02*
Y561D01*
Y610D02*
Y736D01*
X925Y226D02*
Y315D01*
Y371D02*
Y385D01*
Y535D02*
Y560D01*
Y610D02*
Y736D01*
X925Y226D02*
Y315D01*
Y372D02*
Y385D01*
Y535D02*
Y559D01*
Y610D02*
Y736D01*
X926Y226D02*
Y315D01*
Y372D02*
Y385D01*
Y534D02*
Y559D01*
Y610D02*
Y736D01*
X927Y226D02*
Y315D01*
Y372D02*
Y385D01*
Y534D02*
Y559D01*
Y610D02*
Y736D01*
X927Y226D02*
Y315D01*
Y372D02*
Y385D01*
Y534D02*
Y558D01*
Y609D02*
Y736D01*
X928Y226D02*
Y315D01*
Y373D02*
Y385D01*
Y534D02*
Y558D01*
Y609D02*
Y735D01*
X928Y226D02*
Y316D01*
Y373D02*
Y385D01*
Y534D02*
Y557D01*
Y609D02*
Y735D01*
X929Y226D02*
Y316D01*
Y373D02*
Y385D01*
Y534D02*
Y557D01*
Y609D02*
Y735D01*
X930Y226D02*
Y316D01*
Y374D02*
Y385D01*
Y534D02*
Y556D01*
Y609D02*
Y735D01*
X930Y226D02*
Y316D01*
Y374D02*
Y386D01*
Y534D02*
Y556D01*
Y609D02*
Y735D01*
X931Y226D02*
Y316D01*
Y375D02*
Y386D01*
Y534D02*
Y555D01*
Y609D02*
Y735D01*
X931Y226D02*
Y316D01*
Y375D02*
Y386D01*
Y534D02*
Y555D01*
Y608D02*
Y735D01*
X932Y226D02*
Y316D01*
Y375D02*
Y386D01*
Y534D02*
Y555D01*
Y608D02*
Y735D01*
X933Y226D02*
Y316D01*
Y375D02*
Y386D01*
Y534D02*
Y554D01*
Y608D02*
Y734D01*
X933Y226D02*
Y316D01*
Y376D02*
Y387D01*
Y534D02*
Y553D01*
Y607D02*
Y734D01*
X934Y226D02*
Y316D01*
Y376D02*
Y387D01*
Y534D02*
Y553D01*
Y607D02*
Y734D01*
X934Y226D02*
Y316D01*
Y376D02*
Y387D01*
Y534D02*
Y553D01*
Y607D02*
Y734D01*
X935Y226D02*
Y316D01*
Y377D02*
Y387D01*
Y534D02*
Y552D01*
Y607D02*
Y734D01*
X936Y226D02*
Y316D01*
Y377D02*
Y387D01*
Y534D02*
Y552D01*
Y607D02*
Y733D01*
X936Y226D02*
Y316D01*
Y378D02*
Y387D01*
Y534D02*
Y551D01*
Y607D02*
Y733D01*
X937Y226D02*
Y316D01*
Y378D02*
Y387D01*
Y534D02*
Y551D01*
Y607D02*
Y733D01*
X937Y226D02*
Y316D01*
Y378D02*
Y387D01*
Y533D02*
Y550D01*
Y606D02*
Y733D01*
X938Y226D02*
Y316D01*
Y379D02*
Y387D01*
Y533D02*
Y550D01*
Y606D02*
Y733D01*
X939Y226D02*
Y316D01*
Y379D02*
Y387D01*
Y533D02*
Y549D01*
Y606D02*
Y733D01*
X939Y226D02*
Y316D01*
Y379D02*
Y387D01*
Y533D02*
Y549D01*
Y606D02*
Y733D01*
X940Y226D02*
Y316D01*
Y379D02*
Y388D01*
Y532D02*
Y549D01*
Y606D02*
Y733D01*
X940Y226D02*
Y316D01*
Y380D02*
Y388D01*
Y532D02*
Y548D01*
Y606D02*
Y733D01*
X941Y226D02*
Y316D01*
Y381D02*
Y388D01*
Y532D02*
Y547D01*
Y605D02*
Y732D01*
X942Y226D02*
Y316D01*
Y381D02*
Y388D01*
Y532D02*
Y547D01*
Y605D02*
Y732D01*
X942Y226D02*
Y316D01*
Y381D02*
Y388D01*
Y532D02*
Y547D01*
Y605D02*
Y732D01*
X943Y226D02*
Y316D01*
Y381D02*
Y388D01*
Y532D02*
Y546D01*
Y605D02*
Y732D01*
X943Y226D02*
Y316D01*
Y382D02*
Y388D01*
Y532D02*
Y546D01*
Y604D02*
Y732D01*
X944Y226D02*
Y316D01*
Y382D02*
Y388D01*
Y531D02*
Y546D01*
Y604D02*
Y732D01*
X945Y226D02*
Y316D01*
Y382D02*
Y388D01*
Y531D02*
Y545D01*
Y604D02*
Y731D01*
X945Y226D02*
Y316D01*
Y383D02*
Y388D01*
Y531D02*
Y544D01*
Y604D02*
Y731D01*
X946Y226D02*
Y316D01*
Y383D02*
Y388D01*
Y531D02*
Y544D01*
Y604D02*
Y730D01*
X946Y226D02*
Y316D01*
Y384D02*
Y388D01*
Y531D02*
Y543D01*
Y604D02*
Y730D01*
X947Y226D02*
Y316D01*
Y384D02*
Y388D01*
Y531D02*
Y543D01*
Y604D02*
Y730D01*
X948Y226D02*
Y316D01*
Y384D02*
Y388D01*
Y531D02*
Y543D01*
Y603D02*
Y730D01*
X948Y226D02*
Y316D01*
Y385D02*
Y388D01*
Y530D02*
Y542D01*
Y603D02*
Y730D01*
X949Y226D02*
Y316D01*
Y385D02*
Y388D01*
Y530D02*
Y541D01*
Y603D02*
Y729D01*
X949Y226D02*
Y316D01*
Y385D02*
Y388D01*
Y530D02*
Y541D01*
Y603D02*
Y729D01*
X950Y226D02*
Y316D01*
Y385D02*
Y388D01*
Y529D02*
Y541D01*
Y603D02*
Y729D01*
X951Y226D02*
Y316D01*
Y529D02*
Y540D01*
Y603D02*
Y729D01*
X951Y226D02*
Y316D01*
Y529D02*
Y540D01*
Y603D02*
Y729D01*
X952Y226D02*
Y316D01*
Y529D02*
Y540D01*
Y602D02*
Y728D01*
X952Y226D02*
Y316D01*
Y529D02*
Y539D01*
Y602D02*
Y728D01*
X953Y226D02*
Y316D01*
Y529D02*
Y538D01*
Y602D02*
Y728D01*
X954Y226D02*
Y316D01*
Y529D02*
Y538D01*
Y601D02*
Y727D01*
X954Y226D02*
Y316D01*
Y528D02*
Y537D01*
Y601D02*
Y727D01*
X955Y226D02*
Y316D01*
Y528D02*
Y537D01*
Y601D02*
Y727D01*
X955Y226D02*
Y316D01*
Y528D02*
Y537D01*
Y601D02*
Y727D01*
X956Y226D02*
Y316D01*
Y528D02*
Y536D01*
Y601D02*
Y727D01*
X957Y226D02*
Y316D01*
Y528D02*
Y535D01*
Y601D02*
Y726D01*
X957Y226D02*
Y316D01*
Y528D02*
Y535D01*
Y601D02*
Y726D01*
X958Y226D02*
Y316D01*
Y527D02*
Y535D01*
Y600D02*
Y726D01*
X958Y226D02*
Y316D01*
Y527D02*
Y534D01*
Y600D02*
Y726D01*
X959Y226D02*
Y316D01*
Y527D02*
Y534D01*
Y600D02*
Y726D01*
X960Y226D02*
Y316D01*
Y527D02*
Y534D01*
Y600D02*
Y726D01*
X960Y226D02*
Y316D01*
Y526D02*
Y533D01*
Y600D02*
Y726D01*
X961Y226D02*
Y316D01*
Y526D02*
Y532D01*
Y600D02*
Y726D01*
X961Y226D02*
Y317D01*
Y526D02*
Y532D01*
Y599D02*
Y725D01*
X962Y226D02*
Y317D01*
Y526D02*
Y531D01*
Y599D02*
Y725D01*
X963Y226D02*
Y317D01*
Y526D02*
Y531D01*
Y599D02*
Y725D01*
X963Y226D02*
Y317D01*
Y526D02*
Y531D01*
Y599D02*
Y725D01*
X964Y226D02*
Y318D01*
Y525D02*
Y530D01*
Y598D02*
Y724D01*
X964Y226D02*
Y318D01*
Y525D02*
Y529D01*
Y598D02*
Y724D01*
X965Y226D02*
Y318D01*
Y525D02*
Y529D01*
Y598D02*
Y724D01*
X966Y226D02*
Y318D01*
Y525D02*
Y529D01*
Y598D02*
Y724D01*
X966Y227D02*
Y318D01*
Y525D02*
Y528D01*
Y598D02*
Y724D01*
X967Y226D02*
Y318D01*
Y525D02*
Y528D01*
Y598D02*
Y724D01*
X967Y227D02*
Y318D01*
Y526D02*
Y527D01*
Y598D02*
Y724D01*
X968Y227D02*
Y318D01*
Y597D02*
Y723D01*
X969Y227D02*
Y319D01*
Y597D02*
Y723D01*
X969Y228D02*
Y319D01*
Y597D02*
Y723D01*
X970Y228D02*
Y319D01*
Y597D02*
Y723D01*
X970Y228D02*
Y319D01*
Y597D02*
Y722D01*
X971Y228D02*
Y319D01*
Y596D02*
Y721D01*
X972Y228D02*
Y319D01*
Y595D02*
Y721D01*
X972Y229D02*
Y319D01*
Y595D02*
Y721D01*
X973Y229D02*
Y319D01*
Y595D02*
Y721D01*
X973Y229D02*
Y320D01*
Y595D02*
Y720D01*
X974Y229D02*
Y320D01*
Y594D02*
Y720D01*
X975Y229D02*
Y320D01*
Y594D02*
Y720D01*
X975Y230D02*
Y320D01*
Y594D02*
Y719D01*
X976Y230D02*
Y321D01*
Y593D02*
Y719D01*
X976Y230D02*
Y321D01*
Y593D02*
Y718D01*
X977Y231D02*
Y321D01*
Y592D02*
Y718D01*
X978Y231D02*
Y321D01*
Y592D02*
Y718D01*
X978Y231D02*
Y321D01*
Y592D02*
Y717D01*
X979Y231D02*
Y321D01*
Y591D02*
Y717D01*
X979Y231D02*
Y321D01*
Y591D02*
Y717D01*
X980Y232D02*
Y321D01*
Y591D02*
Y717D01*
X981Y232D02*
Y322D01*
Y590D02*
Y716D01*
X981Y232D02*
Y322D01*
Y590D02*
Y715D01*
X982Y232D02*
Y322D01*
Y589D02*
Y715D01*
X982Y232D02*
Y322D01*
Y589D02*
Y715D01*
X983Y233D02*
Y322D01*
Y589D02*
Y714D01*
X984Y234D02*
Y322D01*
Y589D02*
Y714D01*
X984Y234D02*
Y322D01*
Y588D02*
Y714D01*
X985Y234D02*
Y323D01*
Y588D02*
Y713D01*
X985Y234D02*
Y323D01*
Y588D02*
Y712D01*
X986Y235D02*
Y323D01*
Y587D02*
Y712D01*
X987Y235D02*
Y323D01*
Y586D02*
Y712D01*
X987Y235D02*
Y324D01*
Y586D02*
Y711D01*
X988Y235D02*
Y324D01*
Y586D02*
Y711D01*
X988Y236D02*
Y324D01*
Y585D02*
Y711D01*
X989Y236D02*
Y324D01*
Y585D02*
Y710D01*
X990Y236D02*
Y324D01*
Y585D02*
Y709D01*
X990Y237D02*
Y324D01*
Y584D02*
Y709D01*
X991Y237D02*
Y324D01*
Y584D02*
Y709D01*
X991Y237D02*
Y325D01*
Y583D02*
Y708D01*
X992Y238D02*
Y325D01*
Y583D02*
Y708D01*
X993Y238D02*
Y325D01*
Y583D02*
Y707D01*
X993Y238D02*
Y325D01*
Y582D02*
Y707D01*
X994Y238D02*
Y325D01*
Y582D02*
Y706D01*
X994Y238D02*
Y325D01*
Y582D02*
Y706D01*
X995Y239D02*
Y325D01*
Y582D02*
Y705D01*
X996Y239D02*
Y326D01*
Y581D02*
Y705D01*
X996Y240D02*
Y326D01*
Y580D02*
Y705D01*
X997Y240D02*
Y326D01*
Y580D02*
Y704D01*
X997Y240D02*
Y327D01*
Y580D02*
Y703D01*
X998Y240D02*
Y327D01*
Y580D02*
Y703D01*
X999Y240D02*
Y327D01*
Y579D02*
Y703D01*
X999Y241D02*
Y327D01*
Y579D02*
Y702D01*
X1000Y241D02*
Y327D01*
Y578D02*
Y702D01*
X1000Y241D02*
Y327D01*
Y578D02*
Y701D01*
X1001Y241D02*
Y327D01*
Y577D02*
Y700D01*
X1002Y241D02*
Y328D01*
Y577D02*
Y700D01*
X1002Y242D02*
Y328D01*
Y577D02*
Y700D01*
X1003Y242D02*
Y328D01*
Y576D02*
Y699D01*
X1003Y242D02*
Y328D01*
Y576D02*
Y699D01*
X1004Y243D02*
Y328D01*
Y576D02*
Y699D01*
X1005Y243D02*
Y328D01*
Y575D02*
Y698D01*
X1005Y243D02*
Y328D01*
Y575D02*
Y697D01*
X1006Y243D02*
Y329D01*
Y574D02*
Y697D01*
X1006Y243D02*
Y329D01*
Y574D02*
Y696D01*
X1007Y244D02*
Y329D01*
Y574D02*
Y696D01*
X1008Y244D02*
Y329D01*
Y573D02*
Y696D01*
X1008Y244D02*
Y330D01*
Y573D02*
Y695D01*
X1009Y244D02*
Y330D01*
Y572D02*
Y694D01*
X1009Y245D02*
Y330D01*
Y572D02*
Y694D01*
X1010Y245D02*
Y330D01*
Y571D02*
Y694D01*
X1011Y246D02*
Y330D01*
Y571D02*
Y693D01*
X1011Y246D02*
Y330D01*
Y570D02*
Y693D01*
X1012Y247D02*
Y330D01*
Y570D02*
Y692D01*
X1012Y247D02*
Y331D01*
Y569D02*
Y692D01*
X1013Y247D02*
Y331D01*
Y568D02*
Y691D01*
X1014Y247D02*
Y331D01*
Y568D02*
Y691D01*
X1014Y248D02*
Y331D01*
Y568D02*
Y690D01*
X1015Y249D02*
Y331D01*
Y567D02*
Y690D01*
X1015Y249D02*
Y331D01*
Y567D02*
Y690D01*
X1016Y249D02*
Y331D01*
Y566D02*
Y689D01*
X1017Y250D02*
Y332D01*
Y565D02*
Y688D01*
X1017Y250D02*
Y332D01*
Y565D02*
Y688D01*
X1018Y250D02*
Y332D01*
Y565D02*
Y688D01*
X1018Y251D02*
Y333D01*
Y564D02*
Y687D01*
X1019Y251D02*
Y333D01*
Y564D02*
Y687D01*
X1020Y252D02*
Y333D01*
Y563D02*
Y686D01*
X1020Y252D02*
Y333D01*
Y562D02*
Y686D01*
X1021Y253D02*
Y333D01*
Y562D02*
Y685D01*
X1021Y253D02*
Y333D01*
Y561D02*
Y684D01*
X1022Y253D02*
Y334D01*
Y561D02*
Y684D01*
X1023Y254D02*
Y334D01*
Y561D02*
Y683D01*
X1023Y254D02*
Y334D01*
Y560D02*
Y682D01*
X1024Y255D02*
Y334D01*
Y559D02*
Y682D01*
X1024Y255D02*
Y334D01*
Y559D02*
Y681D01*
X1025Y255D02*
Y335D01*
Y558D02*
Y680D01*
X1026Y256D02*
Y335D01*
Y558D02*
Y679D01*
X1026Y256D02*
Y336D01*
Y557D02*
Y679D01*
X1027Y256D02*
Y336D01*
Y557D02*
Y678D01*
X1027Y257D02*
Y336D01*
Y556D02*
Y678D01*
X1028Y257D02*
Y336D01*
Y556D02*
Y677D01*
X1029Y258D02*
Y337D01*
Y555D02*
Y676D01*
X1029Y258D02*
Y337D01*
Y555D02*
Y675D01*
X1030Y259D02*
Y337D01*
Y554D02*
Y675D01*
X1030Y259D02*
Y337D01*
Y553D02*
Y674D01*
X1031Y259D02*
Y338D01*
Y553D02*
Y673D01*
X1032Y260D02*
Y338D01*
Y552D02*
Y673D01*
X1032Y260D02*
Y339D01*
Y552D02*
Y672D01*
X1033Y261D02*
Y339D01*
Y551D02*
Y672D01*
X1033Y261D02*
Y339D01*
Y550D02*
Y670D01*
X1034Y261D02*
Y339D01*
Y550D02*
Y670D01*
X1035Y262D02*
Y340D01*
Y549D02*
Y669D01*
X1035Y262D02*
Y340D01*
Y549D02*
Y669D01*
X1036Y262D02*
Y340D01*
Y548D02*
Y668D01*
X1036Y263D02*
Y340D01*
Y547D02*
Y667D01*
X1037Y264D02*
Y341D01*
Y547D02*
Y667D01*
X1038Y264D02*
Y341D01*
Y546D02*
Y666D01*
X1038Y264D02*
Y342D01*
Y546D02*
Y665D01*
X1039Y265D02*
Y342D01*
Y545D02*
Y664D01*
X1039Y265D02*
Y342D01*
Y544D02*
Y664D01*
X1040Y266D02*
Y343D01*
Y544D02*
Y663D01*
X1041Y266D02*
Y343D01*
Y543D02*
Y663D01*
X1041Y267D02*
Y344D01*
Y543D02*
Y661D01*
X1042Y267D02*
Y344D01*
Y542D02*
Y660D01*
X1042Y268D02*
Y345D01*
Y541D02*
Y660D01*
X1043Y268D02*
Y345D01*
Y541D02*
Y658D01*
X1044Y268D02*
Y346D01*
Y540D02*
Y658D01*
X1044Y269D02*
Y346D01*
Y540D02*
Y657D01*
X1045Y270D02*
Y346D01*
Y538D02*
Y655D01*
X1045Y270D02*
Y347D01*
Y537D02*
Y655D01*
X1046Y270D02*
Y347D01*
Y537D02*
Y654D01*
X1047Y271D02*
Y348D01*
Y535D02*
Y652D01*
X1047Y271D02*
Y348D01*
Y535D02*
Y652D01*
X1048Y271D02*
Y349D01*
Y534D02*
Y651D01*
X1048Y272D02*
Y349D01*
Y532D02*
Y650D01*
X1049Y273D02*
Y349D01*
Y532D02*
Y649D01*
X1050Y273D02*
Y350D01*
Y531D02*
Y648D01*
X1050Y273D02*
Y351D01*
Y529D02*
Y647D01*
X1051Y274D02*
Y351D01*
Y529D02*
Y646D01*
X1051Y274D02*
Y352D01*
Y528D02*
Y645D01*
X1052Y275D02*
Y352D01*
Y527D02*
Y644D01*
X1053Y275D02*
Y353D01*
Y526D02*
Y643D01*
X1053Y276D02*
Y354D01*
Y525D02*
Y642D01*
X1054Y276D02*
Y355D01*
Y524D02*
Y641D01*
X1054Y277D02*
Y355D01*
Y523D02*
Y640D01*
X1055Y277D02*
Y356D01*
Y522D02*
Y639D01*
X1056Y277D02*
Y357D01*
Y521D02*
Y638D01*
X1056Y278D02*
Y357D01*
Y520D02*
Y637D01*
X1057Y279D02*
Y358D01*
Y519D02*
Y636D01*
X1057Y279D02*
Y358D01*
Y518D02*
Y635D01*
X1058Y280D02*
Y359D01*
Y517D02*
Y634D01*
X1059Y281D02*
Y360D01*
Y516D02*
Y633D01*
X1059Y283D02*
Y360D01*
Y515D02*
Y632D01*
X1060Y284D02*
Y361D01*
Y514D02*
Y631D01*
X1060Y286D02*
Y362D01*
Y513D02*
Y630D01*
X1061Y287D02*
Y363D01*
Y512D02*
Y629D01*
X1062Y289D02*
Y363D01*
Y511D02*
Y628D01*
X1062Y290D02*
Y364D01*
Y510D02*
Y627D01*
X1063Y292D02*
Y364D01*
Y509D02*
Y625D01*
X1063Y293D02*
Y365D01*
Y508D02*
Y625D01*
X1064Y294D02*
Y366D01*
Y507D02*
Y624D01*
X1065Y295D02*
Y366D01*
Y506D02*
Y622D01*
X1065Y297D02*
Y367D01*
Y505D02*
Y621D01*
X1066Y297D02*
Y368D01*
Y504D02*
Y621D01*
X1066Y298D02*
Y369D01*
Y503D02*
Y619D01*
X1067Y300D02*
Y369D01*
Y502D02*
Y618D01*
X1068Y300D02*
Y370D01*
Y501D02*
Y616D01*
X1068Y301D02*
Y370D01*
Y500D02*
Y615D01*
X1069Y303D02*
Y371D01*
Y499D02*
Y614D01*
X1069Y303D02*
Y372D01*
Y498D02*
Y612D01*
X1070Y304D02*
Y372D01*
Y497D02*
Y611D01*
X1071Y306D02*
Y373D01*
Y496D02*
Y610D01*
X1071Y306D02*
Y373D01*
Y495D02*
Y609D01*
X1072Y307D02*
Y375D01*
Y494D02*
Y607D01*
X1072Y309D02*
Y375D01*
Y493D02*
Y606D01*
X1073Y310D02*
Y376D01*
Y492D02*
Y604D01*
X1074Y312D02*
Y376D01*
Y491D02*
Y603D01*
X1074Y314D02*
Y377D01*
Y490D02*
Y601D01*
X1075Y316D02*
Y378D01*
Y489D02*
Y600D01*
X1075Y318D02*
Y378D01*
Y488D02*
Y598D01*
X1076Y319D02*
Y379D01*
Y487D02*
Y597D01*
X1077Y321D02*
Y379D01*
Y486D02*
Y594D01*
X1077Y323D02*
Y380D01*
Y484D02*
Y592D01*
X1078Y325D02*
Y381D01*
Y483D02*
Y591D01*
X1078Y327D02*
Y382D01*
Y483D02*
Y588D01*
X1079Y331D02*
Y382D01*
Y482D02*
Y586D01*
X1080Y335D02*
Y383D01*
Y482D02*
Y585D01*
X1080Y340D02*
Y384D01*
Y482D02*
Y582D01*
X1081Y343D02*
Y385D01*
Y483D02*
Y580D01*
X1081Y347D02*
Y385D01*
Y486D02*
Y579D01*
X1082Y349D02*
Y386D01*
Y489D02*
Y576D01*
X1083Y352D02*
Y387D01*
Y492D02*
Y574D01*
X1083Y354D02*
Y388D01*
Y495D02*
Y573D01*
X1084Y356D02*
Y388D01*
Y498D02*
Y570D01*
X1084Y358D02*
Y390D01*
Y501D02*
Y566D01*
X1085Y360D02*
Y390D01*
Y504D02*
Y560D01*
X1086Y363D02*
Y391D01*
Y507D02*
Y553D01*
X1086Y365D02*
Y392D01*
Y510D02*
Y548D01*
X1087Y367D02*
Y393D01*
Y513D02*
Y542D01*
X1087Y369D02*
Y393D01*
X1088Y372D02*
Y393D01*
X1089Y373D02*
Y393D01*
X1089Y376D02*
Y393D01*
X1090Y378D02*
Y388D01*
Y388D02*
Y390D01*
Y391D02*
Y393D01*
M02*
