%FSLAX23Y23*%
%MOIN*%
G70*
G01*
G75*
G04 Layer_Color=8388736*
%ADD10R,0.118X0.059*%
%ADD11R,0.118X0.039*%
%ADD12R,0.031X0.035*%
%ADD13C,0.010*%
%ADD14C,0.060*%
%ADD15C,0.039*%
%ADD16C,0.236*%
%ADD17C,0.000*%
%ADD18C,0.000*%
%ADD19C,0.020*%
%ADD20C,0.059*%
%ADD21R,0.126X0.067*%
%ADD22R,0.126X0.047*%
%ADD23R,0.039X0.043*%
%ADD24C,0.068*%
D13*
X401Y129D02*
X375D01*
Y110D01*
X388D01*
X375D01*
Y90D01*
X414D02*
X427D01*
X421D01*
Y129D01*
X414D01*
X454Y116D02*
X467D01*
X473Y110D01*
Y90D01*
X454D01*
X447Y97D01*
X454Y103D01*
X473D01*
X487Y90D02*
Y116D01*
X493D01*
X500Y110D01*
Y90D01*
Y110D01*
X506Y116D01*
X513Y110D01*
Y90D01*
X546D02*
X532D01*
X526Y97D01*
Y110D01*
X532Y116D01*
X546D01*
X552Y110D01*
Y103D01*
X526D01*
X631Y123D02*
X624Y129D01*
X611D01*
X605Y123D01*
Y116D01*
X611Y110D01*
X624D01*
X631Y103D01*
Y97D01*
X624Y90D01*
X611D01*
X605Y97D01*
X664Y90D02*
X651D01*
X644Y97D01*
Y110D01*
X651Y116D01*
X664D01*
X670Y110D01*
Y103D01*
X644D01*
X683Y90D02*
Y116D01*
X703D01*
X710Y110D01*
Y90D01*
X723D02*
X742D01*
X749Y97D01*
X742Y103D01*
X729D01*
X723Y110D01*
X729Y116D01*
X749D01*
X769Y90D02*
X782D01*
X788Y97D01*
Y110D01*
X782Y116D01*
X769D01*
X762Y110D01*
Y97D01*
X769Y90D01*
X801Y116D02*
Y90D01*
Y103D01*
X808Y110D01*
X814Y116D01*
X821D01*
D15*
X92Y833D02*
D03*
X218D02*
D03*
X155Y859D02*
D03*
X66Y770D02*
D03*
X92Y707D02*
D03*
X155Y681D02*
D03*
X218Y707D02*
D03*
X244Y770D02*
D03*
X249Y155D02*
D03*
X223Y92D02*
D03*
X160Y66D02*
D03*
X97Y92D02*
D03*
X71Y155D02*
D03*
X160Y244D02*
D03*
X223Y218D02*
D03*
X97D02*
D03*
D16*
X155Y770D02*
D03*
X160Y155D02*
D03*
D19*
X345Y775D02*
G03*
X345Y775I-10J0D01*
G01*
D20*
X244Y770D02*
G03*
X244Y770I-89J0D01*
G01*
X249Y155D02*
G03*
X249Y155I-89J0D01*
G01*
D21*
X1242Y285D02*
D03*
Y615D02*
D03*
D22*
X1045Y529D02*
D03*
Y371D02*
D03*
Y450D02*
D03*
Y529D02*
D03*
D23*
X703Y565D02*
D03*
X647D02*
D03*
X703Y415D02*
D03*
X647D02*
D03*
D24*
X465Y514D02*
D03*
Y396D02*
D03*
M02*
