%FSLAX23Y23*%
%MOIN*%
G70*
G01*
G75*
%ADD10R,0.118X0.059*%
%ADD11R,0.118X0.039*%
%ADD12R,0.031X0.035*%
%ADD13C,0.010*%
%ADD14C,0.060*%
%ADD15C,0.039*%
%ADD16C,0.236*%
%ADD17C,0.000*%
%ADD18C,0.000*%
D13*
X445Y255D02*
Y295D01*
X430Y275D02*
X460D01*
X1045Y250D02*
X1300D01*
X1045D02*
Y645D01*
X1050Y650D01*
X1300D01*
Y250D02*
Y650D01*
D17*
X1087Y55D02*
Y205D01*
X1087Y55D02*
Y205D01*
X1087Y55D02*
Y205D01*
X1087Y55D02*
Y205D01*
X1088Y55D02*
Y205D01*
X1088Y55D02*
Y205D01*
X1088Y55D02*
Y205D01*
X1089Y55D02*
Y205D01*
X1089Y55D02*
Y205D01*
X1089Y55D02*
Y205D01*
X1090Y55D02*
Y205D01*
X1090Y55D02*
Y205D01*
X1090Y55D02*
Y205D01*
X1090Y55D02*
Y205D01*
X1091Y55D02*
Y205D01*
X1091Y55D02*
Y205D01*
X1091Y55D02*
Y205D01*
X1092Y55D02*
Y205D01*
X1092Y55D02*
Y205D01*
X1092Y55D02*
Y205D01*
X1093Y55D02*
Y205D01*
X1093Y55D02*
Y205D01*
X1093Y55D02*
Y205D01*
X1094Y55D02*
Y205D01*
X1094Y55D02*
Y205D01*
X1094Y55D02*
Y205D01*
X1094Y55D02*
Y205D01*
X1095Y55D02*
Y205D01*
X1095Y55D02*
Y205D01*
X1095Y55D02*
Y205D01*
X1096Y55D02*
Y205D01*
X1096Y55D02*
Y205D01*
X1096Y55D02*
Y205D01*
X1097Y55D02*
Y205D01*
X1097Y55D02*
Y205D01*
X1097Y55D02*
Y205D01*
X1097Y55D02*
Y205D01*
X1098Y55D02*
Y205D01*
X1098Y55D02*
Y205D01*
X1098Y55D02*
Y205D01*
X1099Y55D02*
Y205D01*
X1099Y55D02*
Y205D01*
X1099Y55D02*
Y205D01*
X1099Y55D02*
Y205D01*
X1100Y55D02*
Y205D01*
X1100Y55D02*
Y128D01*
Y131D02*
Y205D01*
X1100Y55D02*
Y128D01*
Y131D02*
Y205D01*
X1101Y55D02*
Y130D01*
Y132D02*
Y205D01*
X1101Y55D02*
Y130D01*
Y132D02*
Y205D01*
X1101Y55D02*
Y128D01*
Y132D02*
Y205D01*
X1102Y55D02*
Y128D01*
Y132D02*
Y205D01*
X1102Y55D02*
Y127D01*
Y132D02*
Y205D01*
X1102Y55D02*
Y128D01*
Y131D02*
Y205D01*
X1102Y55D02*
Y128D01*
Y131D02*
Y205D01*
X1103Y55D02*
Y127D01*
Y132D02*
Y205D01*
X1103Y55D02*
Y127D01*
Y132D02*
Y205D01*
X1103Y55D02*
Y126D01*
Y132D02*
Y205D01*
X1104Y55D02*
Y126D01*
Y132D02*
Y205D01*
X1104Y55D02*
Y126D01*
Y132D02*
Y205D01*
X1104Y55D02*
Y126D01*
Y132D02*
Y205D01*
X1105Y55D02*
Y128D01*
Y133D02*
Y205D01*
X1105Y55D02*
Y128D01*
Y133D02*
Y205D01*
X1105Y55D02*
Y126D01*
Y132D02*
Y205D01*
X1105Y55D02*
Y126D01*
Y132D02*
Y205D01*
X1106Y55D02*
Y125D01*
Y133D02*
Y205D01*
X1106Y55D02*
Y125D01*
Y132D02*
Y205D01*
X1106Y55D02*
Y125D01*
Y132D02*
Y205D01*
X1107Y55D02*
Y125D01*
Y134D02*
Y205D01*
X1107Y55D02*
Y125D01*
Y134D02*
Y205D01*
X1107Y55D02*
Y124D01*
Y133D02*
Y205D01*
X1108Y55D02*
Y124D01*
Y133D02*
Y205D01*
X1108Y55D02*
Y125D01*
Y133D02*
Y205D01*
X1108Y55D02*
Y125D01*
Y133D02*
Y205D01*
X1109Y55D02*
Y123D01*
Y134D02*
Y205D01*
X1109Y55D02*
Y123D01*
Y134D02*
Y205D01*
X1109Y55D02*
Y125D01*
Y135D02*
Y205D01*
X1109Y55D02*
Y125D01*
Y135D02*
Y205D01*
X1110Y55D02*
Y123D01*
Y135D02*
Y205D01*
X1110Y55D02*
Y123D01*
Y135D02*
Y205D01*
X1110Y55D02*
Y123D01*
Y135D02*
Y205D01*
X1111Y55D02*
Y123D01*
Y135D02*
Y205D01*
X1111Y55D02*
Y123D01*
Y135D02*
Y205D01*
X1111Y55D02*
Y123D01*
Y135D02*
Y205D01*
X1112Y55D02*
Y123D01*
Y135D02*
Y205D01*
X1112Y55D02*
Y123D01*
Y136D02*
Y205D01*
X1112Y55D02*
Y123D01*
Y136D02*
Y205D01*
X1112Y55D02*
Y122D01*
Y135D02*
Y205D01*
X1113Y55D02*
Y122D01*
Y135D02*
Y205D01*
X1113Y55D02*
Y123D01*
Y136D02*
Y205D01*
X1113Y55D02*
Y123D01*
Y136D02*
Y205D01*
X1114Y55D02*
Y122D01*
Y137D02*
Y205D01*
X1114Y55D02*
Y122D01*
Y137D02*
Y205D01*
X1114Y55D02*
Y121D01*
Y137D02*
Y205D01*
X1115Y55D02*
Y121D01*
Y137D02*
Y205D01*
X1115Y55D02*
Y123D01*
Y137D02*
Y205D01*
X1115Y55D02*
Y121D01*
Y136D02*
Y205D01*
X1115Y55D02*
Y121D01*
Y136D02*
Y205D01*
X1116Y55D02*
Y121D01*
Y138D02*
Y205D01*
X1116Y55D02*
Y121D01*
Y138D02*
Y205D01*
X1116Y55D02*
Y120D01*
Y137D02*
Y205D01*
X1117Y55D02*
Y120D01*
Y137D02*
Y205D01*
X1117Y55D02*
Y120D01*
Y138D02*
Y205D01*
X1117Y55D02*
Y120D01*
Y138D02*
Y205D01*
X1117Y55D02*
Y120D01*
Y138D02*
Y205D01*
X1118Y55D02*
Y120D01*
Y138D02*
Y205D01*
X1118Y55D02*
Y119D01*
Y138D02*
Y205D01*
X1118Y55D02*
Y119D01*
Y138D02*
Y205D01*
X1119Y55D02*
Y121D01*
Y139D02*
Y205D01*
X1119Y55D02*
Y121D01*
Y139D02*
Y205D01*
X1119Y55D02*
Y119D01*
Y139D02*
Y205D01*
X1120Y55D02*
Y119D01*
Y139D02*
Y205D01*
X1120Y55D02*
Y119D01*
Y139D02*
Y205D01*
X1120Y55D02*
Y119D01*
Y139D02*
Y205D01*
X1120Y55D02*
Y119D01*
Y139D02*
Y205D01*
X1121Y55D02*
Y119D01*
Y140D02*
Y205D01*
X1121Y55D02*
Y119D01*
Y140D02*
Y205D01*
X1121Y55D02*
Y119D01*
Y139D02*
Y205D01*
X1122Y55D02*
Y119D01*
Y139D02*
Y205D01*
X1122Y55D02*
Y118D01*
Y139D02*
Y205D01*
X1122Y55D02*
Y118D01*
Y139D02*
Y205D01*
X1123Y55D02*
Y119D01*
Y140D02*
Y205D01*
X1123Y55D02*
Y119D01*
Y140D02*
Y205D01*
X1123Y55D02*
Y118D01*
Y140D02*
Y205D01*
X1123Y55D02*
Y119D01*
Y141D02*
Y205D01*
X1124Y55D02*
Y119D01*
Y141D02*
Y205D01*
X1124Y55D02*
Y117D01*
Y140D02*
Y205D01*
X1124Y55D02*
Y117D01*
Y140D02*
Y205D01*
X1125Y55D02*
Y117D01*
Y140D02*
Y205D01*
X1125Y55D02*
Y117D01*
Y140D02*
Y205D01*
X1125Y55D02*
Y117D01*
Y141D02*
Y205D01*
X1126Y55D02*
Y117D01*
Y141D02*
Y205D01*
X1126Y55D02*
Y116D01*
Y141D02*
Y205D01*
X1126Y55D02*
Y116D01*
Y141D02*
Y205D01*
X1127Y55D02*
Y116D01*
Y142D02*
Y205D01*
X1127Y55D02*
Y116D01*
Y142D02*
Y205D01*
X1127Y55D02*
Y116D01*
Y141D02*
Y205D01*
X1127Y55D02*
Y116D01*
Y141D02*
Y205D01*
X1128Y55D02*
Y116D01*
Y143D02*
Y205D01*
X1128Y55D02*
Y115D01*
Y123D02*
Y126D01*
Y142D02*
Y205D01*
X1128Y55D02*
Y115D01*
Y123D02*
Y126D01*
Y142D02*
Y205D01*
X1129Y55D02*
Y115D01*
Y123D02*
Y126D01*
Y143D02*
Y205D01*
X1129Y55D02*
Y115D01*
Y123D02*
Y126D01*
Y143D02*
Y205D01*
X1129Y55D02*
Y115D01*
Y123D02*
Y125D01*
Y143D02*
Y205D01*
X1130Y55D02*
Y115D01*
Y123D02*
Y125D01*
Y143D02*
Y205D01*
X1130Y55D02*
Y115D01*
Y123D02*
Y126D01*
Y143D02*
Y205D01*
X1130Y55D02*
Y115D01*
Y123D02*
Y126D01*
Y143D02*
Y205D01*
X1130Y55D02*
Y115D01*
Y121D02*
Y125D01*
Y144D02*
Y205D01*
X1131Y55D02*
Y115D01*
Y121D02*
Y125D01*
Y144D02*
Y205D01*
X1131Y55D02*
Y115D01*
Y123D02*
Y127D01*
Y141D02*
Y205D01*
X1131Y55D02*
Y115D01*
Y123D02*
Y127D01*
Y141D02*
Y205D01*
X1132Y55D02*
Y114D01*
Y121D02*
Y126D01*
Y144D02*
Y205D01*
X1132Y55D02*
Y114D01*
Y121D02*
Y126D01*
Y144D02*
Y205D01*
X1132Y55D02*
Y115D01*
Y122D02*
Y126D01*
Y144D02*
Y205D01*
X1133Y55D02*
Y113D01*
Y120D02*
Y127D01*
Y144D02*
Y205D01*
X1133Y55D02*
Y113D01*
Y120D02*
Y127D01*
Y144D02*
Y205D01*
X1133Y55D02*
Y115D01*
Y120D02*
Y126D01*
Y144D02*
Y205D01*
X1133Y55D02*
Y115D01*
Y120D02*
Y126D01*
Y144D02*
Y205D01*
X1134Y55D02*
Y115D01*
Y121D02*
Y127D01*
Y145D02*
Y205D01*
X1134Y55D02*
Y115D01*
Y121D02*
Y127D01*
Y145D02*
Y205D01*
X1134Y55D02*
Y113D01*
Y119D02*
Y128D01*
Y145D02*
Y205D01*
X1135Y55D02*
Y113D01*
Y119D02*
Y128D01*
Y145D02*
Y205D01*
X1135Y55D02*
Y113D01*
Y121D02*
Y128D01*
Y145D02*
Y205D01*
X1135Y55D02*
Y113D01*
Y121D02*
Y128D01*
Y145D02*
Y205D01*
X1135Y55D02*
Y112D01*
Y119D02*
Y128D01*
Y145D02*
Y205D01*
X1136Y55D02*
Y112D01*
Y119D02*
Y128D01*
Y145D02*
Y205D01*
X1136Y55D02*
Y112D01*
Y120D02*
Y128D01*
Y146D02*
Y205D01*
X1136Y55D02*
Y112D01*
Y120D02*
Y128D01*
Y146D02*
Y205D01*
X1137Y55D02*
Y112D01*
Y119D02*
Y128D01*
Y146D02*
Y205D01*
X1137Y55D02*
Y111D01*
Y119D02*
Y128D01*
Y145D02*
Y205D01*
X1137Y55D02*
Y111D01*
Y119D02*
Y128D01*
Y145D02*
Y205D01*
X1138Y55D02*
Y112D01*
Y119D02*
Y128D01*
Y146D02*
Y205D01*
X1138Y55D02*
Y112D01*
Y119D02*
Y128D01*
Y146D02*
Y205D01*
X1138Y55D02*
Y111D01*
Y119D02*
Y129D01*
Y147D02*
Y205D01*
X1138Y55D02*
Y111D01*
Y119D02*
Y129D01*
Y147D02*
Y205D01*
X1139Y55D02*
Y111D01*
Y119D02*
Y129D01*
Y147D02*
Y205D01*
X1139Y55D02*
Y111D01*
Y119D02*
Y129D01*
Y147D02*
Y205D01*
X1139Y55D02*
Y111D01*
Y119D02*
Y130D01*
Y146D02*
Y205D01*
X1140Y55D02*
Y111D01*
Y119D02*
Y130D01*
Y146D02*
Y205D01*
X1140Y55D02*
Y110D01*
Y118D02*
Y129D01*
Y147D02*
Y205D01*
X1140Y55D02*
Y110D01*
Y118D02*
Y129D01*
Y147D02*
Y205D01*
X1141Y55D02*
Y110D01*
Y119D02*
Y130D01*
Y146D02*
Y205D01*
X1141Y55D02*
Y111D01*
Y118D02*
Y130D01*
Y148D02*
Y205D01*
X1141Y55D02*
Y111D01*
Y118D02*
Y130D01*
Y148D02*
Y205D01*
X1141Y55D02*
Y110D01*
Y118D02*
Y131D01*
Y148D02*
Y205D01*
X1142Y55D02*
Y110D01*
Y118D02*
Y131D01*
Y148D02*
Y205D01*
X1142Y55D02*
Y110D01*
Y117D02*
Y130D01*
Y148D02*
Y205D01*
X1142Y55D02*
Y110D01*
Y117D02*
Y130D01*
Y148D02*
Y205D01*
X1143Y55D02*
Y110D01*
Y117D02*
Y130D01*
Y148D02*
Y205D01*
X1143Y55D02*
Y110D01*
Y117D02*
Y130D01*
Y148D02*
Y205D01*
X1143Y55D02*
Y110D01*
Y116D02*
Y131D01*
Y148D02*
Y205D01*
X1144Y55D02*
Y110D01*
Y116D02*
Y131D01*
Y148D02*
Y205D01*
X1144Y55D02*
Y108D01*
Y117D02*
Y132D01*
Y149D02*
Y205D01*
X1144Y55D02*
Y108D01*
Y117D02*
Y132D01*
Y149D02*
Y205D01*
X1145Y55D02*
Y110D01*
Y116D02*
Y132D01*
Y149D02*
Y205D01*
X1145Y55D02*
Y110D01*
Y116D02*
Y132D01*
Y149D02*
Y205D01*
X1145Y55D02*
Y108D01*
Y116D02*
Y132D01*
Y149D02*
Y205D01*
X1145Y55D02*
Y108D01*
Y115D02*
Y132D01*
Y150D02*
Y205D01*
X1146Y55D02*
Y108D01*
Y115D02*
Y132D01*
Y150D02*
Y205D01*
X1146Y55D02*
Y107D01*
Y116D02*
Y132D01*
Y149D02*
Y205D01*
X1146Y55D02*
Y107D01*
Y116D02*
Y132D01*
Y149D02*
Y205D01*
X1147Y55D02*
Y109D01*
Y115D02*
Y132D01*
Y150D02*
Y205D01*
X1147Y55D02*
Y109D01*
Y115D02*
Y132D01*
Y150D02*
Y205D01*
X1147Y55D02*
Y107D01*
Y115D02*
Y133D01*
Y149D02*
Y205D01*
X1148Y55D02*
Y107D01*
Y115D02*
Y133D01*
Y149D02*
Y205D01*
X1148Y55D02*
Y107D01*
Y115D02*
Y132D01*
Y149D02*
Y205D01*
X1148Y55D02*
Y107D01*
Y115D02*
Y132D01*
Y149D02*
Y205D01*
X1148Y55D02*
Y107D01*
Y115D02*
Y133D01*
Y151D02*
Y205D01*
X1149Y55D02*
Y107D01*
Y115D02*
Y133D01*
Y151D02*
Y205D01*
X1149Y55D02*
Y106D01*
Y113D02*
Y133D01*
Y150D02*
Y205D01*
X1149Y55D02*
Y106D01*
Y113D02*
Y133D01*
Y150D02*
Y205D01*
X1150Y55D02*
Y107D01*
Y114D02*
Y133D01*
Y151D02*
Y205D01*
X1150Y55D02*
Y106D01*
Y115D02*
Y134D01*
Y152D02*
Y205D01*
X1150Y55D02*
Y106D01*
Y115D02*
Y134D01*
Y152D02*
Y205D01*
X1151Y55D02*
Y106D01*
Y114D02*
Y134D01*
Y152D02*
Y205D01*
X1151Y55D02*
Y106D01*
Y114D02*
Y134D01*
Y152D02*
Y205D01*
X1151Y55D02*
Y106D01*
Y113D02*
Y135D01*
Y150D02*
Y205D01*
X1151Y55D02*
Y106D01*
Y113D02*
Y135D01*
Y150D02*
Y205D01*
X1152Y55D02*
Y106D01*
Y113D02*
Y135D01*
Y152D02*
Y205D01*
X1152Y55D02*
Y106D01*
Y113D02*
Y135D01*
Y152D02*
Y205D01*
X1152Y55D02*
Y105D01*
Y113D02*
Y134D01*
Y153D02*
Y205D01*
X1153Y55D02*
Y105D01*
Y113D02*
Y134D01*
Y153D02*
Y205D01*
X1153Y55D02*
Y105D01*
Y113D02*
Y135D01*
Y152D02*
Y205D01*
X1153Y55D02*
Y105D01*
Y113D02*
Y135D01*
Y152D02*
Y205D01*
X1153Y55D02*
Y105D01*
Y113D02*
Y135D01*
Y153D02*
Y205D01*
X1154Y55D02*
Y105D01*
Y113D02*
Y135D01*
Y153D02*
Y205D01*
X1154Y55D02*
Y104D01*
Y113D02*
Y135D01*
Y152D02*
Y205D01*
X1154Y55D02*
Y105D01*
Y112D02*
Y137D01*
Y153D02*
Y205D01*
X1155Y55D02*
Y105D01*
Y112D02*
Y137D01*
Y153D02*
Y205D01*
X1155Y55D02*
Y104D01*
Y112D02*
Y136D01*
Y154D02*
Y205D01*
X1155Y55D02*
Y104D01*
Y112D02*
Y136D01*
Y154D02*
Y205D01*
X1156Y55D02*
Y105D01*
Y111D02*
Y137D01*
Y153D02*
Y205D01*
X1156Y55D02*
Y105D01*
Y111D02*
Y137D01*
Y153D02*
Y205D01*
X1156Y55D02*
Y103D01*
Y111D02*
Y136D01*
Y154D02*
Y205D01*
X1156Y55D02*
Y103D01*
Y111D02*
Y136D01*
Y154D02*
Y205D01*
X1157Y55D02*
Y103D01*
Y111D02*
Y137D01*
Y154D02*
Y205D01*
X1157Y55D02*
Y103D01*
Y111D02*
Y137D01*
Y154D02*
Y205D01*
X1157Y55D02*
Y103D01*
Y111D02*
Y137D01*
Y154D02*
Y205D01*
X1158Y55D02*
Y103D01*
Y111D02*
Y137D01*
Y154D02*
Y205D01*
X1158Y55D02*
Y102D01*
Y111D02*
Y138D01*
Y154D02*
Y205D01*
X1158Y55D02*
Y103D01*
Y111D02*
Y137D01*
Y155D02*
Y205D01*
X1159Y55D02*
Y103D01*
Y111D02*
Y137D01*
Y155D02*
Y205D01*
X1159Y55D02*
Y102D01*
Y110D02*
Y137D01*
Y155D02*
Y205D01*
X1159Y55D02*
Y102D01*
Y110D02*
Y137D01*
Y155D02*
Y205D01*
X1160Y55D02*
Y103D01*
Y110D02*
Y138D01*
Y155D02*
Y205D01*
X1160Y55D02*
Y103D01*
Y110D02*
Y138D01*
Y155D02*
Y205D01*
X1160Y55D02*
Y101D01*
Y110D02*
Y138D01*
Y156D02*
Y205D01*
X1160Y55D02*
Y101D01*
Y110D02*
Y138D01*
Y156D02*
Y205D01*
X1161Y55D02*
Y101D01*
Y110D02*
Y138D01*
Y155D02*
Y205D01*
X1161Y55D02*
Y101D01*
Y110D02*
Y138D01*
Y155D02*
Y205D01*
X1161Y55D02*
Y101D01*
Y109D02*
Y138D01*
Y155D02*
Y205D01*
X1162Y55D02*
Y101D01*
Y109D02*
Y138D01*
Y155D02*
Y205D01*
X1162Y55D02*
Y101D01*
Y107D02*
Y139D01*
Y157D02*
Y205D01*
X1162Y55D02*
Y101D01*
Y107D02*
Y139D01*
Y157D02*
Y205D01*
X1163Y55D02*
Y101D01*
Y109D02*
Y139D01*
Y156D02*
Y205D01*
X1163Y55D02*
Y101D01*
Y107D02*
Y139D01*
Y157D02*
Y205D01*
X1163Y55D02*
Y101D01*
Y107D02*
Y139D01*
Y157D02*
Y205D01*
X1163Y55D02*
Y101D01*
Y108D02*
Y139D01*
Y157D02*
Y205D01*
X1164Y55D02*
Y101D01*
Y108D02*
Y139D01*
Y157D02*
Y205D01*
X1164Y55D02*
Y100D01*
Y107D02*
Y139D01*
Y157D02*
Y205D01*
X1164Y55D02*
Y100D01*
Y107D02*
Y139D01*
Y157D02*
Y205D01*
X1165Y55D02*
Y99D01*
Y107D02*
Y140D01*
Y158D02*
Y205D01*
X1165Y55D02*
Y99D01*
Y107D02*
Y140D01*
Y158D02*
Y205D01*
X1165Y55D02*
Y101D01*
Y108D02*
Y140D01*
Y158D02*
Y205D01*
X1166Y55D02*
Y101D01*
Y108D02*
Y140D01*
Y158D02*
Y205D01*
X1166Y55D02*
Y99D01*
Y107D02*
Y141D01*
Y159D02*
Y205D01*
X1166Y55D02*
Y99D01*
Y107D02*
Y141D01*
Y159D02*
Y205D01*
X1166Y55D02*
Y100D01*
Y106D02*
Y140D01*
Y158D02*
Y205D01*
X1167Y55D02*
Y100D01*
Y106D02*
Y140D01*
Y158D02*
Y205D01*
X1167Y55D02*
Y99D01*
Y107D02*
Y141D01*
Y159D02*
Y205D01*
X1167Y55D02*
Y100D01*
Y107D02*
Y142D01*
Y159D02*
Y205D01*
X1168Y55D02*
Y100D01*
Y107D02*
Y142D01*
Y159D02*
Y205D01*
X1168Y55D02*
Y98D01*
Y106D02*
Y141D01*
Y158D02*
Y205D01*
X1168Y55D02*
Y98D01*
Y106D02*
Y141D01*
Y158D02*
Y205D01*
X1168Y55D02*
Y98D01*
Y105D02*
Y141D01*
Y159D02*
Y205D01*
X1169Y55D02*
Y98D01*
Y105D02*
Y141D01*
Y159D02*
Y205D01*
X1169Y55D02*
Y98D01*
Y106D02*
Y142D01*
Y159D02*
Y205D01*
X1169Y55D02*
Y98D01*
Y106D02*
Y142D01*
Y159D02*
Y205D01*
X1170Y55D02*
Y98D01*
Y105D02*
Y141D01*
Y159D02*
Y205D01*
X1170Y55D02*
Y98D01*
Y105D02*
Y141D01*
Y159D02*
Y205D01*
X1170Y55D02*
Y98D01*
Y106D02*
Y142D01*
Y159D02*
Y205D01*
X1171Y55D02*
Y98D01*
Y106D02*
Y142D01*
Y159D02*
Y205D01*
X1171Y55D02*
Y97D01*
Y105D02*
Y143D01*
Y160D02*
Y205D01*
X1171Y55D02*
Y97D01*
Y105D02*
Y143D01*
Y161D02*
Y205D01*
X1171Y55D02*
Y97D01*
Y105D02*
Y143D01*
Y161D02*
Y205D01*
X1172Y55D02*
Y97D01*
Y104D02*
Y143D01*
Y161D02*
Y205D01*
X1172Y55D02*
Y97D01*
Y104D02*
Y143D01*
Y161D02*
Y205D01*
X1172Y55D02*
Y96D01*
Y105D02*
Y143D01*
Y161D02*
Y205D01*
X1173Y55D02*
Y96D01*
Y105D02*
Y143D01*
Y161D02*
Y205D01*
X1173Y55D02*
Y97D01*
Y105D02*
Y143D01*
Y161D02*
Y205D01*
X1173Y55D02*
Y97D01*
Y105D02*
Y143D01*
Y161D02*
Y205D01*
X1174Y55D02*
Y96D01*
Y104D02*
Y144D01*
Y161D02*
Y205D01*
X1174Y55D02*
Y96D01*
Y104D02*
Y144D01*
Y161D02*
Y205D01*
X1174Y55D02*
Y95D01*
Y162D02*
Y205D01*
X1174Y55D02*
Y95D01*
Y162D02*
Y205D01*
X1175Y55D02*
Y95D01*
Y162D02*
Y205D01*
X1175Y55D02*
Y95D01*
Y162D02*
Y205D01*
X1175Y55D02*
Y96D01*
Y162D02*
Y205D01*
X1176Y55D02*
Y95D01*
Y162D02*
Y205D01*
X1176Y55D02*
Y95D01*
Y162D02*
Y205D01*
X1176Y55D02*
Y95D01*
Y163D02*
Y205D01*
X1177Y55D02*
Y95D01*
Y163D02*
Y205D01*
X1177Y55D02*
Y94D01*
Y163D02*
Y205D01*
X1177Y55D02*
Y94D01*
Y163D02*
Y205D01*
X1178Y55D02*
Y95D01*
Y162D02*
Y205D01*
X1178Y55D02*
Y95D01*
Y162D02*
Y205D01*
X1178Y55D02*
Y94D01*
Y163D02*
Y205D01*
X1178Y55D02*
Y94D01*
Y163D02*
Y205D01*
X1179Y55D02*
Y95D01*
Y163D02*
Y205D01*
X1179Y55D02*
Y95D01*
Y163D02*
Y205D01*
X1179Y55D02*
Y93D01*
Y164D02*
Y205D01*
X1180Y55D02*
Y93D01*
Y164D02*
Y205D01*
X1180Y55D02*
Y94D01*
Y163D02*
Y205D01*
X1180Y55D02*
Y94D01*
Y164D02*
Y205D01*
X1181Y55D02*
Y94D01*
Y164D02*
Y205D01*
X1181Y55D02*
Y93D01*
Y164D02*
Y205D01*
X1181Y55D02*
Y93D01*
Y164D02*
Y205D01*
X1181Y55D02*
Y94D01*
Y164D02*
Y205D01*
X1182Y55D02*
Y94D01*
Y164D02*
Y205D01*
X1182Y55D02*
Y92D01*
Y165D02*
Y205D01*
X1182Y55D02*
Y92D01*
Y165D02*
Y205D01*
X1183Y55D02*
Y94D01*
Y100D02*
Y148D01*
Y164D02*
Y205D01*
X1183Y55D02*
Y94D01*
Y100D02*
Y148D01*
Y164D02*
Y205D01*
X1183Y55D02*
Y92D01*
Y99D02*
Y148D01*
Y166D02*
Y205D01*
X1184Y55D02*
Y92D01*
Y99D02*
Y148D01*
Y166D02*
Y205D01*
X1184Y55D02*
Y92D01*
Y100D02*
Y149D01*
Y166D02*
Y205D01*
X1184Y55D02*
Y92D01*
Y100D02*
Y149D01*
Y166D02*
Y205D01*
X1184Y55D02*
Y91D01*
Y99D02*
Y148D01*
Y163D02*
Y205D01*
X1185Y55D02*
Y91D01*
Y98D02*
Y148D01*
Y148D02*
Y149D01*
Y166D02*
Y205D01*
X1185Y55D02*
Y91D01*
Y98D02*
Y148D01*
Y148D02*
Y149D01*
Y166D02*
Y205D01*
X1185Y55D02*
Y91D01*
Y99D02*
Y148D01*
Y166D02*
Y205D01*
X1186Y55D02*
Y91D01*
Y99D02*
Y148D01*
Y166D02*
Y205D01*
X1186Y55D02*
Y90D01*
Y98D02*
Y148D01*
Y167D02*
Y205D01*
X1186Y55D02*
Y90D01*
Y98D02*
Y148D01*
Y167D02*
Y205D01*
X1186Y55D02*
Y91D01*
Y99D02*
Y149D01*
Y167D02*
Y205D01*
X1187Y55D02*
Y91D01*
Y99D02*
Y149D01*
Y167D02*
Y205D01*
X1187Y55D02*
Y90D01*
Y98D02*
Y149D01*
Y167D02*
Y205D01*
X1187Y55D02*
Y90D01*
Y98D02*
Y149D01*
Y167D02*
Y205D01*
X1188Y55D02*
Y89D01*
Y98D02*
Y149D01*
Y164D02*
Y205D01*
X1188Y55D02*
Y89D01*
Y98D02*
Y149D01*
Y164D02*
Y205D01*
X1188Y55D02*
Y89D01*
Y98D02*
Y149D01*
Y167D02*
Y205D01*
X1189Y55D02*
Y92D01*
Y97D02*
Y150D01*
Y168D02*
Y205D01*
X1189Y55D02*
Y92D01*
Y97D02*
Y150D01*
Y168D02*
Y205D01*
X1189Y55D02*
Y89D01*
Y97D02*
Y150D01*
Y168D02*
Y205D01*
X1189Y55D02*
Y89D01*
Y97D02*
Y150D01*
Y168D02*
Y205D01*
X1190Y55D02*
Y89D01*
Y96D02*
Y150D01*
Y168D02*
Y205D01*
X1190Y55D02*
Y89D01*
Y96D02*
Y150D01*
Y168D02*
Y205D01*
X1190Y55D02*
Y88D01*
Y97D02*
Y150D01*
Y168D02*
Y205D01*
X1191Y55D02*
Y88D01*
Y97D02*
Y150D01*
Y168D02*
Y205D01*
X1191Y55D02*
Y88D01*
Y96D02*
Y150D01*
Y168D02*
Y205D01*
X1191Y55D02*
Y88D01*
Y96D02*
Y150D01*
Y168D02*
Y205D01*
X1192Y55D02*
Y88D01*
Y97D02*
Y151D01*
Y168D02*
Y205D01*
X1192Y55D02*
Y88D01*
Y97D02*
Y151D01*
Y168D02*
Y205D01*
X1192Y55D02*
Y90D01*
Y96D02*
Y152D01*
Y169D02*
Y205D01*
X1192Y55D02*
Y90D01*
Y96D02*
Y152D01*
Y169D02*
Y205D01*
X1193Y55D02*
Y88D01*
Y96D02*
Y152D01*
Y169D02*
Y205D01*
X1193Y55D02*
Y88D01*
Y95D02*
Y152D01*
Y168D02*
Y205D01*
X1193Y55D02*
Y88D01*
Y95D02*
Y152D01*
Y168D02*
Y205D01*
X1194Y55D02*
Y87D01*
Y95D02*
Y152D01*
Y170D02*
Y205D01*
X1194Y55D02*
Y87D01*
Y95D02*
Y152D01*
Y170D02*
Y205D01*
X1194Y55D02*
Y86D01*
Y95D02*
Y152D01*
Y168D02*
Y205D01*
X1195Y55D02*
Y86D01*
Y95D02*
Y152D01*
Y168D02*
Y205D01*
X1195Y55D02*
Y86D01*
Y94D02*
Y153D01*
Y170D02*
Y205D01*
X1195Y55D02*
Y86D01*
Y94D02*
Y153D01*
Y170D02*
Y205D01*
X1196Y55D02*
Y88D01*
Y94D02*
Y152D01*
Y170D02*
Y205D01*
X1196Y55D02*
Y88D01*
Y94D02*
Y152D01*
Y170D02*
Y205D01*
X1196Y55D02*
Y86D01*
Y93D02*
Y154D01*
Y171D02*
Y205D01*
X1196Y55D02*
Y86D01*
Y93D02*
Y154D01*
Y171D02*
Y205D01*
X1197Y55D02*
Y86D01*
Y94D02*
Y153D01*
Y170D02*
Y205D01*
X1197Y55D02*
Y86D01*
Y94D02*
Y153D01*
Y170D02*
Y205D01*
X1197Y55D02*
Y85D01*
Y93D02*
Y153D01*
Y171D02*
Y205D01*
X1198Y55D02*
Y87D01*
Y94D02*
Y154D01*
Y171D02*
Y205D01*
X1198Y55D02*
Y87D01*
Y94D02*
Y154D01*
Y171D02*
Y205D01*
X1198Y55D02*
Y85D01*
Y93D02*
Y154D01*
Y172D02*
Y205D01*
X1199Y55D02*
Y85D01*
Y93D02*
Y154D01*
Y172D02*
Y205D01*
X1199Y55D02*
Y85D01*
Y93D02*
Y154D01*
Y172D02*
Y205D01*
X1199Y55D02*
Y85D01*
Y93D02*
Y154D01*
Y172D02*
Y205D01*
X1199Y55D02*
Y84D01*
Y92D02*
Y154D01*
Y171D02*
Y205D01*
X1200Y55D02*
Y84D01*
Y92D02*
Y154D01*
Y171D02*
Y205D01*
X1200Y55D02*
Y84D01*
Y93D02*
Y154D01*
Y172D02*
Y205D01*
X1200Y55D02*
Y84D01*
Y93D02*
Y154D01*
Y172D02*
Y205D01*
X1201Y55D02*
Y85D01*
Y93D02*
Y154D01*
Y172D02*
Y205D01*
X1201Y55D02*
Y85D01*
Y93D02*
Y154D01*
Y172D02*
Y205D01*
X1201Y55D02*
Y84D01*
Y92D02*
Y154D01*
Y173D02*
Y205D01*
X1202Y55D02*
Y84D01*
Y92D02*
Y154D01*
Y173D02*
Y205D01*
X1202Y55D02*
Y85D01*
Y92D02*
Y156D01*
Y173D02*
Y205D01*
X1202Y55D02*
Y84D01*
Y92D02*
Y155D01*
Y174D02*
Y205D01*
X1202Y55D02*
Y84D01*
Y92D02*
Y155D01*
Y174D02*
Y205D01*
X1203Y55D02*
Y84D01*
Y91D02*
Y156D01*
Y174D02*
Y205D01*
X1203Y55D02*
Y84D01*
Y91D02*
Y156D01*
Y174D02*
Y205D01*
X1203Y55D02*
Y83D01*
Y91D02*
Y157D01*
Y174D02*
Y205D01*
X1204Y55D02*
Y83D01*
Y91D02*
Y157D01*
Y174D02*
Y205D01*
X1204Y55D02*
Y83D01*
Y92D02*
Y155D01*
Y172D02*
Y205D01*
X1204Y55D02*
Y83D01*
Y92D02*
Y155D01*
Y172D02*
Y205D01*
X1204Y55D02*
Y83D01*
Y90D02*
Y156D01*
Y174D02*
Y205D01*
X1205Y55D02*
Y83D01*
Y90D02*
Y156D01*
Y174D02*
Y205D01*
X1205Y55D02*
Y82D01*
Y90D02*
Y157D01*
Y175D02*
Y205D01*
X1205Y55D02*
Y82D01*
Y90D02*
Y157D01*
Y175D02*
Y205D01*
X1206Y55D02*
Y83D01*
Y89D02*
Y156D01*
Y175D02*
Y205D01*
X1206Y55D02*
Y83D01*
Y90D02*
Y157D01*
Y175D02*
Y205D01*
X1206Y55D02*
Y83D01*
Y90D02*
Y157D01*
Y175D02*
Y205D01*
X1207Y55D02*
Y81D01*
Y90D02*
Y157D01*
Y176D02*
Y205D01*
X1207Y55D02*
Y81D01*
Y90D02*
Y157D01*
Y176D02*
Y205D01*
X1207Y55D02*
Y82D01*
Y90D02*
Y157D01*
Y176D02*
Y205D01*
X1207Y55D02*
Y82D01*
Y90D02*
Y157D01*
Y176D02*
Y205D01*
X1208Y55D02*
Y81D01*
Y89D02*
Y157D01*
Y175D02*
Y205D01*
X1208Y55D02*
Y81D01*
Y89D02*
Y157D01*
Y175D02*
Y205D01*
X1208Y55D02*
Y80D01*
Y89D02*
Y158D01*
Y176D02*
Y205D01*
X1209Y55D02*
Y80D01*
Y89D02*
Y158D01*
Y176D02*
Y205D01*
X1209Y55D02*
Y81D01*
Y90D02*
Y157D01*
Y175D02*
Y205D01*
X1209Y55D02*
Y81D01*
Y90D02*
Y157D01*
Y175D02*
Y205D01*
X1210Y55D02*
Y80D01*
Y89D02*
Y159D01*
Y176D02*
Y205D01*
X1210Y55D02*
Y80D01*
Y89D02*
Y159D01*
Y176D02*
Y205D01*
X1210Y55D02*
Y80D01*
Y90D02*
Y157D01*
Y177D02*
Y205D01*
X1211Y55D02*
Y79D01*
Y89D02*
Y158D01*
Y178D02*
Y205D01*
X1211Y55D02*
Y79D01*
Y89D02*
Y158D01*
Y178D02*
Y205D01*
X1211Y55D02*
Y79D01*
Y88D02*
Y157D01*
Y177D02*
Y205D01*
X1211Y55D02*
Y79D01*
Y88D02*
Y157D01*
Y177D02*
Y205D01*
X1212Y55D02*
Y79D01*
Y89D02*
Y157D01*
Y179D02*
Y205D01*
X1212Y55D02*
Y79D01*
Y89D02*
Y157D01*
Y179D02*
Y205D01*
X1212Y55D02*
Y78D01*
Y90D02*
Y157D01*
Y179D02*
Y205D01*
X1213Y55D02*
Y78D01*
Y90D02*
Y157D01*
Y179D02*
Y205D01*
X1213Y55D02*
Y79D01*
Y89D02*
Y157D01*
Y179D02*
Y205D01*
X1213Y55D02*
Y79D01*
Y89D02*
Y157D01*
Y179D02*
Y205D01*
X1214Y55D02*
Y78D01*
Y89D02*
Y157D01*
Y179D02*
Y205D01*
X1214Y55D02*
Y78D01*
Y89D02*
Y157D01*
Y179D02*
Y205D01*
X1214Y55D02*
Y78D01*
Y90D02*
Y158D01*
Y180D02*
Y205D01*
X1214Y55D02*
Y78D01*
Y90D02*
Y158D01*
Y180D02*
Y205D01*
X1215Y55D02*
Y76D01*
Y90D02*
Y157D01*
Y180D02*
Y205D01*
X1215Y55D02*
Y76D01*
Y90D02*
Y156D01*
Y181D02*
Y205D01*
X1215Y55D02*
Y76D01*
Y90D02*
Y156D01*
Y181D02*
Y205D01*
X1216Y55D02*
Y76D01*
Y91D02*
Y157D01*
Y183D02*
Y205D01*
X1216Y55D02*
Y76D01*
Y91D02*
Y157D01*
Y183D02*
Y205D01*
X1216Y55D02*
Y74D01*
Y92D02*
Y155D01*
Y183D02*
Y205D01*
X1217Y55D02*
Y74D01*
Y92D02*
Y155D01*
Y183D02*
Y205D01*
X1217Y55D02*
Y74D01*
Y92D02*
Y154D01*
Y184D02*
Y205D01*
X1217Y55D02*
Y74D01*
Y92D02*
Y154D01*
Y184D02*
Y205D01*
X1217Y55D02*
Y72D01*
Y93D02*
Y154D01*
Y184D02*
Y205D01*
X1218Y55D02*
Y72D01*
Y93D02*
Y154D01*
Y184D02*
Y205D01*
X1218Y55D02*
Y71D01*
Y95D02*
Y152D01*
Y185D02*
Y205D01*
X1218Y55D02*
Y71D01*
Y95D02*
Y152D01*
Y185D02*
Y205D01*
X1219Y55D02*
Y68D01*
Y98D02*
Y151D01*
Y189D02*
Y205D01*
X1219Y55D02*
Y68D01*
Y98D02*
Y151D01*
Y189D02*
Y205D01*
X1219Y55D02*
Y66D01*
Y103D02*
Y145D01*
Y190D02*
Y191D01*
Y191D02*
Y205D01*
X1219Y55D02*
Y67D01*
Y102D02*
Y145D01*
Y190D02*
Y191D01*
Y192D02*
Y205D01*
X1220Y55D02*
Y67D01*
Y102D02*
Y145D01*
Y190D02*
Y191D01*
Y192D02*
Y205D01*
X1220Y55D02*
Y66D01*
Y103D02*
Y145D01*
Y193D02*
Y205D01*
X1220Y55D02*
Y66D01*
Y103D02*
Y145D01*
Y193D02*
Y205D01*
X1221Y55D02*
Y66D01*
Y103D02*
Y145D01*
Y191D02*
Y205D01*
X1221Y55D02*
Y66D01*
Y103D02*
Y145D01*
Y191D02*
Y205D01*
X1221Y55D02*
Y66D01*
Y68D02*
Y101D01*
Y103D02*
Y191D01*
Y192D02*
Y205D01*
X1222Y55D02*
Y66D01*
Y68D02*
Y101D01*
Y103D02*
Y191D01*
Y192D02*
Y205D01*
X1222Y55D02*
Y205D01*
X1222Y55D02*
Y205D01*
X1222Y55D02*
Y205D01*
X1223Y55D02*
Y205D01*
X1223Y55D02*
Y205D01*
X1223Y55D02*
Y205D01*
X1224Y55D02*
Y205D01*
X1224Y55D02*
Y205D01*
X1224Y55D02*
Y205D01*
X1225Y55D02*
Y205D01*
X1225Y55D02*
Y205D01*
X1225Y55D02*
Y205D01*
X1225Y55D02*
Y205D01*
X1226Y55D02*
Y205D01*
X1226Y55D02*
Y205D01*
X1226Y55D02*
Y205D01*
X1227Y55D02*
Y205D01*
X1227Y55D02*
Y205D01*
X1227Y55D02*
Y205D01*
X1228Y55D02*
Y205D01*
X1228Y55D02*
Y205D01*
X1228Y55D02*
Y205D01*
X1229Y55D02*
Y205D01*
X1229Y55D02*
Y205D01*
X1229Y55D02*
Y205D01*
X1229Y55D02*
Y205D01*
X1230Y55D02*
Y205D01*
X1230Y55D02*
Y205D01*
X1230Y55D02*
Y205D01*
X1231Y55D02*
Y205D01*
X1231Y55D02*
Y205D01*
X1231Y55D02*
Y205D01*
X1232Y55D02*
Y205D01*
X1232Y55D02*
Y205D01*
X1232Y55D02*
Y205D01*
X1232Y55D02*
Y205D01*
X1233Y55D02*
Y205D01*
X1233Y55D02*
Y205D01*
X1233Y55D02*
Y205D01*
X1234Y55D02*
Y205D01*
X1234Y55D02*
Y205D01*
X1234Y55D02*
Y205D01*
X1235Y55D02*
Y205D01*
X1235Y55D02*
Y205D01*
X1235Y55D02*
Y205D01*
X1235Y55D02*
Y205D01*
X1236Y55D02*
Y205D01*
X1236Y55D02*
Y205D01*
X1236Y55D02*
Y205D01*
X1237Y55D02*
Y205D01*
X1237Y55D02*
Y205D01*
X1237Y55D02*
Y205D01*
X1237Y55D02*
Y205D01*
X1238Y55D02*
Y205D01*
X1238Y55D02*
Y205D01*
X1238Y55D02*
Y205D01*
D18*
X1277Y749D02*
Y749D01*
Y748D02*
Y748D01*
Y744D02*
Y748D01*
X1276Y744D02*
Y749D01*
X1276Y743D02*
Y749D01*
X1276Y742D02*
Y749D01*
X1276Y741D02*
Y749D01*
X1276Y789D02*
Y799D01*
Y741D02*
Y749D01*
X1275Y788D02*
Y801D01*
Y740D02*
Y749D01*
X1275Y787D02*
Y803D01*
Y739D02*
Y749D01*
X1275Y786D02*
Y805D01*
Y738D02*
Y748D01*
X1275Y785D02*
Y807D01*
Y738D02*
Y748D01*
X1275Y784D02*
Y808D01*
Y737D02*
Y748D01*
X1274Y783D02*
Y809D01*
Y736D02*
Y748D01*
X1274Y782D02*
Y810D01*
Y736D02*
Y747D01*
X1274Y781D02*
Y810D01*
Y735D02*
Y747D01*
X1274Y780D02*
Y811D01*
Y734D02*
Y747D01*
X1274Y779D02*
Y812D01*
Y733D02*
Y747D01*
X1273Y779D02*
Y812D01*
Y732D02*
Y746D01*
X1273Y779D02*
Y813D01*
Y730D02*
Y746D01*
X1273Y779D02*
Y814D01*
Y729D02*
Y746D01*
X1273Y779D02*
Y814D01*
Y727D02*
Y746D01*
X1273Y779D02*
Y815D01*
Y727D02*
Y745D01*
X1272Y780D02*
Y816D01*
Y726D02*
Y745D01*
X1272Y780D02*
Y816D01*
Y725D02*
Y745D01*
X1272Y781D02*
Y817D01*
Y725D02*
Y745D01*
X1272Y781D02*
Y818D01*
Y724D02*
Y744D01*
X1272Y781D02*
Y818D01*
Y724D02*
Y744D01*
X1271Y782D02*
Y819D01*
Y723D02*
Y744D01*
X1271Y782D02*
Y819D01*
Y722D02*
Y744D01*
X1271Y782D02*
Y820D01*
Y722D02*
Y744D01*
X1271Y783D02*
Y820D01*
Y721D02*
Y743D01*
X1271Y783D02*
Y821D01*
Y721D02*
Y743D01*
X1270Y783D02*
Y821D01*
Y720D02*
Y743D01*
X1270Y784D02*
Y822D01*
Y720D02*
Y743D01*
X1270Y784D02*
Y822D01*
Y720D02*
Y742D01*
X1270Y784D02*
Y822D01*
Y719D02*
Y742D01*
X1270Y785D02*
Y823D01*
Y719D02*
Y742D01*
X1269Y785D02*
Y823D01*
Y719D02*
Y742D01*
X1269Y785D02*
Y824D01*
Y718D02*
Y742D01*
X1269Y786D02*
Y824D01*
Y718D02*
Y741D01*
X1269Y786D02*
Y825D01*
Y718D02*
Y741D01*
X1269Y786D02*
Y825D01*
Y717D02*
Y741D01*
X1268Y787D02*
Y825D01*
Y717D02*
Y741D01*
X1268Y787D02*
Y826D01*
Y717D02*
Y740D01*
X1268Y787D02*
Y826D01*
Y716D02*
Y740D01*
X1268Y788D02*
Y827D01*
Y716D02*
Y740D01*
X1268Y788D02*
Y827D01*
Y716D02*
Y740D01*
X1267Y788D02*
Y827D01*
Y715D02*
Y740D01*
X1267Y789D02*
Y828D01*
Y715D02*
Y739D01*
X1267Y789D02*
Y828D01*
Y714D02*
Y739D01*
X1267Y789D02*
Y828D01*
Y714D02*
Y739D01*
X1267Y790D02*
Y829D01*
Y713D02*
Y739D01*
X1266Y790D02*
Y829D01*
Y713D02*
Y738D01*
X1266Y790D02*
Y829D01*
Y712D02*
Y738D01*
X1266Y791D02*
Y830D01*
Y712D02*
Y738D01*
X1266Y791D02*
Y830D01*
Y711D02*
Y738D01*
X1266Y791D02*
Y830D01*
Y711D02*
Y738D01*
X1265Y792D02*
Y831D01*
Y711D02*
Y737D01*
X1265Y792D02*
Y831D01*
Y711D02*
Y737D01*
X1265Y792D02*
Y831D01*
Y711D02*
Y737D01*
X1265Y793D02*
Y832D01*
Y711D02*
Y737D01*
X1265Y793D02*
Y832D01*
Y710D02*
Y737D01*
X1264Y793D02*
Y832D01*
Y710D02*
Y736D01*
X1264Y794D02*
Y833D01*
Y710D02*
Y736D01*
X1264Y794D02*
Y833D01*
Y710D02*
Y736D01*
X1264Y794D02*
Y833D01*
Y710D02*
Y736D01*
X1264Y795D02*
Y834D01*
Y710D02*
Y735D01*
X1263Y795D02*
Y834D01*
Y709D02*
Y735D01*
X1263Y795D02*
Y834D01*
Y709D02*
Y735D01*
X1263Y796D02*
Y835D01*
Y709D02*
Y735D01*
X1263Y796D02*
Y835D01*
Y709D02*
Y735D01*
X1263Y796D02*
Y835D01*
Y709D02*
Y735D01*
X1262Y797D02*
Y836D01*
Y709D02*
Y734D01*
X1262Y797D02*
Y836D01*
Y709D02*
Y734D01*
X1262Y797D02*
Y836D01*
Y708D02*
Y734D01*
X1262Y797D02*
Y837D01*
Y708D02*
Y734D01*
X1262Y798D02*
Y837D01*
Y708D02*
Y734D01*
X1261Y798D02*
Y837D01*
Y708D02*
Y734D01*
X1261Y798D02*
Y838D01*
Y708D02*
Y734D01*
X1261Y799D02*
Y838D01*
Y708D02*
Y733D01*
X1261Y799D02*
Y838D01*
Y708D02*
Y733D01*
X1261Y799D02*
Y838D01*
Y707D02*
Y733D01*
X1260Y799D02*
Y839D01*
Y707D02*
Y733D01*
X1260Y799D02*
Y839D01*
Y707D02*
Y733D01*
X1260Y800D02*
Y839D01*
Y707D02*
Y733D01*
X1260Y800D02*
Y840D01*
Y707D02*
Y732D01*
X1260Y800D02*
Y840D01*
Y707D02*
Y732D01*
X1259Y800D02*
Y840D01*
Y706D02*
Y732D01*
X1259Y800D02*
Y840D01*
Y706D02*
Y732D01*
X1259Y801D02*
Y841D01*
Y706D02*
Y732D01*
X1259Y801D02*
Y841D01*
Y706D02*
Y732D01*
X1259Y801D02*
Y841D01*
Y706D02*
Y732D01*
X1258Y801D02*
Y841D01*
Y706D02*
Y732D01*
X1258Y801D02*
Y841D01*
Y706D02*
Y732D01*
X1258Y802D02*
Y842D01*
Y705D02*
Y731D01*
X1258Y802D02*
Y842D01*
Y705D02*
Y731D01*
X1258Y802D02*
Y842D01*
Y705D02*
Y731D01*
X1257Y802D02*
Y842D01*
Y705D02*
Y731D01*
X1257Y802D02*
Y843D01*
Y705D02*
Y731D01*
X1257Y803D02*
Y843D01*
Y705D02*
Y731D01*
X1257Y803D02*
Y843D01*
Y705D02*
Y731D01*
X1257Y803D02*
Y843D01*
Y705D02*
Y731D01*
X1256Y803D02*
Y843D01*
Y704D02*
Y731D01*
X1256Y803D02*
Y844D01*
Y704D02*
Y731D01*
X1256Y804D02*
Y844D01*
Y704D02*
Y730D01*
X1256Y804D02*
Y844D01*
Y704D02*
Y730D01*
X1256Y804D02*
Y844D01*
Y704D02*
Y730D01*
X1255Y804D02*
Y845D01*
Y704D02*
Y730D01*
X1255Y804D02*
Y845D01*
Y704D02*
Y730D01*
X1255Y804D02*
Y845D01*
Y703D02*
Y730D01*
X1255Y805D02*
Y845D01*
Y703D02*
Y730D01*
X1255Y805D02*
Y846D01*
Y703D02*
Y730D01*
X1254Y805D02*
Y846D01*
Y703D02*
Y730D01*
X1254Y805D02*
Y846D01*
Y703D02*
Y730D01*
X1254Y805D02*
Y846D01*
Y703D02*
Y730D01*
X1254Y805D02*
Y846D01*
Y703D02*
Y729D01*
X1254Y806D02*
Y847D01*
Y703D02*
Y729D01*
X1253Y806D02*
Y847D01*
Y702D02*
Y729D01*
X1253Y806D02*
Y847D01*
Y702D02*
Y729D01*
X1253Y806D02*
Y847D01*
Y702D02*
Y729D01*
X1253Y806D02*
Y847D01*
Y702D02*
Y729D01*
X1253Y807D02*
Y848D01*
Y702D02*
Y729D01*
X1252Y807D02*
Y848D01*
Y702D02*
Y729D01*
X1252Y807D02*
Y848D01*
Y702D02*
Y729D01*
X1252Y807D02*
Y848D01*
Y701D02*
Y729D01*
X1252Y807D02*
Y848D01*
Y701D02*
Y729D01*
X1252Y807D02*
Y848D01*
Y701D02*
Y729D01*
X1251Y808D02*
Y848D01*
Y701D02*
Y729D01*
X1251Y808D02*
Y849D01*
Y701D02*
Y729D01*
X1251Y808D02*
Y849D01*
Y701D02*
Y729D01*
X1251Y808D02*
Y849D01*
Y701D02*
Y729D01*
X1251Y808D02*
Y849D01*
Y701D02*
Y728D01*
X1250Y808D02*
Y849D01*
Y700D02*
Y728D01*
X1250Y809D02*
Y849D01*
Y700D02*
Y728D01*
X1250Y809D02*
Y850D01*
Y700D02*
Y728D01*
X1250Y809D02*
Y850D01*
Y700D02*
Y728D01*
X1250Y809D02*
Y850D01*
Y700D02*
Y728D01*
X1249Y809D02*
Y850D01*
Y700D02*
Y728D01*
X1249Y809D02*
Y850D01*
Y700D02*
Y728D01*
X1249Y810D02*
Y850D01*
Y700D02*
Y728D01*
X1249Y810D02*
Y850D01*
Y699D02*
Y728D01*
X1249Y810D02*
Y851D01*
Y699D02*
Y728D01*
X1248Y810D02*
Y851D01*
Y699D02*
Y728D01*
X1248Y810D02*
Y851D01*
Y699D02*
Y728D01*
X1248Y810D02*
Y851D01*
Y699D02*
Y728D01*
X1248Y810D02*
Y851D01*
Y699D02*
Y728D01*
X1248Y810D02*
Y851D01*
Y699D02*
Y728D01*
X1247Y811D02*
Y852D01*
Y699D02*
Y728D01*
X1247Y811D02*
Y852D01*
Y699D02*
Y728D01*
X1247Y811D02*
Y852D01*
Y699D02*
Y727D01*
X1247Y811D02*
Y852D01*
Y699D02*
Y727D01*
X1247Y811D02*
Y852D01*
Y699D02*
Y727D01*
X1246Y811D02*
Y852D01*
Y699D02*
Y727D01*
X1246Y811D02*
Y853D01*
Y698D02*
Y727D01*
X1246Y812D02*
Y853D01*
Y698D02*
Y727D01*
X1246Y812D02*
Y853D01*
Y698D02*
Y727D01*
X1246Y812D02*
Y853D01*
Y698D02*
Y727D01*
X1245Y812D02*
Y853D01*
Y698D02*
Y727D01*
X1245Y812D02*
Y853D01*
Y698D02*
Y727D01*
X1245Y812D02*
Y853D01*
Y698D02*
Y727D01*
X1245Y812D02*
Y854D01*
Y698D02*
Y727D01*
X1245Y812D02*
Y854D01*
Y698D02*
Y727D01*
X1244Y812D02*
Y854D01*
Y698D02*
Y727D01*
X1244Y813D02*
Y854D01*
Y698D02*
Y727D01*
X1244Y813D02*
Y854D01*
Y698D02*
Y727D01*
X1244Y813D02*
Y854D01*
Y697D02*
Y727D01*
X1244Y813D02*
Y855D01*
Y697D02*
Y726D01*
X1243Y813D02*
Y855D01*
Y697D02*
Y726D01*
X1243Y813D02*
Y855D01*
Y697D02*
Y726D01*
X1243Y813D02*
Y855D01*
Y697D02*
Y726D01*
X1243Y813D02*
Y855D01*
Y697D02*
Y726D01*
X1243Y814D02*
Y855D01*
Y697D02*
Y726D01*
X1242Y814D02*
Y855D01*
Y697D02*
Y726D01*
X1242Y814D02*
Y856D01*
Y697D02*
Y726D01*
X1242Y814D02*
Y856D01*
Y697D02*
Y726D01*
X1242Y814D02*
Y856D01*
Y696D02*
Y726D01*
X1242Y814D02*
Y856D01*
Y696D02*
Y726D01*
X1241Y814D02*
Y856D01*
Y696D02*
Y726D01*
X1241Y815D02*
Y856D01*
Y696D02*
Y726D01*
X1241Y815D02*
Y856D01*
Y696D02*
Y726D01*
X1241Y815D02*
Y857D01*
Y696D02*
Y726D01*
X1241Y815D02*
Y857D01*
Y696D02*
Y726D01*
X1240Y815D02*
Y857D01*
Y696D02*
Y726D01*
X1240Y815D02*
Y857D01*
Y696D02*
Y726D01*
X1240Y815D02*
Y857D01*
Y696D02*
Y725D01*
X1240Y815D02*
Y857D01*
Y695D02*
Y725D01*
X1240Y815D02*
Y857D01*
Y695D02*
Y725D01*
X1239Y816D02*
Y857D01*
Y695D02*
Y725D01*
X1239Y816D02*
Y858D01*
Y695D02*
Y725D01*
X1239Y816D02*
Y858D01*
Y695D02*
Y725D01*
X1239Y816D02*
Y858D01*
Y695D02*
Y725D01*
X1239Y816D02*
Y858D01*
Y695D02*
Y725D01*
X1238Y816D02*
Y858D01*
Y695D02*
Y725D01*
X1238Y816D02*
Y858D01*
Y695D02*
Y725D01*
X1238Y816D02*
Y858D01*
Y695D02*
Y725D01*
X1238Y817D02*
Y858D01*
Y695D02*
Y725D01*
X1238Y817D02*
Y859D01*
Y695D02*
Y725D01*
X1237Y817D02*
Y859D01*
Y695D02*
Y725D01*
X1237Y817D02*
Y859D01*
Y694D02*
Y725D01*
X1237Y817D02*
Y859D01*
Y694D02*
Y725D01*
X1237Y817D02*
Y859D01*
Y694D02*
Y725D01*
X1237Y817D02*
Y859D01*
Y694D02*
Y725D01*
X1236Y817D02*
Y859D01*
Y694D02*
Y725D01*
X1236Y817D02*
Y859D01*
Y694D02*
Y725D01*
X1236Y817D02*
Y859D01*
Y694D02*
Y724D01*
X1236Y818D02*
Y860D01*
Y794D02*
Y794D01*
Y694D02*
Y724D01*
X1236Y818D02*
Y860D01*
Y793D02*
Y794D01*
Y694D02*
Y724D01*
X1235Y818D02*
Y860D01*
Y793D02*
Y794D01*
Y694D02*
Y724D01*
X1235Y818D02*
Y860D01*
Y793D02*
Y795D01*
Y694D02*
Y724D01*
X1235Y818D02*
Y860D01*
Y793D02*
Y795D01*
Y694D02*
Y724D01*
X1235Y818D02*
Y860D01*
Y793D02*
Y795D01*
Y694D02*
Y724D01*
X1235Y818D02*
Y860D01*
Y793D02*
Y795D01*
Y694D02*
Y724D01*
X1234Y818D02*
Y860D01*
Y794D02*
Y795D01*
Y694D02*
Y724D01*
X1234Y818D02*
Y860D01*
Y794D02*
Y795D01*
Y694D02*
Y724D01*
X1234Y818D02*
Y860D01*
Y794D02*
Y795D01*
Y694D02*
Y724D01*
X1234Y818D02*
Y860D01*
Y794D02*
Y796D01*
Y694D02*
Y724D01*
X1234Y818D02*
Y860D01*
Y794D02*
Y796D01*
Y694D02*
Y724D01*
X1233Y818D02*
Y860D01*
Y794D02*
Y796D01*
Y694D02*
Y724D01*
X1233Y818D02*
Y860D01*
Y794D02*
Y796D01*
Y694D02*
Y724D01*
X1233Y818D02*
Y860D01*
Y794D02*
Y796D01*
Y694D02*
Y724D01*
X1233Y818D02*
Y860D01*
Y794D02*
Y796D01*
Y694D02*
Y724D01*
X1233Y818D02*
Y860D01*
Y794D02*
Y797D01*
Y694D02*
Y724D01*
X1232Y819D02*
Y860D01*
Y794D02*
Y797D01*
Y694D02*
Y724D01*
X1232Y819D02*
Y860D01*
Y794D02*
Y797D01*
Y694D02*
Y724D01*
X1232Y819D02*
Y861D01*
Y794D02*
Y797D01*
Y694D02*
Y724D01*
X1232Y819D02*
Y861D01*
Y794D02*
Y797D01*
Y694D02*
Y724D01*
X1232Y819D02*
Y861D01*
Y794D02*
Y797D01*
Y694D02*
Y724D01*
X1231Y819D02*
Y861D01*
Y794D02*
Y797D01*
Y694D02*
Y724D01*
X1231Y819D02*
Y861D01*
Y795D02*
Y798D01*
Y694D02*
Y724D01*
X1231Y819D02*
Y861D01*
Y795D02*
Y798D01*
Y694D02*
Y724D01*
X1231Y819D02*
Y861D01*
Y795D02*
Y798D01*
Y694D02*
Y724D01*
X1231Y819D02*
Y861D01*
Y795D02*
Y798D01*
Y694D02*
Y724D01*
X1230Y819D02*
Y861D01*
Y795D02*
Y798D01*
Y694D02*
Y724D01*
X1230Y819D02*
Y861D01*
Y795D02*
Y798D01*
Y694D02*
Y724D01*
X1230Y819D02*
Y861D01*
Y795D02*
Y799D01*
Y747D02*
Y748D01*
Y694D02*
Y724D01*
X1230Y819D02*
Y861D01*
Y795D02*
Y799D01*
Y747D02*
Y748D01*
Y694D02*
Y724D01*
X1230Y819D02*
Y861D01*
Y795D02*
Y799D01*
Y747D02*
Y748D01*
Y694D02*
Y724D01*
X1229Y819D02*
Y862D01*
Y795D02*
Y799D01*
Y747D02*
Y748D01*
Y694D02*
Y724D01*
X1229Y819D02*
Y862D01*
Y795D02*
Y799D01*
Y746D02*
Y748D01*
Y694D02*
Y724D01*
X1229Y820D02*
Y862D01*
Y795D02*
Y799D01*
Y746D02*
Y748D01*
Y694D02*
Y724D01*
X1229Y820D02*
Y862D01*
Y795D02*
Y799D01*
Y746D02*
Y748D01*
Y694D02*
Y724D01*
X1229Y820D02*
Y862D01*
Y795D02*
Y800D01*
Y746D02*
Y748D01*
Y694D02*
Y724D01*
X1228Y820D02*
Y862D01*
Y795D02*
Y800D01*
Y746D02*
Y748D01*
Y694D02*
Y724D01*
X1228Y820D02*
Y862D01*
Y795D02*
Y800D01*
Y746D02*
Y748D01*
Y694D02*
Y724D01*
X1228Y820D02*
Y862D01*
Y795D02*
Y800D01*
Y746D02*
Y748D01*
Y694D02*
Y724D01*
X1228Y820D02*
Y862D01*
Y796D02*
Y800D01*
Y746D02*
Y748D01*
Y694D02*
Y724D01*
X1228Y820D02*
Y862D01*
Y796D02*
Y800D01*
Y745D02*
Y748D01*
Y694D02*
Y724D01*
X1227Y820D02*
Y862D01*
Y796D02*
Y801D01*
Y745D02*
Y748D01*
Y694D02*
Y724D01*
X1227Y820D02*
Y862D01*
Y796D02*
Y801D01*
Y745D02*
Y748D01*
Y694D02*
Y724D01*
X1227Y820D02*
Y862D01*
Y796D02*
Y801D01*
Y745D02*
Y748D01*
Y694D02*
Y724D01*
X1227Y820D02*
Y863D01*
Y796D02*
Y801D01*
Y745D02*
Y748D01*
Y694D02*
Y724D01*
X1227Y820D02*
Y863D01*
Y796D02*
Y801D01*
Y745D02*
Y748D01*
Y694D02*
Y724D01*
X1226Y820D02*
Y863D01*
Y796D02*
Y801D01*
Y745D02*
Y747D01*
Y694D02*
Y724D01*
X1226Y820D02*
Y863D01*
Y796D02*
Y801D01*
Y745D02*
Y747D01*
Y694D02*
Y724D01*
X1226Y820D02*
Y863D01*
Y796D02*
Y802D01*
Y745D02*
Y747D01*
Y694D02*
Y724D01*
X1226Y820D02*
Y863D01*
Y796D02*
Y802D01*
Y744D02*
Y747D01*
Y694D02*
Y724D01*
X1226Y821D02*
Y863D01*
Y796D02*
Y802D01*
Y744D02*
Y747D01*
Y694D02*
Y724D01*
X1225Y821D02*
Y863D01*
Y796D02*
Y802D01*
Y744D02*
Y747D01*
Y694D02*
Y724D01*
X1225Y821D02*
Y863D01*
Y796D02*
Y802D01*
Y744D02*
Y747D01*
Y694D02*
Y724D01*
X1225Y821D02*
Y863D01*
Y796D02*
Y802D01*
Y744D02*
Y747D01*
Y694D02*
Y724D01*
X1225Y821D02*
Y863D01*
Y796D02*
Y803D01*
Y744D02*
Y747D01*
Y694D02*
Y724D01*
X1225Y821D02*
Y863D01*
Y796D02*
Y803D01*
Y744D02*
Y747D01*
Y694D02*
Y724D01*
X1224Y821D02*
Y863D01*
Y796D02*
Y803D01*
Y744D02*
Y747D01*
Y694D02*
Y724D01*
X1224Y821D02*
Y863D01*
Y796D02*
Y803D01*
Y743D02*
Y747D01*
Y694D02*
Y724D01*
X1224Y821D02*
Y863D01*
Y796D02*
Y803D01*
Y743D02*
Y747D01*
Y694D02*
Y724D01*
X1224Y821D02*
Y863D01*
Y796D02*
Y803D01*
Y743D02*
Y747D01*
Y694D02*
Y724D01*
X1224Y821D02*
Y863D01*
Y796D02*
Y803D01*
Y743D02*
Y747D01*
Y694D02*
Y724D01*
X1223Y821D02*
Y863D01*
Y796D02*
Y804D01*
Y743D02*
Y747D01*
Y694D02*
Y724D01*
X1223Y821D02*
Y863D01*
Y796D02*
Y804D01*
Y743D02*
Y747D01*
Y694D02*
Y724D01*
X1223Y821D02*
Y863D01*
Y796D02*
Y804D01*
Y743D02*
Y747D01*
Y694D02*
Y724D01*
X1223Y821D02*
Y863D01*
Y796D02*
Y804D01*
Y743D02*
Y747D01*
Y694D02*
Y724D01*
X1223Y821D02*
Y863D01*
Y796D02*
Y804D01*
Y743D02*
Y747D01*
Y694D02*
Y723D01*
X1222Y821D02*
Y864D01*
Y796D02*
Y804D01*
Y742D02*
Y747D01*
Y694D02*
Y723D01*
X1222Y822D02*
Y864D01*
Y796D02*
Y805D01*
Y742D02*
Y747D01*
Y694D02*
Y723D01*
X1222Y822D02*
Y864D01*
Y796D02*
Y805D01*
Y742D02*
Y747D01*
Y694D02*
Y723D01*
X1222Y822D02*
Y864D01*
Y797D02*
Y805D01*
Y742D02*
Y747D01*
Y694D02*
Y723D01*
X1222Y822D02*
Y864D01*
Y797D02*
Y805D01*
Y742D02*
Y747D01*
Y694D02*
Y723D01*
X1221Y822D02*
Y864D01*
Y797D02*
Y805D01*
Y742D02*
Y747D01*
Y694D02*
Y723D01*
X1221Y822D02*
Y864D01*
Y797D02*
Y805D01*
Y742D02*
Y747D01*
Y694D02*
Y723D01*
X1221Y822D02*
Y864D01*
Y797D02*
Y805D01*
Y742D02*
Y747D01*
Y694D02*
Y723D01*
X1221Y822D02*
Y864D01*
Y797D02*
Y806D01*
Y742D02*
Y746D01*
Y694D02*
Y723D01*
X1221Y822D02*
Y864D01*
Y797D02*
Y806D01*
Y741D02*
Y746D01*
Y694D02*
Y723D01*
X1220Y822D02*
Y864D01*
Y797D02*
Y806D01*
Y741D02*
Y746D01*
Y694D02*
Y723D01*
X1220Y822D02*
Y864D01*
Y797D02*
Y806D01*
Y741D02*
Y746D01*
Y694D02*
Y723D01*
X1220Y822D02*
Y864D01*
Y797D02*
Y806D01*
Y741D02*
Y746D01*
Y694D02*
Y723D01*
X1220Y822D02*
Y864D01*
Y797D02*
Y806D01*
Y741D02*
Y746D01*
Y694D02*
Y723D01*
X1220Y822D02*
Y864D01*
Y797D02*
Y807D01*
Y773D02*
Y773D01*
Y741D02*
Y746D01*
Y694D02*
Y723D01*
X1219Y822D02*
Y864D01*
Y797D02*
Y807D01*
Y773D02*
Y773D01*
Y741D02*
Y746D01*
Y694D02*
Y723D01*
X1219Y822D02*
Y864D01*
Y797D02*
Y807D01*
Y773D02*
Y774D01*
Y741D02*
Y746D01*
Y694D02*
Y723D01*
X1219Y822D02*
Y864D01*
Y797D02*
Y807D01*
Y772D02*
Y774D01*
Y740D02*
Y746D01*
Y694D02*
Y723D01*
X1219Y822D02*
Y864D01*
Y797D02*
Y807D01*
Y772D02*
Y773D01*
Y740D02*
Y746D01*
Y694D02*
Y723D01*
X1219Y822D02*
Y864D01*
Y797D02*
Y807D01*
Y772D02*
Y773D01*
Y740D02*
Y746D01*
Y693D02*
Y723D01*
X1218Y822D02*
Y864D01*
Y797D02*
Y807D01*
Y772D02*
Y773D01*
Y740D02*
Y746D01*
Y693D02*
Y723D01*
X1218Y822D02*
Y864D01*
Y797D02*
Y808D01*
Y772D02*
Y773D01*
Y740D02*
Y746D01*
Y693D02*
Y723D01*
X1218Y823D02*
Y864D01*
Y797D02*
Y808D01*
Y771D02*
Y773D01*
Y740D02*
Y746D01*
Y693D02*
Y723D01*
X1218Y823D02*
Y864D01*
Y797D02*
Y808D01*
Y771D02*
Y773D01*
Y740D02*
Y746D01*
Y693D02*
Y723D01*
X1218Y823D02*
Y864D01*
Y797D02*
Y808D01*
Y771D02*
Y773D01*
Y740D02*
Y746D01*
Y693D02*
Y723D01*
X1217Y823D02*
Y864D01*
Y797D02*
Y808D01*
Y771D02*
Y773D01*
Y740D02*
Y746D01*
Y693D02*
Y723D01*
X1217Y823D02*
Y865D01*
Y797D02*
Y808D01*
Y771D02*
Y773D01*
Y739D02*
Y746D01*
Y693D02*
Y723D01*
X1217Y823D02*
Y865D01*
Y797D02*
Y809D01*
Y770D02*
Y773D01*
Y739D02*
Y746D01*
Y693D02*
Y723D01*
X1217Y823D02*
Y865D01*
Y797D02*
Y809D01*
Y770D02*
Y773D01*
Y739D02*
Y746D01*
Y693D02*
Y723D01*
X1217Y823D02*
Y865D01*
Y797D02*
Y809D01*
Y770D02*
Y773D01*
Y739D02*
Y746D01*
Y693D02*
Y723D01*
X1216Y823D02*
Y865D01*
Y797D02*
Y809D01*
Y770D02*
Y773D01*
Y739D02*
Y745D01*
Y693D02*
Y723D01*
X1216Y823D02*
Y865D01*
Y797D02*
Y809D01*
Y770D02*
Y773D01*
Y739D02*
Y745D01*
Y693D02*
Y723D01*
X1216Y823D02*
Y865D01*
Y797D02*
Y809D01*
Y769D02*
Y773D01*
Y739D02*
Y745D01*
Y693D02*
Y723D01*
X1216Y823D02*
Y865D01*
Y797D02*
Y809D01*
Y769D02*
Y773D01*
Y739D02*
Y745D01*
Y693D02*
Y723D01*
X1216Y823D02*
Y865D01*
Y797D02*
Y810D01*
Y769D02*
Y773D01*
Y739D02*
Y745D01*
Y693D02*
Y723D01*
X1215Y823D02*
Y865D01*
Y797D02*
Y810D01*
Y769D02*
Y773D01*
Y738D02*
Y745D01*
Y693D02*
Y723D01*
X1215Y823D02*
Y865D01*
Y797D02*
Y810D01*
Y769D02*
Y773D01*
Y738D02*
Y745D01*
Y693D02*
Y723D01*
X1215Y823D02*
Y865D01*
Y797D02*
Y810D01*
Y768D02*
Y773D01*
Y738D02*
Y745D01*
Y693D02*
Y723D01*
X1215Y823D02*
Y865D01*
Y797D02*
Y810D01*
Y768D02*
Y773D01*
Y738D02*
Y745D01*
Y693D02*
Y723D01*
X1215Y823D02*
Y865D01*
Y797D02*
Y810D01*
Y768D02*
Y773D01*
Y738D02*
Y745D01*
Y693D02*
Y723D01*
X1214Y823D02*
Y865D01*
Y797D02*
Y811D01*
Y768D02*
Y773D01*
Y738D02*
Y745D01*
Y693D02*
Y723D01*
X1214Y823D02*
Y865D01*
Y797D02*
Y811D01*
Y768D02*
Y773D01*
Y738D02*
Y745D01*
Y693D02*
Y723D01*
X1214Y823D02*
Y865D01*
Y797D02*
Y811D01*
Y767D02*
Y773D01*
Y738D02*
Y745D01*
Y693D02*
Y723D01*
X1214Y823D02*
Y865D01*
Y797D02*
Y811D01*
Y767D02*
Y773D01*
Y737D02*
Y744D01*
Y693D02*
Y723D01*
X1214Y823D02*
Y865D01*
Y797D02*
Y811D01*
Y767D02*
Y773D01*
Y737D02*
Y744D01*
Y693D02*
Y723D01*
X1213Y823D02*
Y865D01*
Y797D02*
Y811D01*
Y767D02*
Y773D01*
Y737D02*
Y744D01*
Y693D02*
Y723D01*
X1213Y823D02*
Y865D01*
Y797D02*
Y811D01*
Y767D02*
Y773D01*
Y737D02*
Y744D01*
Y693D02*
Y723D01*
X1213Y823D02*
Y865D01*
Y797D02*
Y812D01*
Y767D02*
Y773D01*
Y737D02*
Y744D01*
Y693D02*
Y723D01*
X1213Y823D02*
Y865D01*
Y797D02*
Y812D01*
Y767D02*
Y773D01*
Y737D02*
Y744D01*
Y693D02*
Y723D01*
X1213Y823D02*
Y865D01*
Y797D02*
Y812D01*
Y767D02*
Y773D01*
Y737D02*
Y744D01*
Y693D02*
Y723D01*
X1212Y824D02*
Y865D01*
Y798D02*
Y812D01*
Y766D02*
Y773D01*
Y737D02*
Y744D01*
Y693D02*
Y723D01*
X1212Y824D02*
Y865D01*
Y798D02*
Y812D01*
Y766D02*
Y773D01*
Y737D02*
Y744D01*
Y693D02*
Y723D01*
X1212Y824D02*
Y865D01*
Y798D02*
Y812D01*
Y766D02*
Y773D01*
Y736D02*
Y744D01*
Y693D02*
Y723D01*
X1212Y824D02*
Y865D01*
Y798D02*
Y813D01*
Y766D02*
Y773D01*
Y736D02*
Y744D01*
Y693D02*
Y723D01*
X1212Y847D02*
Y865D01*
Y824D02*
Y847D01*
Y798D02*
Y813D01*
Y766D02*
Y773D01*
Y736D02*
Y744D01*
Y693D02*
Y723D01*
X1211Y847D02*
Y865D01*
Y824D02*
Y847D01*
Y798D02*
Y813D01*
Y766D02*
Y773D01*
Y736D02*
Y744D01*
Y693D02*
Y723D01*
X1211Y847D02*
Y865D01*
Y824D02*
Y847D01*
Y798D02*
Y813D01*
Y766D02*
Y773D01*
Y736D02*
Y744D01*
Y693D02*
Y723D01*
X1211Y848D02*
Y865D01*
Y824D02*
Y847D01*
Y798D02*
Y813D01*
Y766D02*
Y773D01*
Y736D02*
Y744D01*
Y693D02*
Y724D01*
X1211Y848D02*
Y865D01*
Y824D02*
Y847D01*
Y798D02*
Y813D01*
Y766D02*
Y773D01*
Y736D02*
Y744D01*
Y693D02*
Y724D01*
X1211Y848D02*
Y865D01*
Y824D02*
Y847D01*
Y798D02*
Y813D01*
Y766D02*
Y773D01*
Y736D02*
Y744D01*
Y693D02*
Y724D01*
X1210Y848D02*
Y865D01*
Y824D02*
Y847D01*
Y798D02*
Y814D01*
Y765D02*
Y773D01*
Y736D02*
Y744D01*
Y693D02*
Y724D01*
X1210Y848D02*
Y865D01*
Y824D02*
Y847D01*
Y798D02*
Y814D01*
Y765D02*
Y773D01*
Y736D02*
Y744D01*
Y693D02*
Y724D01*
X1210Y848D02*
Y865D01*
Y824D02*
Y847D01*
Y798D02*
Y814D01*
Y765D02*
Y773D01*
Y736D02*
Y744D01*
Y693D02*
Y724D01*
X1210Y849D02*
Y865D01*
Y824D02*
Y847D01*
Y798D02*
Y814D01*
Y765D02*
Y773D01*
Y736D02*
Y744D01*
Y693D02*
Y724D01*
X1210Y849D02*
Y865D01*
Y824D02*
Y847D01*
Y798D02*
Y814D01*
Y765D02*
Y773D01*
Y736D02*
Y744D01*
Y693D02*
Y724D01*
X1209Y849D02*
Y865D01*
Y824D02*
Y847D01*
Y798D02*
Y814D01*
Y765D02*
Y773D01*
Y736D02*
Y744D01*
Y693D02*
Y724D01*
X1209Y849D02*
Y865D01*
Y824D02*
Y848D01*
Y798D02*
Y815D01*
Y765D02*
Y773D01*
Y736D02*
Y744D01*
Y693D02*
Y724D01*
X1209Y849D02*
Y865D01*
Y824D02*
Y848D01*
Y798D02*
Y815D01*
Y765D02*
Y773D01*
Y736D02*
Y744D01*
Y693D02*
Y724D01*
X1209Y849D02*
Y865D01*
Y824D02*
Y848D01*
Y798D02*
Y815D01*
Y764D02*
Y773D01*
Y736D02*
Y744D01*
Y693D02*
Y724D01*
X1209Y850D02*
Y865D01*
Y824D02*
Y848D01*
Y798D02*
Y815D01*
Y764D02*
Y773D01*
Y736D02*
Y744D01*
Y693D02*
Y724D01*
X1208Y850D02*
Y865D01*
Y824D02*
Y848D01*
Y798D02*
Y815D01*
Y764D02*
Y773D01*
Y736D02*
Y744D01*
Y693D02*
Y724D01*
X1208Y850D02*
Y865D01*
Y824D02*
Y848D01*
Y798D02*
Y815D01*
Y764D02*
Y773D01*
Y736D02*
Y744D01*
Y693D02*
Y724D01*
X1208Y850D02*
Y865D01*
Y825D02*
Y848D01*
Y798D02*
Y815D01*
Y764D02*
Y773D01*
Y736D02*
Y744D01*
Y693D02*
Y724D01*
X1208Y850D02*
Y865D01*
Y825D02*
Y848D01*
Y798D02*
Y816D01*
Y764D02*
Y773D01*
Y736D02*
Y744D01*
Y693D02*
Y724D01*
X1208Y851D02*
Y865D01*
Y825D02*
Y848D01*
Y798D02*
Y816D01*
Y764D02*
Y773D01*
Y735D02*
Y744D01*
Y693D02*
Y724D01*
X1207Y851D02*
Y865D01*
Y825D02*
Y848D01*
Y798D02*
Y816D01*
Y764D02*
Y773D01*
Y735D02*
Y744D01*
Y693D02*
Y724D01*
X1207Y851D02*
Y865D01*
Y825D02*
Y848D01*
Y798D02*
Y816D01*
Y763D02*
Y773D01*
Y735D02*
Y744D01*
Y693D02*
Y724D01*
X1207Y851D02*
Y865D01*
Y825D02*
Y848D01*
Y798D02*
Y816D01*
Y763D02*
Y773D01*
Y735D02*
Y744D01*
Y693D02*
Y724D01*
X1207Y851D02*
Y865D01*
Y825D02*
Y848D01*
Y798D02*
Y816D01*
Y763D02*
Y773D01*
Y735D02*
Y744D01*
Y693D02*
Y724D01*
X1207Y851D02*
Y865D01*
Y825D02*
Y848D01*
Y798D02*
Y817D01*
Y763D02*
Y773D01*
Y735D02*
Y744D01*
Y693D02*
Y724D01*
X1206Y852D02*
Y865D01*
Y825D02*
Y848D01*
Y798D02*
Y817D01*
Y763D02*
Y773D01*
Y735D02*
Y744D01*
Y693D02*
Y724D01*
X1206Y852D02*
Y865D01*
Y825D02*
Y848D01*
Y798D02*
Y817D01*
Y763D02*
Y773D01*
Y735D02*
Y744D01*
Y693D02*
Y724D01*
X1206Y852D02*
Y865D01*
Y825D02*
Y848D01*
Y798D02*
Y817D01*
Y763D02*
Y773D01*
Y735D02*
Y744D01*
Y693D02*
Y724D01*
X1206Y852D02*
Y865D01*
Y825D02*
Y848D01*
Y798D02*
Y817D01*
Y763D02*
Y773D01*
Y735D02*
Y744D01*
Y693D02*
Y724D01*
X1206Y852D02*
Y865D01*
Y825D02*
Y848D01*
Y798D02*
Y817D01*
Y763D02*
Y773D01*
Y735D02*
Y744D01*
Y693D02*
Y724D01*
X1205Y852D02*
Y865D01*
Y825D02*
Y849D01*
Y798D02*
Y818D01*
Y763D02*
Y773D01*
Y735D02*
Y744D01*
Y693D02*
Y724D01*
X1205Y853D02*
Y865D01*
Y825D02*
Y849D01*
Y798D02*
Y818D01*
Y763D02*
Y773D01*
Y735D02*
Y744D01*
Y693D02*
Y724D01*
X1205Y853D02*
Y865D01*
Y825D02*
Y849D01*
Y798D02*
Y818D01*
Y763D02*
Y773D01*
Y735D02*
Y744D01*
Y693D02*
Y724D01*
X1205Y853D02*
Y865D01*
Y825D02*
Y849D01*
Y798D02*
Y818D01*
Y763D02*
Y773D01*
Y735D02*
Y744D01*
Y693D02*
Y724D01*
X1205Y853D02*
Y865D01*
Y826D02*
Y849D01*
Y798D02*
Y818D01*
Y763D02*
Y773D01*
Y735D02*
Y744D01*
Y693D02*
Y724D01*
X1204Y853D02*
Y865D01*
Y826D02*
Y849D01*
Y798D02*
Y819D01*
Y763D02*
Y773D01*
Y735D02*
Y744D01*
Y693D02*
Y724D01*
X1204Y854D02*
Y865D01*
Y826D02*
Y849D01*
Y798D02*
Y819D01*
Y763D02*
Y773D01*
Y735D02*
Y744D01*
Y693D02*
Y724D01*
X1204Y854D02*
Y865D01*
Y826D02*
Y849D01*
Y798D02*
Y819D01*
Y763D02*
Y773D01*
Y735D02*
Y744D01*
Y693D02*
Y724D01*
X1204Y854D02*
Y865D01*
Y826D02*
Y849D01*
Y798D02*
Y819D01*
Y763D02*
Y773D01*
Y735D02*
Y744D01*
Y693D02*
Y724D01*
X1204Y854D02*
Y865D01*
Y826D02*
Y849D01*
Y798D02*
Y819D01*
Y762D02*
Y773D01*
Y735D02*
Y744D01*
Y693D02*
Y724D01*
X1203Y854D02*
Y865D01*
Y826D02*
Y849D01*
Y798D02*
Y819D01*
Y762D02*
Y773D01*
Y735D02*
Y744D01*
Y693D02*
Y724D01*
X1203Y854D02*
Y865D01*
Y826D02*
Y849D01*
Y798D02*
Y820D01*
Y762D02*
Y773D01*
Y735D02*
Y744D01*
Y693D02*
Y724D01*
X1203Y854D02*
Y865D01*
Y826D02*
Y849D01*
Y798D02*
Y820D01*
Y762D02*
Y774D01*
Y735D02*
Y744D01*
Y693D02*
Y724D01*
X1203Y854D02*
Y865D01*
Y826D02*
Y849D01*
Y798D02*
Y820D01*
Y762D02*
Y774D01*
Y735D02*
Y744D01*
Y693D02*
Y724D01*
X1203Y855D02*
Y865D01*
Y826D02*
Y849D01*
Y798D02*
Y820D01*
Y762D02*
Y774D01*
Y734D02*
Y744D01*
Y693D02*
Y724D01*
X1202Y855D02*
Y865D01*
Y826D02*
Y849D01*
Y798D02*
Y820D01*
Y762D02*
Y774D01*
Y734D02*
Y744D01*
Y693D02*
Y724D01*
X1202Y855D02*
Y865D01*
Y826D02*
Y849D01*
Y798D02*
Y820D01*
Y762D02*
Y774D01*
Y734D02*
Y744D01*
Y693D02*
Y724D01*
X1202Y855D02*
Y865D01*
Y826D02*
Y849D01*
Y798D02*
Y821D01*
Y762D02*
Y774D01*
Y734D02*
Y744D01*
Y693D02*
Y724D01*
X1202Y855D02*
Y865D01*
Y826D02*
Y850D01*
Y798D02*
Y821D01*
Y762D02*
Y774D01*
Y734D02*
Y744D01*
Y693D02*
Y724D01*
X1202Y855D02*
Y865D01*
Y826D02*
Y850D01*
Y798D02*
Y821D01*
Y762D02*
Y774D01*
Y734D02*
Y744D01*
Y693D02*
Y724D01*
X1201Y855D02*
Y865D01*
Y826D02*
Y850D01*
Y798D02*
Y821D01*
Y762D02*
Y774D01*
Y734D02*
Y744D01*
Y693D02*
Y724D01*
X1201Y855D02*
Y865D01*
Y827D02*
Y850D01*
Y798D02*
Y821D01*
Y762D02*
Y774D01*
Y734D02*
Y744D01*
Y693D02*
Y724D01*
X1201Y855D02*
Y865D01*
Y827D02*
Y850D01*
Y798D02*
Y822D01*
Y762D02*
Y774D01*
Y734D02*
Y744D01*
Y693D02*
Y724D01*
X1201Y855D02*
Y865D01*
Y827D02*
Y850D01*
Y798D02*
Y822D01*
Y762D02*
Y774D01*
Y734D02*
Y744D01*
Y693D02*
Y724D01*
X1201Y856D02*
Y865D01*
Y827D02*
Y850D01*
Y798D02*
Y822D01*
Y762D02*
Y774D01*
Y734D02*
Y744D01*
Y693D02*
Y724D01*
X1200Y856D02*
Y865D01*
Y827D02*
Y850D01*
Y798D02*
Y822D01*
Y762D02*
Y774D01*
Y734D02*
Y744D01*
Y693D02*
Y724D01*
X1200Y856D02*
Y865D01*
Y827D02*
Y850D01*
Y798D02*
Y822D01*
Y762D02*
Y774D01*
Y734D02*
Y744D01*
Y693D02*
Y724D01*
X1200Y856D02*
Y865D01*
Y827D02*
Y850D01*
Y798D02*
Y822D01*
Y762D02*
Y774D01*
Y734D02*
Y744D01*
Y693D02*
Y724D01*
X1200Y856D02*
Y865D01*
Y827D02*
Y850D01*
Y798D02*
Y823D01*
Y762D02*
Y774D01*
Y734D02*
Y744D01*
Y693D02*
Y724D01*
X1200Y856D02*
Y865D01*
Y827D02*
Y850D01*
Y798D02*
Y823D01*
Y762D02*
Y774D01*
Y734D02*
Y744D01*
Y693D02*
Y724D01*
X1199Y856D02*
Y865D01*
Y827D02*
Y850D01*
Y798D02*
Y823D01*
Y762D02*
Y774D01*
Y734D02*
Y744D01*
Y693D02*
Y724D01*
X1199Y856D02*
Y865D01*
Y827D02*
Y850D01*
Y798D02*
Y823D01*
Y762D02*
Y774D01*
Y734D02*
Y744D01*
Y693D02*
Y724D01*
X1199Y856D02*
Y865D01*
Y827D02*
Y850D01*
Y798D02*
Y823D01*
Y762D02*
Y774D01*
Y733D02*
Y744D01*
Y693D02*
Y725D01*
X1199Y856D02*
Y865D01*
Y827D02*
Y850D01*
Y798D02*
Y823D01*
Y761D02*
Y774D01*
Y733D02*
Y744D01*
Y693D02*
Y725D01*
X1199Y857D02*
Y865D01*
Y827D02*
Y850D01*
Y798D02*
Y824D01*
Y761D02*
Y775D01*
Y733D02*
Y744D01*
Y693D02*
Y725D01*
X1198Y857D02*
Y865D01*
Y827D02*
Y850D01*
Y798D02*
Y824D01*
Y761D02*
Y775D01*
Y733D02*
Y744D01*
Y693D02*
Y725D01*
X1198Y857D02*
Y865D01*
Y827D02*
Y850D01*
Y798D02*
Y824D01*
Y761D02*
Y775D01*
Y733D02*
Y744D01*
Y693D02*
Y725D01*
X1198Y857D02*
Y865D01*
Y828D02*
Y850D01*
Y798D02*
Y824D01*
Y761D02*
Y775D01*
Y733D02*
Y744D01*
Y693D02*
Y725D01*
X1198Y857D02*
Y865D01*
Y828D02*
Y850D01*
Y798D02*
Y824D01*
Y761D02*
Y775D01*
Y733D02*
Y744D01*
Y693D02*
Y725D01*
X1198Y857D02*
Y865D01*
Y828D02*
Y850D01*
Y798D02*
Y825D01*
Y761D02*
Y775D01*
Y733D02*
Y744D01*
Y693D02*
Y725D01*
X1197Y857D02*
Y864D01*
Y828D02*
Y850D01*
Y798D02*
Y825D01*
Y761D02*
Y775D01*
Y733D02*
Y744D01*
Y693D02*
Y725D01*
X1197Y857D02*
Y864D01*
Y828D02*
Y850D01*
Y798D02*
Y825D01*
Y761D02*
Y775D01*
Y733D02*
Y744D01*
Y693D02*
Y725D01*
X1197Y857D02*
Y864D01*
Y828D02*
Y850D01*
Y798D02*
Y825D01*
Y761D02*
Y775D01*
Y733D02*
Y744D01*
Y693D02*
Y725D01*
X1197Y857D02*
Y864D01*
Y828D02*
Y850D01*
Y798D02*
Y825D01*
Y761D02*
Y775D01*
Y733D02*
Y744D01*
Y692D02*
Y725D01*
X1197Y858D02*
Y864D01*
Y828D02*
Y850D01*
Y798D02*
Y825D01*
Y761D02*
Y775D01*
Y733D02*
Y744D01*
Y692D02*
Y725D01*
X1196Y858D02*
Y864D01*
Y828D02*
Y850D01*
Y798D02*
Y826D01*
Y761D02*
Y775D01*
Y733D02*
Y744D01*
Y692D02*
Y725D01*
X1196Y858D02*
Y864D01*
Y828D02*
Y850D01*
Y798D02*
Y826D01*
Y761D02*
Y775D01*
Y733D02*
Y744D01*
Y692D02*
Y725D01*
X1196Y858D02*
Y864D01*
Y828D02*
Y850D01*
Y798D02*
Y826D01*
Y761D02*
Y775D01*
Y733D02*
Y744D01*
Y692D02*
Y725D01*
X1196Y858D02*
Y864D01*
Y828D02*
Y850D01*
Y798D02*
Y826D01*
Y761D02*
Y775D01*
Y733D02*
Y744D01*
Y692D02*
Y725D01*
X1196Y858D02*
Y863D01*
Y828D02*
Y850D01*
Y798D02*
Y826D01*
Y761D02*
Y775D01*
Y732D02*
Y744D01*
Y692D02*
Y725D01*
X1195Y858D02*
Y863D01*
Y828D02*
Y851D01*
Y798D02*
Y826D01*
Y761D02*
Y775D01*
Y732D02*
Y744D01*
Y692D02*
Y725D01*
X1195Y858D02*
Y863D01*
Y828D02*
Y851D01*
Y798D02*
Y827D01*
Y761D02*
Y775D01*
Y732D02*
Y744D01*
Y692D02*
Y725D01*
X1195Y858D02*
Y863D01*
Y828D02*
Y851D01*
Y798D02*
Y827D01*
Y761D02*
Y775D01*
Y732D02*
Y744D01*
Y692D02*
Y725D01*
X1195Y858D02*
Y863D01*
Y828D02*
Y851D01*
Y797D02*
Y827D01*
Y761D02*
Y775D01*
Y732D02*
Y744D01*
Y692D02*
Y725D01*
X1195Y859D02*
Y863D01*
Y829D02*
Y851D01*
Y797D02*
Y827D01*
Y761D02*
Y775D01*
Y732D02*
Y744D01*
Y692D02*
Y725D01*
X1194Y859D02*
Y863D01*
Y829D02*
Y851D01*
Y797D02*
Y827D01*
Y761D02*
Y776D01*
Y732D02*
Y744D01*
Y692D02*
Y725D01*
X1194Y859D02*
Y862D01*
Y829D02*
Y851D01*
Y797D02*
Y828D01*
Y761D02*
Y776D01*
Y732D02*
Y744D01*
Y692D02*
Y725D01*
X1194Y859D02*
Y862D01*
Y829D02*
Y851D01*
Y797D02*
Y828D01*
Y761D02*
Y776D01*
Y732D02*
Y745D01*
Y692D02*
Y725D01*
X1194Y859D02*
Y862D01*
Y829D02*
Y851D01*
Y797D02*
Y828D01*
Y761D02*
Y776D01*
Y732D02*
Y745D01*
Y692D02*
Y725D01*
X1194Y859D02*
Y862D01*
Y829D02*
Y851D01*
Y797D02*
Y828D01*
Y761D02*
Y776D01*
Y732D02*
Y745D01*
Y692D02*
Y725D01*
X1193Y859D02*
Y862D01*
Y829D02*
Y851D01*
Y797D02*
Y828D01*
Y761D02*
Y776D01*
Y732D02*
Y745D01*
Y692D02*
Y725D01*
X1193Y859D02*
Y862D01*
Y829D02*
Y851D01*
Y797D02*
Y828D01*
Y761D02*
Y776D01*
Y732D02*
Y745D01*
Y692D02*
Y725D01*
X1193Y859D02*
Y862D01*
Y829D02*
Y851D01*
Y797D02*
Y829D01*
Y761D02*
Y776D01*
Y732D02*
Y745D01*
Y692D02*
Y725D01*
X1193Y859D02*
Y862D01*
Y829D02*
Y851D01*
Y797D02*
Y829D01*
Y761D02*
Y776D01*
Y732D02*
Y745D01*
Y692D02*
Y725D01*
X1193Y859D02*
Y862D01*
Y797D02*
Y851D01*
Y761D02*
Y776D01*
Y732D02*
Y745D01*
Y692D02*
Y725D01*
X1192Y859D02*
Y862D01*
Y797D02*
Y851D01*
Y761D02*
Y776D01*
Y732D02*
Y745D01*
Y692D02*
Y725D01*
X1192Y859D02*
Y861D01*
Y797D02*
Y851D01*
Y761D02*
Y776D01*
Y731D02*
Y745D01*
Y692D02*
Y725D01*
X1192Y859D02*
Y861D01*
Y797D02*
Y851D01*
Y761D02*
Y776D01*
Y731D02*
Y745D01*
Y692D02*
Y725D01*
X1192Y859D02*
Y861D01*
Y797D02*
Y851D01*
Y761D02*
Y776D01*
Y731D02*
Y745D01*
Y692D02*
Y725D01*
X1192Y859D02*
Y861D01*
Y797D02*
Y851D01*
Y761D02*
Y776D01*
Y731D02*
Y745D01*
Y692D02*
Y725D01*
X1191Y859D02*
Y861D01*
Y797D02*
Y851D01*
Y761D02*
Y776D01*
Y731D02*
Y745D01*
Y692D02*
Y725D01*
X1191Y859D02*
Y861D01*
Y797D02*
Y851D01*
Y761D02*
Y776D01*
Y731D02*
Y745D01*
Y692D02*
Y725D01*
X1191Y859D02*
Y861D01*
Y797D02*
Y851D01*
Y761D02*
Y776D01*
Y731D02*
Y745D01*
Y692D02*
Y725D01*
X1191Y859D02*
Y861D01*
Y797D02*
Y851D01*
Y761D02*
Y776D01*
Y731D02*
Y745D01*
Y692D02*
Y725D01*
X1191Y859D02*
Y861D01*
Y797D02*
Y851D01*
Y761D02*
Y776D01*
Y731D02*
Y745D01*
Y692D02*
Y725D01*
X1190Y859D02*
Y861D01*
Y797D02*
Y851D01*
Y761D02*
Y776D01*
Y731D02*
Y745D01*
Y692D02*
Y725D01*
X1190Y859D02*
Y860D01*
Y797D02*
Y851D01*
Y761D02*
Y776D01*
Y731D02*
Y745D01*
Y692D02*
Y725D01*
X1190Y859D02*
Y860D01*
Y797D02*
Y851D01*
Y761D02*
Y776D01*
Y731D02*
Y746D01*
Y692D02*
Y725D01*
X1190Y859D02*
Y860D01*
Y797D02*
Y851D01*
Y761D02*
Y776D01*
Y731D02*
Y746D01*
Y692D02*
Y725D01*
X1190Y859D02*
Y860D01*
Y797D02*
Y851D01*
Y761D02*
Y776D01*
Y731D02*
Y746D01*
Y692D02*
Y725D01*
X1189Y859D02*
Y860D01*
Y797D02*
Y851D01*
Y761D02*
Y776D01*
Y731D02*
Y746D01*
Y692D02*
Y725D01*
X1189Y797D02*
Y851D01*
Y761D02*
Y776D01*
Y731D02*
Y746D01*
Y692D02*
Y725D01*
X1189Y797D02*
Y851D01*
Y761D02*
Y776D01*
Y731D02*
Y746D01*
Y691D02*
Y725D01*
X1189Y797D02*
Y851D01*
Y761D02*
Y776D01*
Y730D02*
Y746D01*
Y691D02*
Y725D01*
X1189Y797D02*
Y851D01*
Y761D02*
Y776D01*
Y730D02*
Y746D01*
Y691D02*
Y725D01*
X1188Y797D02*
Y851D01*
Y761D02*
Y776D01*
Y730D02*
Y746D01*
Y691D02*
Y725D01*
X1188Y797D02*
Y851D01*
Y761D02*
Y776D01*
Y730D02*
Y746D01*
Y691D02*
Y725D01*
X1188Y797D02*
Y851D01*
Y761D02*
Y776D01*
Y730D02*
Y746D01*
Y691D02*
Y725D01*
X1188Y796D02*
Y851D01*
Y761D02*
Y776D01*
Y730D02*
Y746D01*
Y691D02*
Y725D01*
X1188Y796D02*
Y851D01*
Y761D02*
Y776D01*
Y730D02*
Y746D01*
Y705D02*
Y725D01*
Y691D02*
Y704D01*
X1187Y796D02*
Y852D01*
Y761D02*
Y776D01*
Y730D02*
Y746D01*
Y705D02*
Y725D01*
Y691D02*
Y704D01*
X1187Y796D02*
Y852D01*
Y761D02*
Y777D01*
Y730D02*
Y746D01*
Y705D02*
Y725D01*
Y691D02*
Y704D01*
X1187Y796D02*
Y852D01*
Y761D02*
Y777D01*
Y730D02*
Y746D01*
Y705D02*
Y725D01*
Y691D02*
Y704D01*
X1187Y796D02*
Y852D01*
Y761D02*
Y777D01*
Y730D02*
Y746D01*
Y705D02*
Y725D01*
Y691D02*
Y703D01*
X1187Y796D02*
Y852D01*
Y761D02*
Y777D01*
Y730D02*
Y746D01*
Y705D02*
Y725D01*
Y691D02*
Y703D01*
X1186Y796D02*
Y852D01*
Y761D02*
Y777D01*
Y730D02*
Y746D01*
Y705D02*
Y725D01*
Y691D02*
Y703D01*
X1186Y796D02*
Y852D01*
Y761D02*
Y777D01*
Y730D02*
Y746D01*
Y705D02*
Y725D01*
Y691D02*
Y702D01*
X1186Y796D02*
Y852D01*
Y761D02*
Y777D01*
Y730D02*
Y747D01*
Y705D02*
Y725D01*
Y691D02*
Y702D01*
X1186Y796D02*
Y852D01*
Y761D02*
Y777D01*
Y730D02*
Y747D01*
Y705D02*
Y725D01*
Y691D02*
Y702D01*
X1186Y796D02*
Y852D01*
Y761D02*
Y777D01*
Y729D02*
Y747D01*
Y705D02*
Y725D01*
Y691D02*
Y702D01*
X1185Y796D02*
Y852D01*
Y761D02*
Y777D01*
Y729D02*
Y747D01*
Y705D02*
Y725D01*
Y691D02*
Y701D01*
X1185Y796D02*
Y852D01*
Y761D02*
Y777D01*
Y729D02*
Y747D01*
Y705D02*
Y725D01*
Y691D02*
Y701D01*
X1185Y796D02*
Y852D01*
Y761D02*
Y777D01*
Y729D02*
Y747D01*
Y706D02*
Y725D01*
Y691D02*
Y701D01*
X1185Y820D02*
Y852D01*
Y796D02*
Y820D01*
Y761D02*
Y777D01*
Y729D02*
Y747D01*
Y706D02*
Y725D01*
Y691D02*
Y701D01*
X1185Y821D02*
Y852D01*
Y796D02*
Y820D01*
Y761D02*
Y777D01*
Y729D02*
Y747D01*
Y706D02*
Y725D01*
Y691D02*
Y700D01*
X1184Y821D02*
Y852D01*
Y796D02*
Y820D01*
Y761D02*
Y777D01*
Y729D02*
Y747D01*
Y706D02*
Y724D01*
Y691D02*
Y700D01*
X1184Y822D02*
Y852D01*
Y796D02*
Y820D01*
Y761D02*
Y777D01*
Y729D02*
Y747D01*
Y706D02*
Y724D01*
Y691D02*
Y700D01*
X1184Y822D02*
Y852D01*
Y796D02*
Y820D01*
Y761D02*
Y777D01*
Y728D02*
Y747D01*
Y706D02*
Y724D01*
Y691D02*
Y699D01*
X1184Y822D02*
Y852D01*
Y796D02*
Y820D01*
Y760D02*
Y777D01*
Y728D02*
Y747D01*
Y706D02*
Y724D01*
Y691D02*
Y699D01*
X1184Y822D02*
Y852D01*
Y796D02*
Y820D01*
Y760D02*
Y777D01*
Y728D02*
Y747D01*
Y706D02*
Y724D01*
Y691D02*
Y699D01*
X1183Y823D02*
Y852D01*
Y796D02*
Y820D01*
Y760D02*
Y777D01*
Y728D02*
Y747D01*
Y706D02*
Y724D01*
Y691D02*
Y699D01*
X1183Y823D02*
Y852D01*
Y796D02*
Y820D01*
Y760D02*
Y777D01*
Y728D02*
Y747D01*
Y706D02*
Y724D01*
Y691D02*
Y698D01*
X1183Y823D02*
Y852D01*
Y796D02*
Y821D01*
Y760D02*
Y777D01*
Y728D02*
Y747D01*
Y706D02*
Y724D01*
Y691D02*
Y698D01*
X1183Y823D02*
Y852D01*
Y795D02*
Y821D01*
Y760D02*
Y777D01*
Y728D02*
Y747D01*
Y706D02*
Y724D01*
Y691D02*
Y698D01*
X1183Y824D02*
Y852D01*
Y795D02*
Y821D01*
Y760D02*
Y777D01*
Y728D02*
Y747D01*
Y706D02*
Y724D01*
Y691D02*
Y698D01*
X1182Y824D02*
Y852D01*
Y795D02*
Y821D01*
Y760D02*
Y777D01*
Y727D02*
Y747D01*
Y706D02*
Y724D01*
Y691D02*
Y697D01*
X1182Y824D02*
Y852D01*
Y795D02*
Y821D01*
Y760D02*
Y777D01*
Y727D02*
Y747D01*
Y706D02*
Y724D01*
Y691D02*
Y697D01*
X1182Y824D02*
Y852D01*
Y795D02*
Y821D01*
Y760D02*
Y777D01*
Y727D02*
Y748D01*
Y706D02*
Y724D01*
Y691D02*
Y697D01*
X1182Y825D02*
Y852D01*
Y795D02*
Y821D01*
Y760D02*
Y777D01*
Y727D02*
Y748D01*
Y706D02*
Y724D01*
Y691D02*
Y696D01*
X1182Y825D02*
Y852D01*
Y795D02*
Y821D01*
Y760D02*
Y777D01*
Y727D02*
Y748D01*
Y706D02*
Y724D01*
Y691D02*
Y696D01*
X1181Y825D02*
Y852D01*
Y795D02*
Y821D01*
Y760D02*
Y777D01*
Y727D02*
Y748D01*
Y707D02*
Y724D01*
Y690D02*
Y696D01*
X1181Y825D02*
Y852D01*
Y795D02*
Y821D01*
Y760D02*
Y777D01*
Y727D02*
Y748D01*
Y707D02*
Y724D01*
Y690D02*
Y696D01*
X1181Y825D02*
Y852D01*
Y795D02*
Y821D01*
Y760D02*
Y777D01*
Y727D02*
Y748D01*
Y707D02*
Y724D01*
Y690D02*
Y695D01*
X1181Y826D02*
Y852D01*
Y795D02*
Y821D01*
Y760D02*
Y777D01*
Y726D02*
Y748D01*
Y707D02*
Y724D01*
Y690D02*
Y695D01*
X1181Y826D02*
Y852D01*
Y795D02*
Y821D01*
Y760D02*
Y777D01*
Y726D02*
Y748D01*
Y707D02*
Y724D01*
Y690D02*
Y695D01*
X1180Y826D02*
Y852D01*
Y795D02*
Y821D01*
Y760D02*
Y777D01*
Y726D02*
Y748D01*
Y707D02*
Y724D01*
Y690D02*
Y695D01*
X1180Y826D02*
Y852D01*
Y795D02*
Y821D01*
Y760D02*
Y777D01*
Y726D02*
Y748D01*
Y707D02*
Y724D01*
Y690D02*
Y694D01*
X1180Y826D02*
Y852D01*
Y795D02*
Y821D01*
Y760D02*
Y777D01*
Y726D02*
Y748D01*
Y707D02*
Y724D01*
Y690D02*
Y694D01*
X1180Y826D02*
Y852D01*
Y795D02*
Y821D01*
Y760D02*
Y777D01*
Y726D02*
Y748D01*
Y707D02*
Y724D01*
Y690D02*
Y694D01*
X1180Y826D02*
Y853D01*
Y795D02*
Y821D01*
Y760D02*
Y777D01*
Y726D02*
Y748D01*
Y707D02*
Y724D01*
Y690D02*
Y693D01*
X1179Y826D02*
Y853D01*
Y795D02*
Y821D01*
Y760D02*
Y777D01*
Y726D02*
Y748D01*
Y707D02*
Y724D01*
Y690D02*
Y693D01*
X1179Y827D02*
Y853D01*
Y794D02*
Y821D01*
Y760D02*
Y777D01*
Y725D02*
Y748D01*
Y707D02*
Y724D01*
Y690D02*
Y693D01*
X1179Y827D02*
Y853D01*
Y794D02*
Y821D01*
Y760D02*
Y777D01*
Y725D02*
Y748D01*
Y707D02*
Y724D01*
Y690D02*
Y693D01*
X1179Y827D02*
Y853D01*
Y794D02*
Y821D01*
Y760D02*
Y777D01*
Y725D02*
Y748D01*
Y707D02*
Y724D01*
Y690D02*
Y692D01*
X1179Y827D02*
Y853D01*
Y794D02*
Y821D01*
Y760D02*
Y777D01*
Y725D02*
Y748D01*
Y707D02*
Y724D01*
Y690D02*
Y692D01*
X1178Y827D02*
Y853D01*
Y794D02*
Y821D01*
Y760D02*
Y777D01*
Y725D02*
Y748D01*
Y707D02*
Y724D01*
Y690D02*
Y692D01*
X1178Y827D02*
Y853D01*
Y794D02*
Y821D01*
Y759D02*
Y777D01*
Y725D02*
Y748D01*
Y707D02*
Y724D01*
Y690D02*
Y692D01*
X1178Y827D02*
Y853D01*
Y794D02*
Y821D01*
Y759D02*
Y777D01*
Y725D02*
Y749D01*
Y707D02*
Y724D01*
Y690D02*
Y691D01*
X1178Y828D02*
Y853D01*
Y794D02*
Y821D01*
Y759D02*
Y777D01*
Y725D02*
Y749D01*
Y707D02*
Y724D01*
Y690D02*
Y691D01*
X1178Y828D02*
Y853D01*
Y794D02*
Y822D01*
Y759D02*
Y777D01*
Y724D02*
Y749D01*
Y707D02*
Y724D01*
X1177Y828D02*
Y853D01*
Y794D02*
Y822D01*
Y759D02*
Y777D01*
Y724D02*
Y749D01*
Y707D02*
Y724D01*
X1177Y828D02*
Y853D01*
Y794D02*
Y822D01*
Y759D02*
Y777D01*
Y724D02*
Y749D01*
Y707D02*
Y724D01*
X1177Y828D02*
Y853D01*
Y794D02*
Y822D01*
Y759D02*
Y777D01*
Y724D02*
Y749D01*
Y707D02*
Y724D01*
X1177Y828D02*
Y853D01*
Y794D02*
Y822D01*
Y759D02*
Y777D01*
Y724D02*
Y749D01*
Y708D02*
Y724D01*
X1177Y828D02*
Y853D01*
Y794D02*
Y822D01*
Y759D02*
Y777D01*
Y708D02*
Y749D01*
X1176Y829D02*
Y853D01*
Y794D02*
Y822D01*
Y759D02*
Y777D01*
Y708D02*
Y749D01*
X1176Y829D02*
Y853D01*
Y794D02*
Y822D01*
Y759D02*
Y777D01*
Y708D02*
Y749D01*
X1176Y829D02*
Y853D01*
Y794D02*
Y822D01*
Y759D02*
Y777D01*
Y708D02*
Y749D01*
X1176Y829D02*
Y853D01*
Y793D02*
Y822D01*
Y759D02*
Y777D01*
Y708D02*
Y749D01*
X1176Y829D02*
Y853D01*
Y793D02*
Y822D01*
Y759D02*
Y777D01*
Y708D02*
Y749D01*
X1175Y829D02*
Y853D01*
Y793D02*
Y822D01*
Y759D02*
Y777D01*
Y708D02*
Y749D01*
X1175Y829D02*
Y853D01*
Y793D02*
Y822D01*
Y759D02*
Y777D01*
Y708D02*
Y749D01*
X1175Y829D02*
Y853D01*
Y793D02*
Y822D01*
Y759D02*
Y777D01*
Y708D02*
Y749D01*
X1175Y829D02*
Y853D01*
Y793D02*
Y822D01*
Y759D02*
Y777D01*
Y708D02*
Y749D01*
X1175Y830D02*
Y853D01*
Y793D02*
Y822D01*
Y759D02*
Y777D01*
Y708D02*
Y749D01*
X1174Y830D02*
Y853D01*
Y793D02*
Y822D01*
Y759D02*
Y777D01*
Y708D02*
Y749D01*
X1174Y830D02*
Y853D01*
Y793D02*
Y822D01*
Y759D02*
Y777D01*
Y708D02*
Y749D01*
X1174Y830D02*
Y853D01*
Y793D02*
Y822D01*
Y759D02*
Y777D01*
Y708D02*
Y750D01*
X1174Y830D02*
Y853D01*
Y793D02*
Y822D01*
Y759D02*
Y777D01*
Y708D02*
Y750D01*
X1174Y830D02*
Y853D01*
Y793D02*
Y822D01*
Y759D02*
Y777D01*
Y708D02*
Y750D01*
X1173Y830D02*
Y853D01*
Y793D02*
Y822D01*
Y759D02*
Y777D01*
Y708D02*
Y750D01*
X1173Y830D02*
Y853D01*
Y793D02*
Y822D01*
Y759D02*
Y777D01*
Y708D02*
Y750D01*
X1173Y831D02*
Y853D01*
Y793D02*
Y822D01*
Y759D02*
Y777D01*
Y708D02*
Y750D01*
X1173Y831D02*
Y853D01*
Y793D02*
Y823D01*
Y759D02*
Y777D01*
Y708D02*
Y750D01*
X1173Y831D02*
Y853D01*
Y793D02*
Y823D01*
Y759D02*
Y777D01*
Y708D02*
Y750D01*
X1172Y831D02*
Y853D01*
Y793D02*
Y823D01*
Y759D02*
Y777D01*
Y708D02*
Y750D01*
X1172Y831D02*
Y853D01*
Y792D02*
Y823D01*
Y759D02*
Y777D01*
Y708D02*
Y750D01*
X1172Y831D02*
Y853D01*
Y792D02*
Y823D01*
Y759D02*
Y777D01*
Y709D02*
Y750D01*
X1172Y831D02*
Y853D01*
Y792D02*
Y823D01*
Y759D02*
Y777D01*
Y709D02*
Y750D01*
X1172Y831D02*
Y854D01*
Y792D02*
Y823D01*
Y759D02*
Y777D01*
Y709D02*
Y750D01*
X1171Y831D02*
Y854D01*
Y792D02*
Y823D01*
Y759D02*
Y777D01*
Y709D02*
Y750D01*
X1171Y832D02*
Y854D01*
Y792D02*
Y823D01*
Y759D02*
Y777D01*
Y709D02*
Y750D01*
X1171Y832D02*
Y854D01*
Y792D02*
Y823D01*
Y759D02*
Y777D01*
Y709D02*
Y750D01*
X1171Y832D02*
Y854D01*
Y792D02*
Y823D01*
Y759D02*
Y777D01*
Y709D02*
Y750D01*
X1171Y832D02*
Y854D01*
Y792D02*
Y823D01*
Y759D02*
Y777D01*
Y709D02*
Y750D01*
X1170Y832D02*
Y854D01*
Y792D02*
Y823D01*
Y759D02*
Y777D01*
Y709D02*
Y750D01*
X1170Y832D02*
Y854D01*
Y792D02*
Y823D01*
Y759D02*
Y777D01*
Y709D02*
Y750D01*
X1170Y832D02*
Y854D01*
Y792D02*
Y823D01*
Y759D02*
Y777D01*
Y709D02*
Y750D01*
X1170Y832D02*
Y854D01*
Y791D02*
Y823D01*
Y759D02*
Y777D01*
Y709D02*
Y750D01*
X1170Y832D02*
Y854D01*
Y791D02*
Y823D01*
Y758D02*
Y777D01*
Y709D02*
Y750D01*
X1169Y833D02*
Y854D01*
Y791D02*
Y823D01*
Y758D02*
Y777D01*
Y709D02*
Y750D01*
X1169Y833D02*
Y854D01*
Y791D02*
Y823D01*
Y758D02*
Y777D01*
Y709D02*
Y750D01*
X1169Y833D02*
Y854D01*
Y791D02*
Y823D01*
Y758D02*
Y777D01*
Y709D02*
Y750D01*
X1169Y833D02*
Y854D01*
Y791D02*
Y823D01*
Y758D02*
Y777D01*
Y709D02*
Y750D01*
X1169Y833D02*
Y854D01*
Y791D02*
Y823D01*
Y758D02*
Y777D01*
Y709D02*
Y750D01*
X1168Y833D02*
Y854D01*
Y791D02*
Y823D01*
Y758D02*
Y777D01*
Y709D02*
Y750D01*
X1168Y833D02*
Y854D01*
Y791D02*
Y824D01*
Y758D02*
Y777D01*
Y709D02*
Y750D01*
X1168Y833D02*
Y854D01*
Y791D02*
Y824D01*
Y758D02*
Y776D01*
Y709D02*
Y750D01*
X1168Y833D02*
Y854D01*
Y790D02*
Y824D01*
Y758D02*
Y776D01*
Y709D02*
Y750D01*
X1168Y833D02*
Y854D01*
Y790D02*
Y824D01*
Y758D02*
Y776D01*
Y709D02*
Y750D01*
X1167Y833D02*
Y854D01*
Y790D02*
Y824D01*
Y758D02*
Y776D01*
Y709D02*
Y750D01*
X1167Y833D02*
Y854D01*
Y790D02*
Y824D01*
Y758D02*
Y776D01*
Y709D02*
Y750D01*
X1167Y833D02*
Y854D01*
Y790D02*
Y824D01*
Y758D02*
Y776D01*
Y709D02*
Y751D01*
X1167Y833D02*
Y854D01*
Y790D02*
Y824D01*
Y758D02*
Y776D01*
Y709D02*
Y751D01*
X1167Y833D02*
Y854D01*
Y790D02*
Y824D01*
Y758D02*
Y776D01*
Y709D02*
Y751D01*
X1166Y833D02*
Y854D01*
Y790D02*
Y824D01*
Y758D02*
Y776D01*
Y709D02*
Y751D01*
X1166Y833D02*
Y854D01*
Y790D02*
Y824D01*
Y758D02*
Y776D01*
Y709D02*
Y751D01*
X1166Y833D02*
Y854D01*
Y790D02*
Y824D01*
Y758D02*
Y776D01*
Y709D02*
Y751D01*
X1166Y833D02*
Y854D01*
Y789D02*
Y824D01*
Y758D02*
Y776D01*
Y709D02*
Y751D01*
X1166Y833D02*
Y854D01*
Y789D02*
Y824D01*
Y758D02*
Y776D01*
Y709D02*
Y751D01*
X1165Y834D02*
Y854D01*
Y789D02*
Y824D01*
Y757D02*
Y776D01*
Y709D02*
Y751D01*
X1165Y834D02*
Y854D01*
Y789D02*
Y824D01*
Y757D02*
Y776D01*
Y709D02*
Y751D01*
X1165Y834D02*
Y854D01*
Y789D02*
Y824D01*
Y757D02*
Y776D01*
Y709D02*
Y751D01*
X1165Y834D02*
Y854D01*
Y789D02*
Y824D01*
Y757D02*
Y776D01*
Y709D02*
Y751D01*
X1165Y834D02*
Y854D01*
Y788D02*
Y824D01*
Y757D02*
Y776D01*
Y709D02*
Y751D01*
X1164Y834D02*
Y854D01*
Y788D02*
Y824D01*
Y757D02*
Y776D01*
Y709D02*
Y751D01*
X1164Y834D02*
Y854D01*
Y788D02*
Y824D01*
Y757D02*
Y776D01*
Y709D02*
Y751D01*
X1164Y834D02*
Y854D01*
Y788D02*
Y824D01*
Y757D02*
Y776D01*
Y709D02*
Y751D01*
X1164Y834D02*
Y854D01*
Y788D02*
Y824D01*
Y757D02*
Y776D01*
Y709D02*
Y751D01*
X1164Y834D02*
Y854D01*
Y788D02*
Y824D01*
Y757D02*
Y776D01*
Y709D02*
Y751D01*
X1163Y834D02*
Y854D01*
Y788D02*
Y824D01*
Y757D02*
Y776D01*
Y709D02*
Y751D01*
X1163Y834D02*
Y854D01*
Y787D02*
Y825D01*
Y757D02*
Y776D01*
Y709D02*
Y751D01*
X1163Y834D02*
Y854D01*
Y787D02*
Y825D01*
Y757D02*
Y776D01*
Y709D02*
Y751D01*
X1163Y834D02*
Y854D01*
Y787D02*
Y825D01*
Y757D02*
Y776D01*
Y709D02*
Y751D01*
X1163Y834D02*
Y854D01*
Y787D02*
Y825D01*
Y757D02*
Y776D01*
Y709D02*
Y751D01*
X1162Y834D02*
Y854D01*
Y787D02*
Y825D01*
Y756D02*
Y776D01*
Y709D02*
Y751D01*
X1162Y834D02*
Y854D01*
Y787D02*
Y825D01*
Y756D02*
Y776D01*
Y709D02*
Y751D01*
X1162Y834D02*
Y854D01*
Y786D02*
Y825D01*
Y756D02*
Y776D01*
Y709D02*
Y751D01*
X1162Y834D02*
Y854D01*
Y786D02*
Y825D01*
Y756D02*
Y776D01*
Y709D02*
Y751D01*
X1162Y834D02*
Y854D01*
Y786D02*
Y825D01*
Y756D02*
Y776D01*
Y709D02*
Y751D01*
X1161Y834D02*
Y854D01*
Y786D02*
Y825D01*
Y756D02*
Y776D01*
Y709D02*
Y751D01*
X1161Y834D02*
Y854D01*
Y786D02*
Y825D01*
Y756D02*
Y775D01*
Y709D02*
Y751D01*
X1161Y835D02*
Y854D01*
Y786D02*
Y825D01*
Y756D02*
Y775D01*
Y709D02*
Y751D01*
X1161Y835D02*
Y854D01*
Y785D02*
Y825D01*
Y756D02*
Y775D01*
Y709D02*
Y751D01*
X1161Y835D02*
Y854D01*
Y785D02*
Y825D01*
Y756D02*
Y775D01*
Y709D02*
Y751D01*
X1160Y835D02*
Y854D01*
Y785D02*
Y825D01*
Y756D02*
Y775D01*
Y709D02*
Y751D01*
X1160Y835D02*
Y854D01*
Y785D02*
Y825D01*
Y756D02*
Y775D01*
Y709D02*
Y751D01*
X1160Y835D02*
Y854D01*
Y784D02*
Y825D01*
Y756D02*
Y775D01*
Y709D02*
Y751D01*
X1160Y835D02*
Y854D01*
Y784D02*
Y825D01*
Y756D02*
Y775D01*
Y709D02*
Y751D01*
X1160Y835D02*
Y854D01*
Y784D02*
Y825D01*
Y756D02*
Y775D01*
Y709D02*
Y752D01*
X1159Y835D02*
Y854D01*
Y784D02*
Y825D01*
Y755D02*
Y775D01*
Y709D02*
Y752D01*
X1159Y835D02*
Y854D01*
Y784D02*
Y825D01*
Y755D02*
Y775D01*
Y709D02*
Y752D01*
X1159Y835D02*
Y854D01*
Y783D02*
Y825D01*
Y755D02*
Y775D01*
Y709D02*
Y752D01*
X1159Y835D02*
Y854D01*
Y783D02*
Y825D01*
Y755D02*
Y775D01*
Y709D02*
Y752D01*
X1159Y835D02*
Y854D01*
Y783D02*
Y825D01*
Y755D02*
Y775D01*
Y709D02*
Y752D01*
X1158Y835D02*
Y854D01*
Y783D02*
Y825D01*
Y755D02*
Y775D01*
Y709D02*
Y752D01*
X1158Y835D02*
Y854D01*
Y783D02*
Y825D01*
Y755D02*
Y775D01*
Y709D02*
Y752D01*
X1158Y835D02*
Y854D01*
Y782D02*
Y825D01*
Y755D02*
Y775D01*
Y709D02*
Y752D01*
X1158Y835D02*
Y854D01*
Y782D02*
Y825D01*
Y755D02*
Y775D01*
Y709D02*
Y752D01*
X1158Y835D02*
Y854D01*
Y782D02*
Y825D01*
Y755D02*
Y775D01*
Y709D02*
Y752D01*
X1157Y835D02*
Y854D01*
Y782D02*
Y825D01*
Y755D02*
Y775D01*
Y709D02*
Y752D01*
X1157Y835D02*
Y854D01*
Y781D02*
Y826D01*
Y755D02*
Y775D01*
Y709D02*
Y752D01*
X1157Y835D02*
Y854D01*
Y781D02*
Y826D01*
Y755D02*
Y775D01*
Y709D02*
Y752D01*
X1157Y835D02*
Y854D01*
Y781D02*
Y826D01*
Y755D02*
Y775D01*
Y709D02*
Y752D01*
X1157Y835D02*
Y854D01*
Y781D02*
Y826D01*
Y755D02*
Y775D01*
Y709D02*
Y752D01*
X1156Y836D02*
Y854D01*
Y781D02*
Y826D01*
Y754D02*
Y775D01*
Y709D02*
Y752D01*
X1156Y836D02*
Y854D01*
Y780D02*
Y826D01*
Y754D02*
Y775D01*
Y709D02*
Y752D01*
X1156Y836D02*
Y854D01*
Y780D02*
Y826D01*
Y754D02*
Y775D01*
Y724D02*
Y752D01*
Y709D02*
Y724D01*
X1156Y836D02*
Y854D01*
Y780D02*
Y826D01*
Y754D02*
Y774D01*
Y724D02*
Y752D01*
Y709D02*
Y724D01*
X1156Y836D02*
Y854D01*
Y780D02*
Y826D01*
Y754D02*
Y774D01*
Y725D02*
Y752D01*
Y709D02*
Y724D01*
X1155Y836D02*
Y854D01*
Y779D02*
Y826D01*
Y754D02*
Y774D01*
Y725D02*
Y752D01*
Y709D02*
Y724D01*
X1155Y836D02*
Y854D01*
Y779D02*
Y826D01*
Y754D02*
Y774D01*
Y725D02*
Y752D01*
Y709D02*
Y724D01*
X1155Y836D02*
Y853D01*
Y779D02*
Y826D01*
Y754D02*
Y774D01*
Y725D02*
Y752D01*
Y709D02*
Y724D01*
X1155Y836D02*
Y853D01*
Y779D02*
Y826D01*
Y754D02*
Y774D01*
Y725D02*
Y752D01*
Y709D02*
Y724D01*
X1155Y836D02*
Y853D01*
Y779D02*
Y826D01*
Y754D02*
Y774D01*
Y725D02*
Y752D01*
Y709D02*
Y724D01*
X1154Y836D02*
Y853D01*
Y778D02*
Y826D01*
Y754D02*
Y774D01*
Y725D02*
Y752D01*
Y709D02*
Y724D01*
X1154Y836D02*
Y853D01*
Y778D02*
Y826D01*
Y754D02*
Y774D01*
Y725D02*
Y752D01*
Y709D02*
Y724D01*
X1154Y836D02*
Y853D01*
Y778D02*
Y826D01*
Y754D02*
Y774D01*
Y725D02*
Y752D01*
Y709D02*
Y724D01*
X1154Y836D02*
Y853D01*
Y778D02*
Y826D01*
Y753D02*
Y774D01*
Y725D02*
Y752D01*
Y709D02*
Y724D01*
X1154Y836D02*
Y853D01*
Y777D02*
Y826D01*
Y753D02*
Y774D01*
Y725D02*
Y752D01*
Y709D02*
Y724D01*
X1153Y836D02*
Y853D01*
Y777D02*
Y826D01*
Y753D02*
Y774D01*
Y725D02*
Y752D01*
Y709D02*
Y724D01*
X1153Y836D02*
Y853D01*
Y777D02*
Y826D01*
Y753D02*
Y774D01*
Y725D02*
Y752D01*
Y709D02*
Y724D01*
X1153Y836D02*
Y853D01*
Y777D02*
Y826D01*
Y753D02*
Y774D01*
Y725D02*
Y752D01*
Y709D02*
Y723D01*
X1153Y836D02*
Y853D01*
Y777D02*
Y826D01*
Y753D02*
Y774D01*
Y725D02*
Y752D01*
Y709D02*
Y723D01*
X1153Y836D02*
Y853D01*
Y776D02*
Y826D01*
Y753D02*
Y774D01*
Y726D02*
Y752D01*
Y709D02*
Y723D01*
X1152Y836D02*
Y853D01*
Y776D02*
Y826D01*
Y753D02*
Y774D01*
Y726D02*
Y752D01*
Y709D02*
Y723D01*
X1152Y836D02*
Y853D01*
Y776D02*
Y826D01*
Y752D02*
Y774D01*
Y726D02*
Y752D01*
Y709D02*
Y723D01*
X1152Y837D02*
Y853D01*
Y776D02*
Y826D01*
Y752D02*
Y774D01*
Y726D02*
Y752D01*
Y709D02*
Y723D01*
X1152Y837D02*
Y853D01*
Y775D02*
Y826D01*
Y752D02*
Y774D01*
Y726D02*
Y752D01*
Y709D02*
Y723D01*
X1152Y837D02*
Y853D01*
Y775D02*
Y826D01*
Y752D02*
Y774D01*
Y726D02*
Y752D01*
Y709D02*
Y723D01*
X1151Y837D02*
Y853D01*
Y775D02*
Y826D01*
Y752D02*
Y774D01*
Y726D02*
Y752D01*
Y709D02*
Y723D01*
X1151Y837D02*
Y853D01*
Y775D02*
Y826D01*
Y726D02*
Y773D01*
Y709D02*
Y723D01*
X1151Y837D02*
Y853D01*
Y774D02*
Y826D01*
Y726D02*
Y773D01*
Y709D02*
Y723D01*
X1151Y837D02*
Y853D01*
Y774D02*
Y826D01*
Y726D02*
Y773D01*
Y709D02*
Y723D01*
X1151Y837D02*
Y853D01*
Y774D02*
Y826D01*
Y726D02*
Y773D01*
Y709D02*
Y723D01*
X1150Y837D02*
Y853D01*
Y774D02*
Y826D01*
Y726D02*
Y773D01*
Y709D02*
Y723D01*
X1150Y837D02*
Y853D01*
Y773D02*
Y826D01*
Y726D02*
Y773D01*
Y709D02*
Y723D01*
X1150Y837D02*
Y852D01*
Y773D02*
Y826D01*
Y726D02*
Y773D01*
Y709D02*
Y723D01*
X1150Y837D02*
Y852D01*
Y727D02*
Y826D01*
Y709D02*
Y723D01*
X1150Y837D02*
Y852D01*
Y727D02*
Y826D01*
Y709D02*
Y723D01*
X1149Y837D02*
Y852D01*
Y727D02*
Y826D01*
Y709D02*
Y723D01*
X1149Y837D02*
Y852D01*
Y727D02*
Y826D01*
Y709D02*
Y722D01*
X1149Y837D02*
Y852D01*
Y727D02*
Y826D01*
Y709D02*
Y722D01*
X1149Y837D02*
Y852D01*
Y727D02*
Y826D01*
Y709D02*
Y722D01*
X1149Y837D02*
Y852D01*
Y727D02*
Y826D01*
Y709D02*
Y722D01*
X1148Y837D02*
Y852D01*
Y727D02*
Y826D01*
Y709D02*
Y722D01*
X1148Y837D02*
Y852D01*
Y727D02*
Y826D01*
Y709D02*
Y722D01*
X1148Y837D02*
Y852D01*
Y727D02*
Y826D01*
Y709D02*
Y722D01*
X1148Y837D02*
Y852D01*
Y727D02*
Y826D01*
Y709D02*
Y722D01*
X1148Y837D02*
Y851D01*
Y727D02*
Y826D01*
Y709D02*
Y722D01*
X1147Y837D02*
Y851D01*
Y727D02*
Y826D01*
Y709D02*
Y722D01*
X1147Y837D02*
Y851D01*
Y727D02*
Y826D01*
Y709D02*
Y722D01*
X1147Y837D02*
Y851D01*
Y728D02*
Y825D01*
Y709D02*
Y722D01*
X1147Y837D02*
Y851D01*
Y728D02*
Y825D01*
Y709D02*
Y722D01*
X1147Y837D02*
Y851D01*
Y728D02*
Y825D01*
Y709D02*
Y722D01*
X1146Y837D02*
Y851D01*
Y728D02*
Y825D01*
Y709D02*
Y722D01*
X1146Y837D02*
Y851D01*
Y728D02*
Y825D01*
Y709D02*
Y722D01*
X1146Y837D02*
Y851D01*
Y728D02*
Y825D01*
Y709D02*
Y722D01*
X1146Y837D02*
Y851D01*
Y728D02*
Y825D01*
Y709D02*
Y722D01*
X1146Y837D02*
Y851D01*
Y728D02*
Y825D01*
Y709D02*
Y721D01*
X1145Y837D02*
Y850D01*
Y728D02*
Y825D01*
Y709D02*
Y721D01*
X1145Y837D02*
Y850D01*
Y728D02*
Y825D01*
Y709D02*
Y721D01*
X1145Y837D02*
Y850D01*
Y728D02*
Y825D01*
Y709D02*
Y721D01*
X1145Y837D02*
Y850D01*
Y728D02*
Y825D01*
Y709D02*
Y721D01*
X1145Y837D02*
Y850D01*
Y728D02*
Y825D01*
Y709D02*
Y721D01*
X1144Y837D02*
Y850D01*
Y728D02*
Y825D01*
Y709D02*
Y721D01*
X1144Y837D02*
Y850D01*
Y728D02*
Y825D01*
Y709D02*
Y721D01*
X1144Y837D02*
Y850D01*
Y729D02*
Y825D01*
Y709D02*
Y721D01*
X1144Y837D02*
Y850D01*
Y729D02*
Y825D01*
Y708D02*
Y721D01*
X1144Y837D02*
Y849D01*
Y729D02*
Y825D01*
Y708D02*
Y721D01*
X1143Y837D02*
Y849D01*
Y729D02*
Y825D01*
Y708D02*
Y721D01*
X1143Y838D02*
Y849D01*
Y729D02*
Y825D01*
Y708D02*
Y721D01*
X1143Y837D02*
Y849D01*
Y729D02*
Y825D01*
Y708D02*
Y721D01*
X1143Y837D02*
Y849D01*
Y729D02*
Y825D01*
Y708D02*
Y721D01*
X1143Y837D02*
Y849D01*
Y729D02*
Y825D01*
Y708D02*
Y721D01*
X1142Y837D02*
Y849D01*
Y729D02*
Y825D01*
Y708D02*
Y721D01*
X1142Y837D02*
Y849D01*
Y729D02*
Y825D01*
Y708D02*
Y720D01*
X1142Y837D02*
Y848D01*
Y729D02*
Y825D01*
Y708D02*
Y720D01*
X1142Y837D02*
Y848D01*
Y729D02*
Y825D01*
Y708D02*
Y720D01*
X1142Y837D02*
Y848D01*
Y729D02*
Y825D01*
Y708D02*
Y720D01*
X1141Y837D02*
Y848D01*
Y729D02*
Y825D01*
Y708D02*
Y720D01*
X1141Y837D02*
Y848D01*
Y730D02*
Y825D01*
Y708D02*
Y720D01*
X1141Y837D02*
Y848D01*
Y730D02*
Y825D01*
Y708D02*
Y720D01*
X1141Y837D02*
Y848D01*
Y730D02*
Y825D01*
Y708D02*
Y720D01*
X1141Y837D02*
Y848D01*
Y730D02*
Y825D01*
Y708D02*
Y720D01*
X1140Y837D02*
Y847D01*
Y730D02*
Y825D01*
Y708D02*
Y720D01*
X1140Y837D02*
Y847D01*
Y730D02*
Y825D01*
Y708D02*
Y720D01*
X1140Y837D02*
Y847D01*
Y730D02*
Y825D01*
Y708D02*
Y720D01*
X1140Y837D02*
Y847D01*
Y730D02*
Y825D01*
Y707D02*
Y720D01*
X1140Y837D02*
Y847D01*
Y730D02*
Y825D01*
Y707D02*
Y720D01*
X1139Y837D02*
Y847D01*
Y730D02*
Y825D01*
Y707D02*
Y720D01*
X1139Y837D02*
Y846D01*
Y730D02*
Y825D01*
Y707D02*
Y720D01*
X1139Y837D02*
Y846D01*
Y730D02*
Y825D01*
Y707D02*
Y720D01*
X1139Y837D02*
Y846D01*
Y730D02*
Y825D01*
Y707D02*
Y720D01*
X1139Y837D02*
Y846D01*
Y730D02*
Y825D01*
Y707D02*
Y719D01*
X1138Y837D02*
Y846D01*
Y730D02*
Y825D01*
Y707D02*
Y719D01*
X1138Y837D02*
Y846D01*
Y731D02*
Y825D01*
Y707D02*
Y719D01*
X1138Y837D02*
Y846D01*
Y731D02*
Y825D01*
Y707D02*
Y719D01*
X1138Y837D02*
Y845D01*
Y731D02*
Y825D01*
Y707D02*
Y719D01*
X1138Y837D02*
Y845D01*
Y731D02*
Y825D01*
Y707D02*
Y719D01*
X1137Y837D02*
Y845D01*
Y731D02*
Y825D01*
Y707D02*
Y719D01*
X1137Y837D02*
Y845D01*
Y731D02*
Y825D01*
Y707D02*
Y719D01*
X1137Y837D02*
Y845D01*
Y731D02*
Y825D01*
Y707D02*
Y719D01*
X1137Y837D02*
Y845D01*
Y731D02*
Y825D01*
Y707D02*
Y719D01*
X1137Y837D02*
Y844D01*
Y731D02*
Y825D01*
Y707D02*
Y719D01*
X1136Y837D02*
Y844D01*
Y731D02*
Y825D01*
Y707D02*
Y719D01*
X1136Y837D02*
Y844D01*
Y731D02*
Y824D01*
Y707D02*
Y719D01*
X1136Y837D02*
Y844D01*
Y731D02*
Y824D01*
Y707D02*
Y719D01*
X1136Y837D02*
Y844D01*
Y731D02*
Y824D01*
Y707D02*
Y718D01*
X1136Y837D02*
Y843D01*
Y731D02*
Y824D01*
Y707D02*
Y718D01*
X1135Y837D02*
Y843D01*
Y732D02*
Y824D01*
Y707D02*
Y718D01*
X1135Y837D02*
Y843D01*
Y732D02*
Y824D01*
Y707D02*
Y718D01*
X1135Y837D02*
Y843D01*
Y732D02*
Y824D01*
Y707D02*
Y718D01*
X1135Y837D02*
Y843D01*
Y732D02*
Y824D01*
Y707D02*
Y718D01*
X1135Y837D02*
Y842D01*
Y732D02*
Y824D01*
Y707D02*
Y717D01*
X1134Y837D02*
Y842D01*
Y732D02*
Y824D01*
Y707D02*
Y717D01*
X1134Y837D02*
Y842D01*
Y732D02*
Y824D01*
Y707D02*
Y717D01*
X1134Y837D02*
Y842D01*
Y732D02*
Y824D01*
Y707D02*
Y717D01*
X1134Y837D02*
Y842D01*
Y732D02*
Y824D01*
Y707D02*
Y717D01*
X1134Y837D02*
Y841D01*
Y732D02*
Y824D01*
Y707D02*
Y717D01*
X1133Y837D02*
Y841D01*
Y732D02*
Y824D01*
Y707D02*
Y716D01*
X1133Y837D02*
Y841D01*
Y732D02*
Y824D01*
Y707D02*
Y716D01*
X1133Y837D02*
Y841D01*
Y732D02*
Y824D01*
Y707D02*
Y716D01*
X1133Y837D02*
Y840D01*
Y732D02*
Y823D01*
Y707D02*
Y716D01*
X1133Y837D02*
Y840D01*
Y732D02*
Y823D01*
Y707D02*
Y716D01*
X1132Y837D02*
Y840D01*
Y732D02*
Y823D01*
Y707D02*
Y716D01*
X1132Y837D02*
Y840D01*
Y733D02*
Y823D01*
Y707D02*
Y715D01*
X1132Y837D02*
Y840D01*
Y733D02*
Y823D01*
Y707D02*
Y715D01*
X1132Y837D02*
Y840D01*
Y733D02*
Y823D01*
Y707D02*
Y715D01*
X1132Y837D02*
Y839D01*
Y733D02*
Y823D01*
Y707D02*
Y715D01*
X1131Y837D02*
Y839D01*
Y733D02*
Y823D01*
Y707D02*
Y715D01*
X1131Y837D02*
Y839D01*
Y733D02*
Y823D01*
Y707D02*
Y715D01*
X1131Y837D02*
Y839D01*
Y733D02*
Y823D01*
Y707D02*
Y714D01*
X1131Y837D02*
Y839D01*
Y733D02*
Y823D01*
Y707D02*
Y714D01*
X1131Y837D02*
Y838D01*
Y800D02*
Y823D01*
Y733D02*
Y799D01*
Y707D02*
Y714D01*
X1130Y837D02*
Y838D01*
Y800D02*
Y823D01*
Y733D02*
Y799D01*
Y707D02*
Y714D01*
X1130Y837D02*
Y838D01*
Y800D02*
Y823D01*
Y733D02*
Y799D01*
Y707D02*
Y714D01*
X1130Y837D02*
Y838D01*
Y800D02*
Y823D01*
Y733D02*
Y799D01*
Y707D02*
Y713D01*
X1130Y837D02*
Y838D01*
Y800D02*
Y823D01*
Y733D02*
Y799D01*
Y707D02*
Y713D01*
X1130Y800D02*
Y823D01*
Y733D02*
Y799D01*
Y707D02*
Y713D01*
X1129Y800D02*
Y822D01*
Y733D02*
Y799D01*
Y707D02*
Y713D01*
X1129Y800D02*
Y822D01*
Y733D02*
Y799D01*
Y707D02*
Y713D01*
X1129Y800D02*
Y822D01*
Y733D02*
Y799D01*
Y707D02*
Y712D01*
X1129Y800D02*
Y822D01*
Y733D02*
Y799D01*
Y707D02*
Y712D01*
X1129Y800D02*
Y822D01*
Y733D02*
Y799D01*
Y707D02*
Y712D01*
X1128Y800D02*
Y822D01*
Y733D02*
Y799D01*
Y707D02*
Y712D01*
X1128Y800D02*
Y822D01*
Y733D02*
Y799D01*
Y707D02*
Y711D01*
X1128Y800D02*
Y822D01*
Y733D02*
Y799D01*
Y707D02*
Y711D01*
X1128Y800D02*
Y822D01*
Y733D02*
Y799D01*
Y707D02*
Y711D01*
X1128Y800D02*
Y822D01*
Y733D02*
Y798D01*
Y707D02*
Y711D01*
X1127Y800D02*
Y822D01*
Y733D02*
Y798D01*
Y707D02*
Y710D01*
X1127Y801D02*
Y822D01*
Y733D02*
Y798D01*
Y707D02*
Y710D01*
X1127Y801D02*
Y822D01*
Y733D02*
Y798D01*
Y707D02*
Y710D01*
X1127Y801D02*
Y822D01*
Y733D02*
Y798D01*
Y707D02*
Y709D01*
X1127Y801D02*
Y822D01*
Y733D02*
Y798D01*
Y707D02*
Y709D01*
X1126Y801D02*
Y821D01*
Y733D02*
Y798D01*
X1126Y801D02*
Y821D01*
Y733D02*
Y798D01*
X1126Y801D02*
Y821D01*
Y733D02*
Y798D01*
X1126Y801D02*
Y821D01*
Y733D02*
Y798D01*
X1126Y801D02*
Y821D01*
Y733D02*
Y798D01*
X1125Y801D02*
Y821D01*
Y733D02*
Y798D01*
X1125Y801D02*
Y821D01*
Y733D02*
Y798D01*
X1125Y801D02*
Y821D01*
Y734D02*
Y798D01*
X1125Y801D02*
Y821D01*
Y734D02*
Y798D01*
X1125Y801D02*
Y821D01*
Y734D02*
Y798D01*
X1124Y801D02*
Y821D01*
Y734D02*
Y798D01*
X1124Y801D02*
Y821D01*
Y734D02*
Y798D01*
X1124Y801D02*
Y821D01*
Y734D02*
Y798D01*
X1124Y801D02*
Y821D01*
Y734D02*
Y797D01*
X1124Y801D02*
Y821D01*
Y754D02*
Y797D01*
Y734D02*
Y753D01*
X1123Y802D02*
Y820D01*
Y754D02*
Y797D01*
Y734D02*
Y753D01*
X1123Y802D02*
Y820D01*
Y754D02*
Y797D01*
Y734D02*
Y753D01*
X1123Y802D02*
Y820D01*
Y754D02*
Y797D01*
Y734D02*
Y753D01*
X1123Y802D02*
Y820D01*
Y754D02*
Y797D01*
Y734D02*
Y753D01*
X1123Y802D02*
Y820D01*
Y754D02*
Y797D01*
Y734D02*
Y753D01*
X1122Y802D02*
Y820D01*
Y754D02*
Y797D01*
Y734D02*
Y753D01*
X1122Y802D02*
Y820D01*
Y754D02*
Y797D01*
Y734D02*
Y753D01*
X1122Y802D02*
Y820D01*
Y755D02*
Y797D01*
Y734D02*
Y753D01*
X1122Y802D02*
Y820D01*
Y755D02*
Y797D01*
Y734D02*
Y753D01*
X1122Y802D02*
Y820D01*
Y755D02*
Y797D01*
Y734D02*
Y753D01*
X1121Y802D02*
Y820D01*
Y755D02*
Y797D01*
Y734D02*
Y753D01*
X1121Y802D02*
Y820D01*
Y755D02*
Y797D01*
Y734D02*
Y753D01*
X1121Y802D02*
Y820D01*
Y755D02*
Y797D01*
Y734D02*
Y753D01*
X1121Y802D02*
Y820D01*
Y755D02*
Y797D01*
Y734D02*
Y753D01*
X1121Y802D02*
Y820D01*
Y755D02*
Y797D01*
Y734D02*
Y753D01*
X1120Y802D02*
Y819D01*
Y755D02*
Y797D01*
Y734D02*
Y753D01*
X1120Y802D02*
Y819D01*
Y755D02*
Y797D01*
Y734D02*
Y753D01*
X1120Y802D02*
Y819D01*
Y756D02*
Y796D01*
Y734D02*
Y753D01*
X1120Y802D02*
Y819D01*
Y756D02*
Y796D01*
Y734D02*
Y753D01*
X1120Y802D02*
Y819D01*
Y756D02*
Y796D01*
Y734D02*
Y752D01*
X1119Y803D02*
Y819D01*
Y756D02*
Y796D01*
Y734D02*
Y752D01*
X1119Y803D02*
Y819D01*
Y756D02*
Y796D01*
Y734D02*
Y752D01*
X1119Y803D02*
Y819D01*
Y756D02*
Y796D01*
Y734D02*
Y752D01*
X1119Y803D02*
Y819D01*
Y756D02*
Y796D01*
Y734D02*
Y752D01*
X1119Y803D02*
Y819D01*
Y756D02*
Y796D01*
Y734D02*
Y752D01*
X1118Y803D02*
Y819D01*
Y756D02*
Y796D01*
Y734D02*
Y752D01*
X1118Y803D02*
Y819D01*
Y756D02*
Y796D01*
Y734D02*
Y752D01*
X1118Y803D02*
Y819D01*
Y756D02*
Y796D01*
Y734D02*
Y752D01*
X1118Y803D02*
Y819D01*
Y756D02*
Y796D01*
Y734D02*
Y752D01*
X1118Y803D02*
Y818D01*
Y757D02*
Y796D01*
Y734D02*
Y752D01*
X1117Y803D02*
Y818D01*
Y757D02*
Y796D01*
Y734D02*
Y752D01*
X1117Y803D02*
Y818D01*
Y757D02*
Y796D01*
Y734D02*
Y752D01*
X1117Y803D02*
Y818D01*
Y757D02*
Y796D01*
Y734D02*
Y752D01*
X1117Y803D02*
Y818D01*
Y757D02*
Y796D01*
Y734D02*
Y752D01*
X1117Y803D02*
Y818D01*
Y757D02*
Y796D01*
Y734D02*
Y752D01*
X1116Y803D02*
Y818D01*
Y757D02*
Y796D01*
Y734D02*
Y752D01*
X1116Y803D02*
Y818D01*
Y757D02*
Y795D01*
Y734D02*
Y752D01*
X1116Y803D02*
Y818D01*
Y757D02*
Y795D01*
Y734D02*
Y752D01*
X1116Y803D02*
Y818D01*
Y757D02*
Y795D01*
Y734D02*
Y752D01*
X1116Y803D02*
Y818D01*
Y757D02*
Y795D01*
Y734D02*
Y752D01*
X1115Y804D02*
Y818D01*
Y757D02*
Y795D01*
Y734D02*
Y752D01*
X1115Y804D02*
Y818D01*
Y758D02*
Y795D01*
Y734D02*
Y752D01*
X1115Y804D02*
Y818D01*
Y758D02*
Y795D01*
Y734D02*
Y752D01*
X1115Y804D02*
Y817D01*
Y758D02*
Y795D01*
Y734D02*
Y751D01*
X1115Y804D02*
Y817D01*
Y758D02*
Y795D01*
Y734D02*
Y751D01*
X1114Y804D02*
Y817D01*
Y758D02*
Y795D01*
Y734D02*
Y751D01*
X1114Y804D02*
Y817D01*
Y758D02*
Y795D01*
Y734D02*
Y751D01*
X1114Y804D02*
Y817D01*
Y758D02*
Y795D01*
Y734D02*
Y751D01*
X1114Y804D02*
Y817D01*
Y758D02*
Y795D01*
Y734D02*
Y751D01*
X1114Y804D02*
Y817D01*
Y758D02*
Y795D01*
Y734D02*
Y751D01*
X1113Y804D02*
Y817D01*
Y758D02*
Y795D01*
Y734D02*
Y751D01*
X1113Y804D02*
Y817D01*
Y758D02*
Y795D01*
Y734D02*
Y751D01*
X1113Y804D02*
Y817D01*
Y758D02*
Y794D01*
Y734D02*
Y751D01*
X1113Y804D02*
Y817D01*
Y759D02*
Y794D01*
Y734D02*
Y751D01*
X1113Y804D02*
Y817D01*
Y759D02*
Y794D01*
Y734D02*
Y751D01*
X1112Y804D02*
Y817D01*
Y759D02*
Y794D01*
Y734D02*
Y751D01*
X1112Y804D02*
Y816D01*
Y759D02*
Y794D01*
Y734D02*
Y751D01*
X1112Y804D02*
Y816D01*
Y759D02*
Y794D01*
Y734D02*
Y751D01*
X1112Y804D02*
Y816D01*
Y759D02*
Y794D01*
Y734D02*
Y751D01*
X1112Y804D02*
Y816D01*
Y759D02*
Y794D01*
Y734D02*
Y751D01*
X1111Y804D02*
Y816D01*
Y759D02*
Y794D01*
Y734D02*
Y750D01*
X1111Y804D02*
Y816D01*
Y759D02*
Y794D01*
Y734D02*
Y750D01*
X1111Y804D02*
Y816D01*
Y759D02*
Y794D01*
Y734D02*
Y750D01*
X1111Y804D02*
Y816D01*
Y759D02*
Y794D01*
Y734D02*
Y750D01*
X1111Y804D02*
Y816D01*
Y759D02*
Y794D01*
Y734D02*
Y750D01*
X1110Y804D02*
Y815D01*
Y759D02*
Y794D01*
Y734D02*
Y750D01*
X1110Y804D02*
Y815D01*
Y760D02*
Y793D01*
Y734D02*
Y750D01*
X1110Y804D02*
Y815D01*
Y760D02*
Y793D01*
Y734D02*
Y750D01*
X1110Y804D02*
Y815D01*
Y760D02*
Y793D01*
Y734D02*
Y750D01*
X1110Y804D02*
Y815D01*
Y760D02*
Y793D01*
Y734D02*
Y750D01*
X1109Y804D02*
Y815D01*
Y760D02*
Y793D01*
Y734D02*
Y750D01*
X1109Y804D02*
Y815D01*
Y760D02*
Y793D01*
Y734D02*
Y750D01*
X1109Y804D02*
Y814D01*
Y760D02*
Y793D01*
Y734D02*
Y750D01*
X1109Y804D02*
Y814D01*
Y760D02*
Y793D01*
Y734D02*
Y750D01*
X1109Y804D02*
Y814D01*
Y760D02*
Y793D01*
Y734D02*
Y750D01*
X1108Y804D02*
Y814D01*
Y760D02*
Y793D01*
Y733D02*
Y750D01*
X1108Y804D02*
Y814D01*
Y760D02*
Y793D01*
Y733D02*
Y750D01*
X1108Y804D02*
Y814D01*
Y760D02*
Y793D01*
Y733D02*
Y749D01*
X1108Y804D02*
Y814D01*
Y760D02*
Y793D01*
Y733D02*
Y749D01*
X1108Y804D02*
Y813D01*
Y760D02*
Y792D01*
Y733D02*
Y749D01*
X1107Y804D02*
Y813D01*
Y760D02*
Y792D01*
Y733D02*
Y749D01*
X1107Y804D02*
Y813D01*
Y760D02*
Y792D01*
Y733D02*
Y749D01*
X1107Y804D02*
Y813D01*
Y760D02*
Y792D01*
Y733D02*
Y749D01*
X1107Y804D02*
Y813D01*
Y760D02*
Y792D01*
Y733D02*
Y749D01*
X1107Y804D02*
Y813D01*
Y760D02*
Y792D01*
Y733D02*
Y749D01*
X1106Y804D02*
Y813D01*
Y760D02*
Y792D01*
Y733D02*
Y749D01*
X1106Y804D02*
Y812D01*
Y760D02*
Y792D01*
Y733D02*
Y749D01*
X1106Y804D02*
Y812D01*
Y760D02*
Y792D01*
Y733D02*
Y749D01*
X1106Y804D02*
Y812D01*
Y760D02*
Y792D01*
Y733D02*
Y749D01*
X1106Y804D02*
Y812D01*
Y760D02*
Y792D01*
Y733D02*
Y749D01*
X1105Y804D02*
Y812D01*
Y760D02*
Y792D01*
Y733D02*
Y749D01*
X1105Y804D02*
Y812D01*
Y760D02*
Y792D01*
Y733D02*
Y749D01*
X1105Y804D02*
Y812D01*
Y761D02*
Y791D01*
Y733D02*
Y749D01*
X1105Y804D02*
Y811D01*
Y761D02*
Y791D01*
Y733D02*
Y749D01*
X1105Y804D02*
Y811D01*
Y761D02*
Y791D01*
Y733D02*
Y748D01*
X1104Y804D02*
Y811D01*
Y761D02*
Y791D01*
Y733D02*
Y748D01*
X1104Y804D02*
Y811D01*
Y761D02*
Y791D01*
Y733D02*
Y748D01*
X1104Y804D02*
Y811D01*
Y761D02*
Y791D01*
Y733D02*
Y748D01*
X1104Y804D02*
Y811D01*
Y761D02*
Y791D01*
Y733D02*
Y748D01*
X1104Y804D02*
Y810D01*
Y761D02*
Y791D01*
Y733D02*
Y748D01*
X1103Y804D02*
Y810D01*
Y761D02*
Y791D01*
Y733D02*
Y748D01*
X1103Y804D02*
Y810D01*
Y761D02*
Y791D01*
Y733D02*
Y748D01*
X1103Y804D02*
Y810D01*
Y761D02*
Y791D01*
Y732D02*
Y748D01*
X1103Y804D02*
Y810D01*
Y761D02*
Y791D01*
Y732D02*
Y748D01*
X1103Y804D02*
Y809D01*
Y761D02*
Y791D01*
Y732D02*
Y748D01*
X1102Y804D02*
Y809D01*
Y761D02*
Y791D01*
Y732D02*
Y748D01*
X1102Y804D02*
Y809D01*
Y761D02*
Y790D01*
Y732D02*
Y748D01*
X1102Y804D02*
Y809D01*
Y761D02*
Y790D01*
Y732D02*
Y748D01*
X1102Y804D02*
Y809D01*
Y761D02*
Y790D01*
Y732D02*
Y748D01*
X1102Y804D02*
Y808D01*
Y761D02*
Y790D01*
Y732D02*
Y748D01*
X1101Y804D02*
Y808D01*
Y761D02*
Y790D01*
Y732D02*
Y748D01*
X1101Y804D02*
Y808D01*
Y761D02*
Y790D01*
Y732D02*
Y747D01*
X1101Y804D02*
Y808D01*
Y761D02*
Y790D01*
Y732D02*
Y747D01*
X1101Y804D02*
Y808D01*
Y761D02*
Y790D01*
Y732D02*
Y747D01*
X1101Y804D02*
Y807D01*
Y761D02*
Y790D01*
Y732D02*
Y747D01*
X1100Y804D02*
Y807D01*
Y761D02*
Y790D01*
Y732D02*
Y747D01*
X1100Y804D02*
Y807D01*
Y761D02*
Y790D01*
Y732D02*
Y747D01*
X1100Y805D02*
Y807D01*
Y761D02*
Y790D01*
Y732D02*
Y747D01*
X1100Y805D02*
Y807D01*
Y761D02*
Y790D01*
Y732D02*
Y747D01*
X1100Y805D02*
Y806D01*
Y761D02*
Y789D01*
Y732D02*
Y747D01*
X1099Y805D02*
Y806D01*
Y761D02*
Y789D01*
Y732D02*
Y747D01*
X1099Y805D02*
Y806D01*
Y761D02*
Y789D01*
Y732D02*
Y747D01*
X1099Y805D02*
Y806D01*
Y761D02*
Y789D01*
Y732D02*
Y747D01*
X1099Y805D02*
Y806D01*
Y761D02*
Y789D01*
Y732D02*
Y747D01*
X1099Y805D02*
Y805D01*
Y761D02*
Y789D01*
Y732D02*
Y747D01*
X1098Y805D02*
Y805D01*
Y761D02*
Y789D01*
Y732D02*
Y746D01*
X1098Y761D02*
Y789D01*
Y731D02*
Y746D01*
X1098Y761D02*
Y789D01*
Y731D02*
Y746D01*
X1098Y761D02*
Y789D01*
Y731D02*
Y746D01*
X1098Y761D02*
Y789D01*
Y731D02*
Y746D01*
X1097Y761D02*
Y789D01*
Y731D02*
Y746D01*
X1097Y761D02*
Y789D01*
Y731D02*
Y746D01*
X1097Y761D02*
Y788D01*
Y731D02*
Y746D01*
X1097Y761D02*
Y788D01*
Y731D02*
Y745D01*
X1097Y761D02*
Y788D01*
Y731D02*
Y745D01*
X1096Y761D02*
Y788D01*
Y731D02*
Y745D01*
X1096Y761D02*
Y788D01*
Y731D02*
Y745D01*
X1096Y761D02*
Y788D01*
Y731D02*
Y745D01*
X1096Y761D02*
Y788D01*
Y731D02*
Y745D01*
X1096Y761D02*
Y788D01*
Y731D02*
Y745D01*
X1095Y761D02*
Y788D01*
Y731D02*
Y744D01*
X1095Y761D02*
Y788D01*
Y731D02*
Y744D01*
X1095Y761D02*
Y788D01*
Y731D02*
Y744D01*
X1095Y761D02*
Y788D01*
Y731D02*
Y744D01*
X1095Y761D02*
Y788D01*
Y731D02*
Y744D01*
X1094Y761D02*
Y787D01*
Y731D02*
Y744D01*
X1094Y761D02*
Y787D01*
Y731D02*
Y744D01*
X1094Y761D02*
Y787D01*
Y731D02*
Y744D01*
X1094Y761D02*
Y787D01*
Y731D02*
Y743D01*
X1094Y761D02*
Y787D01*
Y731D02*
Y743D01*
X1093Y761D02*
Y787D01*
Y731D02*
Y743D01*
X1093Y761D02*
Y787D01*
Y731D02*
Y743D01*
X1093Y761D02*
Y787D01*
Y731D02*
Y743D01*
X1093Y761D02*
Y787D01*
Y731D02*
Y743D01*
X1093Y761D02*
Y787D01*
Y731D02*
Y742D01*
X1092Y761D02*
Y787D01*
Y731D02*
Y742D01*
X1092Y761D02*
Y787D01*
Y731D02*
Y742D01*
X1092Y761D02*
Y787D01*
Y731D02*
Y742D01*
X1092Y761D02*
Y787D01*
Y731D02*
Y742D01*
X1092Y761D02*
Y786D01*
Y731D02*
Y741D01*
X1091Y761D02*
Y786D01*
Y731D02*
Y741D01*
X1091Y761D02*
Y786D01*
Y731D02*
Y741D01*
X1091Y761D02*
Y786D01*
Y731D02*
Y741D01*
X1091Y761D02*
Y786D01*
Y731D02*
Y741D01*
X1091Y761D02*
Y786D01*
Y731D02*
Y740D01*
X1090Y761D02*
Y786D01*
Y731D02*
Y740D01*
X1090Y761D02*
Y786D01*
Y731D02*
Y740D01*
X1090Y761D02*
Y786D01*
Y731D02*
Y740D01*
X1090Y761D02*
Y786D01*
Y731D02*
Y739D01*
X1090Y761D02*
Y786D01*
Y731D02*
Y739D01*
X1089Y761D02*
Y786D01*
Y731D02*
Y738D01*
X1089Y761D02*
Y786D01*
Y731D02*
Y737D01*
X1089Y761D02*
Y785D01*
Y731D02*
Y737D01*
X1089Y761D02*
Y785D01*
Y731D02*
Y736D01*
X1089Y761D02*
Y785D01*
Y731D02*
Y736D01*
X1088Y761D02*
Y785D01*
Y731D02*
Y735D01*
X1088Y761D02*
Y785D01*
Y731D02*
Y735D01*
X1088Y761D02*
Y785D01*
Y731D02*
Y734D01*
X1088Y761D02*
Y785D01*
Y731D02*
Y734D01*
X1088Y761D02*
Y785D01*
Y731D02*
Y733D01*
X1087Y761D02*
Y785D01*
Y731D02*
Y733D01*
X1087Y761D02*
Y785D01*
Y731D02*
Y732D01*
X1087Y761D02*
Y785D01*
Y731D02*
Y732D01*
X1087Y761D02*
Y785D01*
Y731D02*
Y732D01*
X1087Y761D02*
Y785D01*
Y731D02*
Y732D01*
X1086Y761D02*
Y784D01*
Y731D02*
Y731D01*
X1086Y761D02*
Y784D01*
X1086Y761D02*
Y784D01*
X1086Y761D02*
Y784D01*
X1086Y761D02*
Y784D01*
X1085Y761D02*
Y784D01*
X1085Y761D02*
Y784D01*
X1085Y761D02*
Y784D01*
X1085Y761D02*
Y784D01*
X1085Y761D02*
Y784D01*
X1084Y761D02*
Y784D01*
X1084Y761D02*
Y784D01*
X1084Y761D02*
Y784D01*
X1084Y761D02*
Y784D01*
X1084Y761D02*
Y783D01*
X1083Y761D02*
Y783D01*
X1083Y761D02*
Y783D01*
X1083Y761D02*
Y783D01*
X1083Y761D02*
Y783D01*
X1083Y761D02*
Y783D01*
X1082Y761D02*
Y783D01*
X1082Y761D02*
Y783D01*
X1082Y761D02*
Y782D01*
X1082Y761D02*
Y782D01*
X1082Y761D02*
Y782D01*
X1081Y761D02*
Y782D01*
X1081Y761D02*
Y782D01*
X1081Y761D02*
Y782D01*
X1081Y761D02*
Y782D01*
X1081Y761D02*
Y782D01*
X1080Y760D02*
Y781D01*
X1080Y761D02*
Y781D01*
X1080Y760D02*
Y781D01*
X1080Y760D02*
Y781D01*
X1080Y760D02*
Y781D01*
X1079Y760D02*
Y781D01*
X1079Y760D02*
Y781D01*
X1079Y760D02*
Y781D01*
X1079Y760D02*
Y780D01*
X1079Y760D02*
Y780D01*
X1078Y760D02*
Y780D01*
X1078Y760D02*
Y780D01*
X1078Y760D02*
Y780D01*
X1078Y760D02*
Y780D01*
X1078Y760D02*
Y780D01*
X1077Y760D02*
Y780D01*
X1077Y760D02*
Y779D01*
X1077Y760D02*
Y779D01*
X1077Y760D02*
Y779D01*
X1077Y760D02*
Y779D01*
X1076Y760D02*
Y779D01*
X1076Y760D02*
Y779D01*
X1076Y760D02*
Y779D01*
X1076Y760D02*
Y779D01*
X1076Y760D02*
Y778D01*
X1075Y760D02*
Y778D01*
X1075Y760D02*
Y778D01*
X1075Y760D02*
Y778D01*
X1075Y760D02*
Y778D01*
X1075Y760D02*
Y778D01*
X1074Y760D02*
Y778D01*
X1074Y760D02*
Y778D01*
X1074Y760D02*
Y777D01*
X1074Y760D02*
Y777D01*
X1074Y760D02*
Y777D01*
X1073Y760D02*
Y777D01*
X1073Y760D02*
Y777D01*
X1073Y760D02*
Y777D01*
X1073Y760D02*
Y777D01*
X1073Y760D02*
Y777D01*
X1072Y760D02*
Y776D01*
X1072Y760D02*
Y776D01*
X1072Y760D02*
Y776D01*
X1072Y760D02*
Y776D01*
X1072Y760D02*
Y776D01*
X1071Y760D02*
Y776D01*
X1071Y760D02*
Y776D01*
X1071Y760D02*
Y776D01*
X1071Y760D02*
Y775D01*
X1071Y760D02*
Y775D01*
X1070Y760D02*
Y775D01*
X1070Y760D02*
Y775D01*
X1070Y760D02*
Y775D01*
X1070Y760D02*
Y775D01*
X1070Y760D02*
Y775D01*
X1069Y760D02*
Y775D01*
X1069Y760D02*
Y774D01*
X1069Y760D02*
Y774D01*
X1069Y760D02*
Y774D01*
X1069Y760D02*
Y774D01*
X1068Y760D02*
Y774D01*
X1068Y760D02*
Y774D01*
X1068Y760D02*
Y774D01*
X1068Y760D02*
Y774D01*
X1068Y760D02*
Y773D01*
X1067Y760D02*
Y773D01*
X1067Y760D02*
Y773D01*
X1067Y760D02*
Y773D01*
X1067Y760D02*
Y773D01*
X1067Y760D02*
Y773D01*
X1066Y760D02*
Y773D01*
X1066Y760D02*
Y773D01*
X1066Y760D02*
Y772D01*
X1066Y760D02*
Y772D01*
X1066Y760D02*
Y772D01*
X1065Y760D02*
Y772D01*
X1065Y760D02*
Y772D01*
X1065Y760D02*
Y772D01*
X1065Y760D02*
Y772D01*
X1065Y760D02*
Y772D01*
X1064Y760D02*
Y771D01*
X1064Y760D02*
Y771D01*
X1064Y760D02*
Y771D01*
X1064Y760D02*
Y771D01*
X1064Y760D02*
Y771D01*
X1063Y760D02*
Y771D01*
X1063Y761D02*
Y771D01*
X1063Y761D02*
Y771D01*
X1063Y761D02*
Y770D01*
X1063Y761D02*
Y770D01*
X1062Y761D02*
Y770D01*
X1062Y761D02*
Y770D01*
X1062Y761D02*
Y770D01*
X1062Y761D02*
Y770D01*
X1062Y761D02*
Y770D01*
X1061Y761D02*
Y770D01*
X1061Y761D02*
Y769D01*
X1061Y761D02*
Y769D01*
X1061Y761D02*
Y769D01*
X1061Y761D02*
Y769D01*
X1060Y761D02*
Y769D01*
X1060Y761D02*
Y769D01*
X1060Y761D02*
Y769D01*
X1060Y761D02*
Y769D01*
X1060Y761D02*
Y768D01*
X1059Y761D02*
Y768D01*
X1059Y761D02*
Y768D01*
X1059Y761D02*
Y768D01*
X1059Y761D02*
Y768D01*
X1059Y761D02*
Y768D01*
X1058Y761D02*
Y768D01*
X1058Y761D02*
Y767D01*
X1058Y761D02*
Y767D01*
X1058Y761D02*
Y767D01*
X1058Y761D02*
Y767D01*
X1057Y761D02*
Y767D01*
X1057Y761D02*
Y767D01*
X1057Y761D02*
Y767D01*
X1057Y761D02*
Y767D01*
X1057Y761D02*
Y766D01*
X1056Y761D02*
Y766D01*
X1056Y761D02*
Y766D01*
X1056Y761D02*
Y766D01*
X1056Y761D02*
Y766D01*
X1056Y761D02*
Y766D01*
X1055Y761D02*
Y766D01*
X1055Y761D02*
Y766D01*
X1055Y761D02*
Y765D01*
X1055Y761D02*
Y765D01*
X1055Y761D02*
Y765D01*
X1054Y761D02*
Y765D01*
X1054Y761D02*
Y765D01*
X1054Y761D02*
Y765D01*
X1054Y761D02*
Y765D01*
X1054Y761D02*
Y765D01*
X1053Y761D02*
Y764D01*
X1053Y761D02*
Y764D01*
X1053Y761D02*
Y764D01*
X1053Y761D02*
Y764D01*
X1053Y761D02*
Y764D01*
X1052Y761D02*
Y764D01*
X1052Y761D02*
Y764D01*
X1052Y761D02*
Y764D01*
X1052Y761D02*
Y763D01*
X1052Y761D02*
Y763D01*
X1051Y761D02*
Y763D01*
X1051Y761D02*
Y763D01*
X1051Y761D02*
Y763D01*
X1051Y761D02*
Y763D01*
X1051Y761D02*
Y763D01*
X1050Y761D02*
Y763D01*
X1050Y761D02*
Y762D01*
X1050Y761D02*
Y762D01*
X1050Y762D02*
Y762D01*
M02*
